<?xml version="1.0" encoding="utf-8"?>
<!-- Generator: Adobe Illustrator 24.1.2, SVG Export Plug-In . SVG Version: 6.00 Build 0)  -->
<svg version="1.1" id="Layer_1" xmlns="http://www.w3.org/2000/svg" xmlns:xlink="http://www.w3.org/1999/xlink" x="0px" y="0px"
	 viewBox="0 0 100 100" style="enable-background:new 0 0 100 100;" xml:space="preserve">
<style type="text/css">
	.st0{fill:#FFFFFF;stroke:#000000;stroke-miterlimit:10;}
	.st1{fill:none;stroke:#000000;stroke-width:2;stroke-linecap:round;stroke-miterlimit:10;}
	.st2{fill:none;stroke:#000000;stroke-miterlimit:10;}
</style>
<polyline class="st0" points="74.2,45.3 74.2,28.2 63.5,16.4 20.6,16.4 20.6,83.5 74.2,83.5 74.2,57.4 "/>
<polygon points="63.3,16.4 63.3,28.4 74.2,28.4 "/>
<line class="st1" x1="26" y1="29.9" x2="45.9" y2="29.9"/>
<line class="st1" x1="26" y1="38.7" x2="56.8" y2="38.7"/>
<line class="st1" x1="26" y1="47.6" x2="45.9" y2="47.6"/>
<line class="st1" x1="26" y1="56.5" x2="45.9" y2="56.5"/>
<path class="st2" d="M80.7,40c0.6,0.2,1.8,0.6,2.9,1.6c1.3,1.2,1.9,2.6,2.1,3.3c-8.7,8.7-17.5,17.5-26.2,26.2l-6.7,1.8l1.8-6.7
	L80.7,40z"/>
<path class="st2" d="M54.5,66.2c0.6,0.1,1.8,0.5,2.9,1.5c1.4,1.3,1.9,2.8,2,3.4"/>
<path class="st2" d="M28.4,77.1c0,0,14.2-16.3,4.7-13.5s6.1,4.4-2.2,8.1s-4.4-4.3-0.1-2.5s3.2,5.4,5.7,3.5c0,0,3.8-5.6,5.4-2.4
	c1.4,2.7,4.4-1.9,5.5-2.5"/>
</svg>
