<?xml version="1.0" encoding="utf-8"?>
<!-- Generator: Adobe Illustrator 24.1.2, SVG Export Plug-In . SVG Version: 6.00 Build 0)  -->
<svg version="1.1" id="Layer_1" xmlns="http://www.w3.org/2000/svg" xmlns:xlink="http://www.w3.org/1999/xlink" x="0px" y="0px"
	 viewBox="0 0 500 500" style="enable-background:new 0 0 500 500;" xml:space="preserve">
<style type="text/css">
	.st0{opacity:0.1;fill:#EC6639;}
	.st1{fill:#274C78;}
	.st2{fill:#EC673A;}
	.st3{opacity:0.1;fill:#020203;enable-background:new    ;}
</style>
<path class="st0" d="M15.3,98c6-14.3,13.8-22.6,27.7-37.6c8.6-9.2,21.6-23.1,42.3-36C105.1,11.9,124.8-0.4,152.4,0
	c24.7,0.4,42.8,10.8,48.8,14.7c1.7,1,26.1,16.9,38.3,42.8c4.1,8.7,9.9,16.6,13.8,25.4c2.6,5.8,4.9,11.9,10.5,14
	c2.6,0.9,5.4,0.8,9,3.4c1.2,0.8,4.3,3.1,4,5.6c-0.2,1.7-1.9,2.7-4.1,4.2c0,0-5.1,3.6-9.5,8.8c0,0-3.5,4.1-4.9,12.6
	c-2.1,13.1,12.8,36.2,35.7,53.9c22.3,17.2,48.2,26.3,57.3,20c5.3-3.6,8.6-6.6,8.6-6.6c6.2-5.6,7.6-8.8,10.1-8.6
	c3.3,0.3,4.1,6.3,7.3,11.9c5.4,9.5,14.7,12.9,22,16.3c0,0,9,4.2,40.6,29.3c31.2,24.8,38.3,68.4,39.1,73.2
	c7.8,51.9-24.3,92.6-39.1,111.3c-10.2,12.9-41.5,51.4-95.5,63.5c-13.3,3-42,9.1-74.5-2.6c-20.6-7.4-34.7-19-41.1-25
	c-5.3-4.9-17.7-16.4-26.6-35c-3.1-6.4-6.2-14.7-12.3-31.2c-5.2-13.9-8.4-23.5-16.2-26.1c-2.5-0.8-6.1-1.2-9.2-4.4
	c-0.6-0.6-3.6-4-3.4-8.5c0-0.9,0.4-4.3,6-9.7c7.3-7,11.8-6.1,14.8-10.7c2.7-4.2,2-9.4,0.3-15.6c-1.6-6-8.1-28.3-34.4-58.9
	c-0.6-0.7-7.8-8.9-19.5-15.2c-7.2-3.8-10.4-3.9-12.7-3.1c-3.5,1.2-3.4,3.7-9.9,9c-4.1,3.4-7.1,5.8-10.8,5.3
	c-3.3-0.5-5.4-3.1-5.6-3.4c-1.9-2.5-1.7-5.2-1.9-6.8c-0.4-4.8-3.9-8.5-11.2-14.6c-10.3-8.7-18.1-13.8-22.9-17.4
	c-11.6-8.6-18.1-17.8-24-26.1c-6-8.4-14.4-20.3-18.8-37.6C3.1,128.4,12.9,103.7,15.3,98z"/>
<circle class="st1" cx="122.1" cy="151.7" r="80.2"/>
<path class="st2" d="M122.1,113.3l-32,73.7l3,3l29-12.8l29,12.8l3-3L122.1,113.3z"/>
<path class="st3" d="M122.1,71.5c-44.3,0-80.2,35.9-80.2,80.2c0,44.3,35.9,80.2,80.2,80.2c44.3,0,80.2-35.9,80.2-80.2c0,0,0,0,0,0
	C202.3,107.4,166.4,71.5,122.1,71.5z M122.1,221.2c-38.4,0-69.5-31.1-69.5-69.5c0-38.4,31.1-69.5,69.5-69.5s69.5,31.1,69.5,69.5
	c0,0,0,0,0,0C191.6,190.1,160.5,221.2,122.1,221.2L122.1,221.2z"/>
<circle class="st1" cx="378" cy="151.7" r="80.1"/>
<path class="st2" d="M423.6,127.5l-24,24.4c-0.2,0.2-0.2,0.4,0,0.6c0,0,0,0,0,0l16.8,17.9c1.1,1.1,1.1,3,0,4.1
	c-0.5,0.5-1.3,0.8-2,0.8c-0.8,0-1.5-0.3-2.1-0.8l-16.7-17.8c-0.2-0.2-0.5-0.2-0.6,0l-4.1,4.1c-3.4,3.5-8,5.4-12.8,5.4
	c-4.9,0-9.6-2-13.1-5.5l-3.9-4c-0.2-0.2-0.5-0.2-0.6,0l-16.7,17.8c-1.1,1.1-3,1.1-4.1,0c0,0,0,0,0,0c-1.1-1.1-1.1-3,0-4.1
	c0,0,0,0,0,0l16.8-17.9c0.2-0.2,0.2-0.4,0-0.6l-24-24.4c-0.2-0.2-0.5-0.2-0.6,0c-0.1,0.1-0.1,0.2-0.1,0.3v48.8
	c0,3.9,3.2,7.1,7.1,7.1h78.5c3.9,0,7.1-3.2,7.1-7.1v-48.8c0-0.2-0.2-0.4-0.4-0.5C423.8,127.3,423.6,127.4,423.6,127.5z"/>
<path class="st2" d="M378,160.4c3.3,0,6.4-1.3,8.8-3.6l34.9-35.6c-1.2-1-2.8-1.6-4.4-1.6h-78.5c-1.6,0-3.2,0.6-4.4,1.6l35,35.6
	C371.6,159.1,374.7,160.4,378,160.4z"/>
<path class="st3" d="M377,71.5c-44.3,0-80.2,35.9-80.2,80.1c0,44.3,35.9,80.2,80.1,80.2c44.3,0,80.2-35.9,80.2-80.1c0,0,0-0.1,0-0.1
	C457.1,107.4,421.2,71.6,377,71.5z M377,221.1c-38.4,0-69.5-31.1-69.5-69.5c0-38.4,31.1-69.5,69.5-69.5c38.4,0,69.5,31.1,69.5,69.5
	l0,0C446.5,190,415.3,221.1,377,221.1z"/>
<circle class="st1" cx="250" cy="344.3" r="80.1"/>
<path class="st2" d="M284.4,365c-2.8-2.8-9.5-7-12.8-8.6c-3.8-1.8-5.3-1.8-8,0.2c-2.3,1.6-3.7,3.2-6.3,2.6
	c-2.6-0.6-7.7-4.4-12.7-9.4c-5-5-8.8-10.1-9.4-12.7c-0.6-2.6,1-4.1,2.6-6.3c2-2.7,2-4.1,0.2-8c-1.6-3.3-5.8-10-8.6-12.8
	c-2.8-2.8-3.4-2.2-5-1.6c-1.6,0.7-3.1,1.5-4.5,2.4c-2.8,1.9-4.4,3.4-5.5,5.8s-2.3,6.7,4,18.1c4.7,8.7,10.7,16.7,17.7,23.6l0,0l0,0
	c7,7,15,13,23.7,17.7c11.4,6.4,15.7,5.1,18.1,4c2.3-1.1,3.9-2.6,5.8-5.5c0.9-1.4,1.7-3,2.4-4.5C286.6,368.4,287.2,367.8,284.4,365z"
	/>
<path class="st3" d="M250,264.2c-44.3,0-80.2,35.9-80.2,80.1c0,44.3,35.9,80.2,80.1,80.2c44.3,0,80.2-35.9,80.2-80.1
	c0,0,0-0.1,0-0.1C330.1,300.1,294.3,264.2,250,264.2z M250,413.8c-38.4,0-69.5-31.1-69.5-69.5c0-38.4,31.1-69.5,69.5-69.5
	c38.4,0,69.5,31.1,69.5,69.5v0C319.5,382.7,288.4,413.8,250,413.8L250,413.8L250,413.8z"/>
</svg>
