<?xml version="1.0" encoding="utf-8"?>
<!-- Generator: Adobe Illustrator 24.1.0, SVG Export Plug-In . SVG Version: 6.00 Build 0)  -->
<svg version="1.1" id="Layer_1" xmlns="http://www.w3.org/2000/svg" xmlns:xlink="http://www.w3.org/1999/xlink" x="0px" y="0px"
	 viewBox="0 0 24 24" style="enable-background:new 0 0 24 24;" xml:space="preserve">
<path class="st0" d="M11.45,18.93c-0.37-0.04-0.72-0.11-1.08-0.2c-0.06-0.01-1.04-0.3-1.94-0.96c-1.45-1.06-1.81-2.41-2.8-3.53
	c-0.7-0.78-1.96-1.73-4.42-2.11c2.46-0.37,3.72-1.31,4.42-2.12c1.03-1.19,1.35-2.67,2.82-3.72c0.91-0.65,1.92-0.94,1.92-0.94
	c0.36-0.09,0.71-0.17,1.08-0.2c0.4-0.04,0.81-0.04,1.22,0c0.37,0.04,0.72,0.11,1.08,0.2c0,0,1.03,0.29,1.94,0.96
	c1.44,1.06,1.58,2.5,2.55,3.7c0.68,0.84,1.95,1.8,4.56,2.12c-2.65,0.31-3.93,1.28-4.6,2.11c-0.93,1.15-1.11,2.53-2.52,3.55
	c-0.9,0.65-1.92,0.94-1.92,0.94c-0.36,0.09-0.71,0.17-1.08,0.2C12.26,18.97,11.85,18.97,11.45,18.93z"/>
</svg>
