<?xml version="1.0" encoding="utf-8"?>
<!-- Generator: Adobe Illustrator 24.1.2, SVG Export Plug-In . SVG Version: 6.00 Build 0)  -->
<svg version="1.1" id="_x38_fc77738-ee79-4216-bfe1-e1f5c470859a"
	 xmlns="http://www.w3.org/2000/svg" xmlns:xlink="http://www.w3.org/1999/xlink" x="0px" y="0px" viewBox="0 0 1114.2 608.5"
	 style="enable-background:new 0 0 1114.2 608.5;" xml:space="preserve">
<style type="text/css">
	.st0{opacity:0.1;fill:#EC663A;enable-background:new    ;}
	.st1{fill:none;stroke:#535461;stroke-width:2;stroke-miterlimit:10;}
	.st2{fill:#EC663A;}
	.st3{fill:#6C63FF;}
	.st4{opacity:0.25;enable-background:new    ;}
	.st5{fill:url(#SVGID_1_);}
	.st6{fill:#F6F7F9;}
	.st7{opacity:0.2;}
	.st8{opacity:0.2;fill:#EC663A;enable-background:new    ;}
	.st9{fill:#3ACC6C;}
	.st10{opacity:0.1;enable-background:new    ;}
	.st11{fill:#FFD037;}
	.st12{fill:#AA3F22;}
	.st13{fill:#EAB7A9;}
	.st14{fill:none;stroke:#EC663A;stroke-miterlimit:10;}
	.st15{opacity:0.1;}
	.st16{fill:none;stroke:#6C63FF;stroke-miterlimit:10;}
	.st17{fill:url(#SVGID_2_);}
	.st18{fill:#ECB4B6;}
	.st19{fill:#C17174;}
	.st20{opacity:0.25;fill:#FFFFFF;enable-background:new    ;}
	.st21{fill:#FF748E;}
	.st22{fill:#5E5A6B;}
	.st23{fill:#464353;}
	.st24{fill:#9F9EFF;}
</style>
<path class="st0" d="M698.5,98.2c-32.8,20.8-75.4,19.4-112.7,8.6s-71.6-30-107.9-43.7c-30.5-11.5-62.4-19-94.8-22.3
	c-46.3-4.8-98.1,1-130.4,34.6c-36,37.4-33.2,104.8,5.7,139.1c19.8,17.5,45.7,26,68.3,39.6c22.6,13.6,43.5,36.3,41.6,62.6
	c-1.8,24.4-22.5,43-43.9,54.8c-16.6,9.1-37,19-39,37.7c-1.9,18.2,15.2,32.4,31.6,40.5c53.4,26.4,119.2,26.1,172.5-0.7
	c19-9.6,36.4-22.3,56.4-29.7c52.3-19.6,109.9,0.1,165.2,7.3c47,6.1,94.7,2.9,140.5-9.2c27.4-7.3,54.9-18.5,74.2-39.3
	c13.9-15,22.5-34,30.7-52.8c8.7-20,17-40.2,25-60.5c4.8-12.2,9.5-24.6,10.8-37.7c2.2-23.6-7.2-47-20.1-66.9
	c-30.6-47.4-82.1-80.7-137.8-89.1c-55.8-8.5-114.8,8.1-158,44.2"/>
<ellipse class="st0" cx="309.2" cy="587.9" rx="105.4" ry="20.6"/>
<ellipse class="st0" cx="622.4" cy="544.9" rx="220.9" ry="20.6"/>
<path class="st1" d="M772.3,398.1c0,0,31-54.9,77.7-70.7c19.6-6.6,36.7-19.1,48.4-36.2c5.5-8.1,10.3-16.7,14.3-25.7"/>
<path class="st2" d="M941.9,255.5c-5.3,5.2-30.1,10.5-30.1,10.5s6.1-24.6,11.4-29.7c5.3-5.2,13.8-5,19,0.3
	C947.4,241.8,947.2,250.3,941.9,255.5L941.9,255.5L941.9,255.5z"/>
<path class="st2" d="M927.9,300c-7.3,1.4-30.9-7.5-30.9-7.5s18.5-17.3,25.7-18.8c7.2-1.6,14.4,3,16,10.2c1.6,7.2-3,14.4-10.2,16
	C928.3,299.9,928.1,299.9,927.9,300L927.9,300z"/>
<path class="st2" d="M876.9,348.1c-7-2.4-22.9-22.1-22.9-22.1s24.7-5.7,31.7-3.2c7.1,2.3,11,9.8,8.7,16.9c-2.3,7.1-9.8,11-16.9,8.7
	C877.3,348.2,877.1,348.2,876.9,348.1z"/>
<path class="st2" d="M830.1,375.8c-7.3-1.2-26.3-17.9-26.3-17.9s23.4-9.7,30.7-8.5c7.3,1.2,12.3,8.1,11,15.4
	C844.3,372.1,837.4,377,830.1,375.8L830.1,375.8L830.1,375.8z"/>
<path class="st2" d="M876.3,273.2c0,7.4,13.4,28.9,13.4,28.9s13.4-21.5,13.4-28.9c-0.2-7.4-6.3-13.3-13.7-13.1
	C882.3,260.3,876.5,266.1,876.3,273.2L876.3,273.2z"/>
<path class="st2" d="M822,306.3c2.2,7.1,21.4,23.6,21.4,23.6s6.4-24.5,4.2-31.6c-2.2-7.1-9.7-11-16.8-8.8S819.8,299.3,822,306.3
	L822,306.3z"/>
<path class="st3" d="M773.7,345.8c1,7.3,17.1,26.8,17.1,26.8s10.4-23.1,9.4-30.4c-1-7.3-7.7-12.5-15.1-11.5S772.7,338.4,773.7,345.8
	L773.7,345.8z"/>
<path class="st4" d="M941.9,255.5c-5.3,5.2-30.1,10.5-30.1,10.5s6.1-24.6,11.4-29.7c5.3-5.2,13.8-5,19,0.3
	C947.4,241.8,947.2,250.3,941.9,255.5L941.9,255.5L941.9,255.5z"/>
<path class="st4" d="M927.9,300c-7.3,1.4-30.9-7.5-30.9-7.5s18.5-17.3,25.7-18.8c7.2-1.6,14.4,3,16,10.2c1.6,7.2-3,14.4-10.2,16
	C928.3,299.9,928.1,299.9,927.9,300L927.9,300z"/>
<path class="st4" d="M876.9,348.1c-7-2.4-22.9-22.1-22.9-22.1s24.7-5.7,31.7-3.2c7.1,2.3,11,9.8,8.7,16.9c-2.3,7.1-9.8,11-16.9,8.7
	C877.3,348.2,877.1,348.2,876.9,348.1z"/>
<path class="st4" d="M830.1,375.8c-7.3-1.2-26.3-17.9-26.3-17.9s23.4-9.7,30.7-8.5c7.3,1.2,12.3,8.1,11,15.4
	C844.3,372.1,837.4,377,830.1,375.8L830.1,375.8L830.1,375.8z"/>
<path class="st4" d="M876.3,273.7c0,7.4,13.4,28.9,13.4,28.9s13.4-21.5,13.4-28.9c-0.2-7.4-6.3-13.3-13.7-13.1
	C882.3,260.8,876.5,266.6,876.3,273.7L876.3,273.7z"/>
<path class="st4" d="M822,306.3c2.2,7.1,21.4,23.6,21.4,23.6s6.4-24.5,4.2-31.6c-2.2-7.1-9.7-11-16.8-8.8S819.8,299.3,822,306.3
	L822,306.3z"/>
<path class="st4" d="M773.7,345.8c1,7.3,17.1,26.8,17.1,26.8s10.4-23.1,9.4-30.4c-1-7.3-7.7-12.5-15.1-11.5S772.7,338.4,773.7,345.8
	L773.7,345.8z"/>
<path class="st1" d="M774.1,397c0,0,6.1-62.7,42.3-96.1c15.3-13.9,25.7-32.4,29.6-52.7c1.8-9.6,2.7-19.4,2.6-29.2"/>
<path class="st2" d="M871.3,197.9c-2.8,6.9-23.2,21.7-23.2,21.7s-4.4-24.9-1.6-31.8c3.1-6.7,11-9.7,17.8-6.6
	C870.5,184.1,873.6,191.3,871.3,197.9L871.3,197.9z"/>
<path class="st2" d="M876.6,244.2c-6.1,4.3-31.3,5.7-31.3,5.7s9.9-23.3,15.9-27.6c6.1-4.2,14.5-2.7,18.6,3.5
	C883.9,231.8,882.5,240,876.6,244.2z"/>
<path class="st2" d="M849.5,308.9c-7.4,0.6-29.9-10.9-29.9-10.9s20.3-15.2,27.7-15.8c7.4-0.6,13.9,4.9,14.5,12.2
	C862.3,301.8,856.8,308.3,849.5,308.9z"/>
<path class="st2" d="M817.9,353.2c-7.2,1.9-31.3-5.7-31.3-5.7s17.4-18.4,24.6-20.2c7.2-1.9,14.5,2.4,16.3,9.6
	S825.1,351.4,817.9,353.2L817.9,353.2z"/>
<path class="st2" d="M818.6,240.7c3,6.8,24,21,24,21s3.6-25.1,0.6-31.8c-3-6.8-10.9-9.8-17.7-6.8C818.6,226,815.6,233.9,818.6,240.7
	L818.6,240.7L818.6,240.7z"/>
<path class="st3" d="M782.3,293c4.9,5.6,29.1,12.9,29.1,12.9s-4.1-25-9-30.6c-4.9-5.6-13.4-6.1-18.9-1.2
	C778,278.9,777.4,287.4,782.3,293L782.3,293z"/>
<path class="st3" d="M754.1,348.7c3.9,6.3,26.5,17.6,26.5,17.6s0.2-25.3-3.7-31.6c-3.9-6.3-12.1-8.3-18.4-4.4
	C752.2,334.1,750.2,342.3,754.1,348.7L754.1,348.7L754.1,348.7z"/>
<linearGradient id="SVGID_1_" gradientUnits="userSpaceOnUse" x1="619.6815" y1="61.092" x2="619.6815" y2="608.8885" gradientTransform="matrix(1 0 0 -1 0 608.98)">
	<stop  offset="0" style="stop-color:#808080;stop-opacity:0.25"/>
	<stop  offset="0.54" style="stop-color:#808080;stop-opacity:0.12"/>
	<stop  offset="1" style="stop-color:#808080;stop-opacity:0.1"/>
</linearGradient>
<polygon class="st5" points="422.7,0.1 422.7,21.4 422.7,547.9 816.7,547.9 816.7,21.4 816.7,0.1 "/>
<rect x="426.1" y="4.9" class="st6" width="387.1" height="20.9"/>
<g class="st7">
	<rect x="426.1" y="4.9" class="st2" width="387.1" height="20.9"/>
</g>
<rect x="426.1" y="25.8" class="st6" width="387.1" height="517.3"/>
<circle class="st6" cx="436.3" cy="15.3" r="3.5"/>
<circle class="st6" cx="445.9" cy="15.3" r="3.5"/>
<circle class="st6" cx="455.5" cy="15.3" r="3.5"/>
<g class="st7">
	<rect x="495.2" y="57.7" class="st2" width="248.9" height="9.7"/>
</g>
<rect x="711.1" y="57.7" class="st2" width="33.1" height="9.7"/>
<g class="st7">
	<rect x="459.5" y="256.8" class="st8" width="156.6" height="112.2"/>
</g>
<g class="st7">
	<rect x="459.5" y="111.3" class="st8" width="156.6" height="112.2"/>
</g>
<g class="st7">
	<rect x="459.5" y="400.5" class="st8" width="156.6" height="112.2"/>
</g>
<g class="st7">
	<rect x="623.2" y="256.8" class="st8" width="156.6" height="112.2"/>
</g>
<g class="st7">
	<rect x="623.2" y="111.3" class="st8" width="156.6" height="112.2"/>
</g>
<g class="st7">
	<rect x="623.2" y="400.5" class="st8" width="156.6" height="112.2"/>
</g>
<path class="st9" d="M927.2,492.8c0,0,5.5,7.2-2.6,18.2c-8.1,10.9-14.8,20.2-12.1,27c0,0,12.2-20.3,22.2-20.6S938.1,505,927.2,492.8
	z"/>
<path class="st10" d="M927.2,492.8c0.5,0.7,0.9,1.5,1.1,2.3c9.7,11.4,14.9,22,5.5,22.3c-8.7,0.2-19.1,15.8-21.6,19.7
	c0.1,0.3,0.2,0.6,0.3,0.9c0,0,12.2-20.3,22.2-20.6S938.1,505,927.2,492.8z"/>
<path class="st11" d="M937.5,502c0,2.5-0.3,4.6-0.6,4.6c-0.3,0-0.6-2.1-0.6-4.6s0.4-1.4,0.7-1.4C937.3,500.7,937.5,499.5,937.5,502z
	"/>
<path class="st11" d="M941,505.1c-2.2,1.2-4.2,2-4.4,1.6c-0.2-0.3,1.5-1.6,3.7-2.8c2.2-1.2,1.4-0.3,1.6,0
	C942.2,504.3,943.3,503.9,941,505.1z"/>
<path class="st9" d="M897.9,492.8c0,0-5.5,7.2,2.6,18.2c8.1,10.9,14.8,20.2,12.1,27c0,0-12.2-20.3-22.2-20.6S887,505,897.9,492.8z"
	/>
<path class="st10" d="M897.9,492.8c-0.5,0.7-0.9,1.5-1.1,2.3c-9.7,11.4-14.9,22-5.5,22.3c8.7,0.2,19.1,15.8,21.6,19.7
	c-0.1,0.3-0.2,0.6-0.3,0.9c0,0-12.2-20.3-22.2-20.6S887,505,897.9,492.8z"/>
<path class="st11" d="M887.6,502c0,2.5,0.3,4.6,0.6,4.6c0.4,0,0.6-2.1,0.6-4.6s-0.4-1.4-0.7-1.4C887.9,500.7,887.6,499.5,887.6,502z
	"/>
<path class="st11" d="M884.1,505.1c2.2,1.2,4.2,2,4.4,1.6c0.2-0.3-1.5-1.6-3.8-2.8c-2.2-1.2-1.4-0.3-1.6,0
	C883,504.3,881.9,503.9,884.1,505.1z"/>
<ellipse class="st0" cx="912.6" cy="584.5" rx="57.9" ry="8.9"/>
<path class="st12" d="M942.4,528.2l-0.3,2.3l-0.4,3.2l-0.2,1.3l-0.4,3.2l-0.2,1.3l-0.4,3.2l-4.4,36.3c-0.4,3.2-5.7,5.8-12.1,5.8h-23
	c-6.4,0-11.6-2.5-12.1-5.8l-4.4-36.4l-0.4-3.2l-0.2-1.3l-0.4-3.2l-0.2-1.3l-0.4-3.2l-0.3-2.3c-0.2-1.8,2.7-3.3,6.3-3.3h47.1
	C939.7,524.8,942.6,526.4,942.4,528.2z"/>
<polygon class="st13" points="942.1,530.5 941.7,533.6 883.4,533.6 883,530.5 "/>
<polygon class="st13" points="941.6,535 941.2,538.2 884,538.2 883.6,535 "/>
<polygon class="st13" points="941,539.5 940.6,542.7 884.5,542.7 884.1,539.5 "/>
<path class="st2" d="M663.2,133c0,0-1.4-3.5,8.2-2.7c9.6,0.9,37.1,3.9,49,1.3s19-3.5,18.3,0c-0.7,3.5-20.6,11.5-20.6,11.5l-25.7,2.7
	l-19-3l-10.2-6L663.2,133z"/>
<path class="st10" d="M738.7,131.6c-0.7,3.5-20.6,11.5-20.6,11.5l-25.7,2.7l-19-3l-10.2-6l0.1-3.7c-0.2-0.6,0-1.3,0.5-1.7
	c0.9-0.8,2.9-1.4,7.6-0.9c9.6,0.9,37.1,3.9,49,1.3c9.7-2.2,16.2-3.2,17.9-1.6C738.7,130.4,738.8,131,738.7,131.6z"/>
<path class="st2" d="M754,185.3c-16.6,3.2-32.2,10.1-45.7,20.2c-0.7-1.8-2-3.3-3.6-4.3c-1.1-0.7-2.4-1.2-3.7-1.6
	c-1.2-0.3-2.3,0.4-3.4,1.5c-1.2,1.3-2.2,2.8-3,4.4c-18.1-12.4-45.6-20.4-45.6-20.4v-2.5c0-0.5,0.1-1.1,0.2-1.7
	c0.1-0.7,0.2-1.3,0.4-2c2.3-11.8,11.5-38.9,11.5-38.9h2.8h7.6l20.2,4.2l22.7-1.4l22.9-4.8l3-0.6c4.9,3.9,10.6,31.1,12.8,42.6
	c0.3,1.5,0.5,2.7,0.7,3.6C753.9,184.7,754,185.3,754,185.3z"/>
<path class="st3" d="M652.8,180.2c0.6-11.4,9.6-36,11.2-40.1h-2.8c0,0-9.8,28.7-11.7,39.9c0,0,0,0.1,0,0.1c-0.1,0.3-0.1,0.6-0.1,0.9
	c-0.1,0.7-0.2,1.3-0.2,1.7v2.5c0,0,27.5,7.9,45.6,20.4c0.8-1.6,1.8-3.1,3-4.4C690.7,194.8,664.4,184.6,652.8,180.2z"/>
<path class="st3" d="M753.7,183.7c-0.1-0.4-0.2-0.9-0.2-1.4c-0.1-0.7-0.3-1.4-0.4-2.2l0,0c-2.2-11.6-7.8-38.8-12.8-42.6l-3,0.6
	c1.8,4.8,13.4,36.4,12.4,42.6c-19.4,3.9-39.1,16.5-45,20.5c1.7,1,3,2.5,3.6,4.3c13.5-10.1,29.1-17,45.7-20.2
	C754,185.3,753.9,184.7,753.7,183.7z"/>
<path class="st10" d="M653.5,179.5c0.6-11.4,9.6-36,11.2-40.1h-2.9c0,0-9.8,28.7-11.7,39.9c0,0,0,0.1,0,0.1
	c-0.1,0.3-0.1,0.6-0.1,0.9c-0.1,0.7-0.2,1.3-0.2,1.7v2.5c0,0,27.4,7.9,45.6,20.4c0.8-1.6,1.8-3.1,3-4.4
	C691.4,194.1,665.2,183.9,653.5,179.5z"/>
<path class="st2" d="M652.8,180.2c0.6-11.4,9.6-36,11.2-40.1h-2.8c0,0-9.8,28.7-11.7,39.9c0,0,0,0.1,0,0.1c-0.1,0.3-0.1,0.6-0.1,0.9
	c-0.1,0.7-0.2,1.3-0.2,1.7v2.5c0,0,27.5,7.9,45.6,20.4c0.8-1.6,1.8-3.1,3-4.4C690.7,194.8,664.4,184.6,652.8,180.2z"/>
<path class="st10" d="M753,183l-0.2-1.4c-0.1-0.7-0.3-1.4-0.4-2.2l0,0c-2.2-11.6-7.8-38.8-12.8-42.6l-3,0.6
	c1.8,4.8,13.4,36.4,12.4,42.6c-19.4,3.9-39.1,16.5-45,20.5c1.7,1,3,2.5,3.6,4.3c13.5-10.1,29.1-17,45.7-20.2
	C753.3,184.6,753.2,184,753,183z"/>
<path class="st2" d="M753.7,183.7c-0.1-0.4-0.2-0.9-0.2-1.4c-0.1-0.7-0.3-1.4-0.4-2.2l0,0c-2.2-11.6-7.8-38.8-12.8-42.6l-3,0.6
	c1.8,4.8,13.4,36.4,12.4,42.6c-19.4,3.9-39.1,16.5-45,20.5c1.7,1,3,2.5,3.6,4.3c13.5-10.1,29.1-17,45.7-20.2
	C754,185.3,753.9,184.7,753.7,183.7z"/>
<path class="st10" d="M659.5,154.1c0,0,18,11.3,22.2-5.3l4,1.1c0,0,1.3,18.4-27.4,7.9L659.5,154.1z"/>
<path class="st2" d="M659.5,152.7c0,0,18,11.3,22.2-5.3l4,1.1c0,0,1.3,18.4-27.4,7.9L659.5,152.7z"/>
<path class="st10" d="M716.2,149.4c0,0,2.3,13.6,27,7l-0.9-2.6c0,0-16.9,7-23-5.1L716.2,149.4z"/>
<path class="st2" d="M716.2,148c0,0,2.3,13.6,27,7l-0.9-2.6c0,0-16.9,7-23-5.1L716.2,148z"/>
<path class="st10" d="M699.8,149.2v28.3h4.4c0,0,6.1-2.2,5.9-14.9s-1.1-16.2-1.1-16.2L699.8,149.2z"/>
<path class="st2" d="M699.1,148.5v28.3h4.4c0,0,6.1-2.2,5.9-14.9s-1.1-16.2-1.1-16.2L699.1,148.5z"/>
<path class="st10" d="M740.2,138.9c-1.8,3.3-18,8.8-20.9,9.7l-0.4,0.1c0,0-1,0.3-2.7,0.6c-5.2,1.1-16.9,3.1-25.6,1.3
	c-1.3-0.2-2.6-0.5-3.9-0.8l-3.1-0.7c-10.1-2.2-20.5-5.2-22.4-7.8c0,0,0.5-8.4,2.2-8.2c1.7,0.2,20.7,8.2,20.7,8.2l0.3,0
	c0.5,0.1,1.6,0.2,3.2,0.4c6.2,0.7,19.2,1.7,26.1-0.1c0.3-0.1,0.6-0.2,0.9-0.3c0.5-0.2,1.1-0.4,1.6-0.6c9-3.2,22.5-8.9,22.5-8.9
	S742.2,135.3,740.2,138.9z"/>
<path class="st10" d="M738.7,131.6c-0.7,3.5-20.6,11.5-20.6,11.5l-25.7,2.7l-19-3l-10.2-6l0.1-3.7c-0.2-0.6,0-1.3,0.5-1.7
	c3.4,1,20.2,8.1,20.2,8.1l0.3,0c0.5,0.1,1.6,0.2,3.2,0.4c6.2,0.7,19.2,1.7,26.1-0.1c0.3-0.1,0.6-0.2,0.9-0.3
	c0.5-0.2,1.1-0.4,1.6-0.6c8.1-2.9,19.9-7.8,22.1-8.7C738.7,130.4,738.8,131,738.7,131.6z"/>
<path class="st2" d="M740.2,137.5c-1.8,3.3-18,8.8-20.9,9.7l-0.4,0.1c0,0-1,0.3-2.7,0.6c-5.2,1.1-16.9,3.1-25.6,1.3
	c-1.3-0.2-2.6-0.5-3.9-0.8l-3.1-0.7c-10.1-2.2-20.5-5.2-22.4-7.8c0,0,0.5-8.4,2.2-8.2s20.7,8.2,20.7,8.2l0.3,0
	c0.5,0.1,1.6,0.2,3.2,0.4c6.2,0.7,19.2,1.7,26.1-0.1c0.3-0.1,0.6-0.2,0.9-0.3c0.5-0.2,1.1-0.4,1.6-0.6c9-3.2,22.5-8.9,22.5-8.9
	S742.2,133.8,740.2,137.5z"/>
<circle class="st10" cx="702.9" cy="146.4" r="2.8"/>
<circle class="st2" cx="702.9" cy="145.7" r="2.8"/>
<path class="st10" d="M688.1,140.5l-0.8,8l-3.1-0.7l0.8-7.7C685.5,140.2,686.6,140.3,688.1,140.5z"/>
<path class="st2" d="M687.4,140.5l-0.8,8l-3.1-0.7l0.8-7.7C684.7,140.2,685.9,140.3,687.4,140.5z"/>
<path class="st10" d="M718.7,147.2l-0.4,0.1c0,0-1,0.3-2.7,0.6l-2.6-7.6c0.3-0.1,0.7-0.2,1-0.3c0.5-0.2,1.1-0.4,1.6-0.6L718.7,147.2
	z"/>
<path class="st2" d="M719.4,147.2l-0.4,0.1c0,0-1,0.3-2.7,0.6l-2.6-7.6c0.3-0.1,0.6-0.2,0.9-0.3c0.5-0.2,1.1-0.4,1.6-0.6
	L719.4,147.2z"/>
<path class="st2" d="M519.1,126.5c3.6,0,7.2,1,10.3,2.9c0,0,9.5,1.1,14.6,0c5.2-1.1,7.8-5.2,8.7-4s1,11.9,1,11.9l-4.4,11.9l-10,7.4
	l-15.9-4.6l-5.3-13.5L519.1,126.5z"/>
<path class="st10" d="M553.8,137.2l-4.4,11.9l-10,7.4l-15.9-4.6l-5.3-13.5l1-12h0.2c3.6,0.1,7,1.1,10.1,2.9c0,0,9.5,1.1,14.6,0
	c4.9-1.1,7.5-4.8,8.5-4.1l0,0c0.1,0,0.1,0.1,0.2,0.1C553.8,126.5,553.8,137.2,553.8,137.2z"/>
<path class="st10" d="M553.8,137.2l-4.4,11.9l-10,7.4l-15.9-4.6l-5.3-13.5l1-12h0.2c0.9,3.8,4.7,15.8,16.7,16.6
	c12.4,0.9,15.9-13.8,16.6-17.9c0.1,0,0.1,0.1,0.2,0.1C553.8,126.5,553.8,137.2,553.8,137.2z"/>
<path class="st2" d="M519.1,126.5c0,0,2.6,16.8,16.9,17.8c14.3,1,16.8-18.9,16.8-18.9s20.8,6.8,25.6,19c4.8,12.1,8.5,21.9,8.5,21.9
	s-1.6,2.7-3.3,3c-1.7,0.3-13.6,8.5-13.6,8.5s-0.1,23.2,1.1,24.6c1.3,1.4,0.9,7.6-3,7.3c-3.9-0.3-30.7-6.3-53.6-1.3
	c0,0-9.6,3.4-9.3-2.2c0.3-5.6,0.7-27.5,0.7-27.5s-14.5-6.3-15.3-6.3c-0.9,0-3-1.1-0.7-4.9S495,151,495,151S500.8,132.7,519.1,126.5z
	"/>
<path class="st10" d="M563.7,156.6c0,0,4.3,3.2,3.3,5.6C566,164.6,563.7,156.6,563.7,156.6z"/>
<path class="st10" d="M570,159.6c-0.4,1.4-0.4,2.9,0,4.3"/>
<path class="st10" d="M572.8,167.5c0,0,0.6,3.9-1.1,4.3"/>
<path class="st10" d="M514.4,155.6c0,0-8,7-5.3,9.7"/>
<path class="st10" d="M509.4,172.5c0,0-0.1,7.3,2.1,7.9"/>
<path class="st10" d="M532.4,197c0,0,5.4-3.7,6.9-3.6"/>
<path class="st10" d="M537.9,200.9c0,0,5.9-4.2,7.5-3.9"/>
<path class="st2" d="M665.7,267.5c0,0,46.9,2.2,70.2,0.9l-0.5,6.1l-41.2,5.4l-12.2-3.8L665.7,267.5z"/>
<path class="st10" d="M735.9,268.6l-0.5,6.1l-41.2,5.4l-12.2-3.8l-16.3-8.7c0,0,1,0.1,2.7,0.1l0,0c10.2,0.4,46.8,1.9,66.9,0.8
	L735.9,268.6z"/>
<path class="st2" d="M752.1,355.8c-9.1,5.4-40.5,0.2-40.5,0.2l-8.7-31.1l-9.7,31.6c-13.8,5-42.4-2.2-42.4-2.2L662,286l1.9-9.4l1.8-9
	l17.6,5.3c0,0,5.3,3.6,27.3,2.6s25.3-7,25.3-7c1,0.3,1.9,3.7,2.8,8c1.4,6.2,2.7,14.2,4.3,16.8C745.8,297.6,752.1,355.8,752.1,355.8z
	"/>
<path class="st10" d="M738.7,277c-19.6,10.8-36.6,10.5-36.6,10.5c-4.2,0.5-38.3-10.3-38.3-10.3l1.8-9l17.6,5.3c0,0,5.3,3.6,27.3,2.6
	s25.3-7,25.3-7C736.9,269.4,737.8,272.8,738.7,277z"/>
<path class="st10" d="M735.9,268.4l-0.5,6.1l-41.2,5.4l-12.2-3.8l-16.3-8.7c0,0,1,0.1,2.7,0.1l0,0l14.9,4.5c0,0,5.3,3.6,27.3,2.6
	c17.3-0.8,23-4.7,24.7-6.3L735.9,268.4z"/>
<path class="st2" d="M738.7,276.4c-19.6,10.8-36.6,10.5-36.6,10.5c-4.2,0.5-38.3-10.3-38.3-10.3l1.8-9l17.6,5.3
	c0,0,5.3,3.6,27.3,2.6s25.3-7,25.3-7C736.9,268.7,737.8,272.1,738.7,276.4z"/>
<circle class="st10" cx="705.5" cy="283.4" r="1.8"/>
<circle class="st14" cx="705.5" cy="282.7" r="1.8"/>
<path class="st10" d="M659.6,314.8c0,0,3.2,9.4,5.4,9.2C667.3,323.9,659.6,314.8,659.6,314.8z"/>
<path class="st10" d="M657.6,324.1c0,0,2,5.6,4,6.6"/>
<path class="st10" d="M657.6,330c0,0,3.1,3.9,4.9,4.9"/>
<path class="st10" d="M741,294.4c0,0,2.9,4.4,0,5.3"/>
<path class="st10" d="M742.3,301.5c-3.4-4-1.3,5.4-1.3,5.4S743.2,302.5,742.3,301.5z"/>
<path class="st10" d="M744,306.4c0,0-5.1,7.6-4.1,8.5"/>
<path class="st10" d="M676.2,294.6c-6.3,0-12.8-2.8-13.2-3l0.3-0.6c0.1,0.1,12.7,5.5,19.5,1.4c2.6-1.6,4-4.3,4.3-8.2l0.7,0.1
	c-0.3,4.1-1.8,7-4.6,8.7C681,294.1,678.6,294.7,676.2,294.6z"/>
<path class="st2" d="M676.2,293.9c-6.3,0-12.8-2.8-13.2-3l0.3-0.6c0.1,0.1,12.7,5.5,19.5,1.4c2.6-1.6,4-4.3,4.3-8.2l0.7,0.1
	c-0.3,4.1-1.8,7-4.6,8.7C681,293.4,678.6,294,676.2,293.9z"/>
<path class="st10" d="M727.8,295.1c-1.6,0-3.2-0.3-4.7-1c-5.1-2.5-5.9-8.5-6-8.7l0.7-0.1c0,0.1,0.8,5.9,5.6,8.2
	c4.2,2,10.3,0.8,17.9-3.9l0.3,0.6C736.2,293.5,731.6,295.1,727.8,295.1z"/>
<path class="st2" d="M727.8,294.4c-1.6,0-3.2-0.3-4.7-1c-5.1-2.5-5.9-8.5-6-8.7l0.7-0.1c0,0.1,0.8,5.9,5.6,8.2
	c4.2,2,10.3,0.8,17.9-3.9l0.3,0.6C736.2,292.8,731.6,294.4,727.8,294.4z"/>
<path class="st2" d="M523.1,268.6c0,0,8.8,12.3,14.8,11.1c6-1.2,6.6-2.5,11.9-11.1l4.4,10L549,291l-6.1,7.9l-12.9-2l-4.2-14.1
	L523.1,268.6z"/>
<path class="st10" d="M554.1,278.6l-5.1,12.4l-6.1,7.9l-12.9-2l-4.2-14.1l-2.7-14.2c0,0,0.8,1.1,2,2.5c3,3.5,8.6,9.4,12.8,8.5
	c5.9-1.2,6.6-2.5,11.7-10.8l0.2-0.3L554.1,278.6z"/>
<path class="st10" d="M554.1,278.6L549,291l-6.1,7.9l-12.9-2l-4.2-14.1l-2.7-14.2c0,0,0.8,1.1,2,2.5c1.9,6.2,6.1,16.2,12.8,16.1
	c7.6-0.1,10.7-12.7,11.7-18.3l0.2-0.3L554.1,278.6z"/>
<path class="st2" d="M518.4,268.2c0,0-3-0.4-1.4,3.3c1.6,3.7,4.4,15.9,3,18.4c-1.4,2.5-0.7,9.3-6.9,10.6l1.8,7
	c0,0,0.4,15.5-0.4,17.8c-0.7,2.3-0.8,14.8-0.6,16.1s0.1,9.9-0.8,10.3s-1.6,4.5,1.6,5.2c3.1,0.7,16.4,1.1,18.8,1.8
	c2.4,0.7,19.4,0,19.4,0s7.2-1,9-1.6s2.2-2,1.6-4.8c-0.6-2.7-3.3-22.7-2.7-25.2c0.6-2.5,0.7-27,0.7-27s-4.7-1.6-4.7-6.1
	c0-4.5-1.8-16.7,1.9-24.4c0,0-3-2-3.5-1.7s-5-0.9-5-0.9s-2.3,20.8-12.1,20.9c-9.7,0.1-14.1-20.9-14.1-20.9S523.9,265.4,518.4,268.2z
	"/>
<path class="st10" d="M532.5,334.9c0,0,2,4.9,5.4,5.6C541.2,341.2,532.5,334.9,532.5,334.9z"/>
<path class="st10" d="M529.4,338.7c0,0,6.5,5.3,6.2,6.3"/>
<path class="st10" d="M516.4,307.6c0,0,5.1,3.5,5.1,6"/>
<path class="st10" d="M519.8,318.5c0,0-1.4-5-2.4-6.1"/>
<path class="st10" d="M517.5,320.4c0,0,2.2,4.3,2.4,5.5"/>
<path class="st10" d="M559.1,311.7c0,0-6.7,2-6.1,4.5"/>
<path class="st10" d="M553,334.9c0,0,8.8-10.2,6.1-9.9S553,334.9,553,334.9z"/>
<g class="st15">
	<path d="M556.5,294.3c0-2.1-0.4-5.8-0.4-10c0,4.8,0.4,9.2,0.4,11.5c0,4.4,4.4,6,4.7,6.1c0-1,0-1.6,0-1.6S556.5,298.8,556.5,294.3z"
		/>
	<path d="M563.2,354.1c0.1,0.4,0.2,0.8,0.2,1.2c0.1-0.9,0-1.9-0.2-2.8c-0.5-2.3-2.6-17.3-2.8-23.1
		C560.1,333.4,562.6,351.5,563.2,354.1z"/>
	<path d="M513.8,338.6c0-4.3,0.2-10.1,0.7-11.6c0.4-1.2,0.5-6.2,0.5-10.5c0,3.9-0.1,7.9-0.5,9C513.9,327.1,513.7,334.4,513.8,338.6z
		"/>
	<path d="M518.4,269.8c5.5-2.9,5.4-1,5.4-1s4.3,21,14.1,20.9c9.8-0.1,12.1-20.9,12.1-20.9s4.5,1.3,5,0.9c0.5-0.4,2.1,0.8,2.9,1.3
		c0.2-0.4,0.3-0.8,0.5-1.2c0,0-3-2-3.5-1.7c-0.5,0.4-5-0.9-5-0.9s-2.3,20.8-12.1,20.9c-9.7,0.1-14.1-20.9-14.1-20.9s0.1-1.9-5.4,1
		c0,0-2.4-0.3-1.8,2.4C517.1,269.6,518.4,269.8,518.4,269.8z"/>
	<path d="M513,353.4c0.8-0.3,1-5.6,0.9-8.5c0,3-0.3,6.7-0.9,7c-0.6,0.2-0.9,1.6-0.7,2.8C512.5,354,512.7,353.5,513,353.4z"/>
	<path d="M520,291.5c0.4-1,0.5-2.1,0.4-3.2c0,0.6-0.1,1.1-0.4,1.6c-1.4,2.5-0.7,9.3-6.9,10.6l0.4,1.5
		C519.2,300.6,518.6,294,520,291.5z"/>
</g>
<path class="st2" d="M554.5,414.3c-2.9,5.3-32.7,0-32.7,0l0.1-0.5l0.6-4.1h31.4l0.6,4.1L554.5,414.3z"/>
<path class="st10" d="M554.5,414.3c-2.9,5.3-32.7,0-32.7,0l0.1-0.5c1.4,0,23-0.5,32.6,0L554.5,414.3z"/>
<path class="st2" d="M521.7,414.3L521.7,414.3c0,0-5.3,1.3-13.6,23.8c-8.3,22.4-11.2,51.4-11.2,51.4s-4.7,7.9,15.2,8.4
	c0,0-1.6,5.2,9.6,4.4c11.2-0.8,9.6-0.8,9.6-0.8s7.2-4.5,10.4-3.7c3.2,0.8,5.2,1.1,8.7,4c3.5,2.9,14.6,1.7,14.7-0.5
	c0.1-1.1,0.1-2.2,0-3.3c0,0,17,1.1,13.8-11.2c-3.2-12.3-5.9-32.5-5.9-32.5s-8.7-39.4-18.6-39.9C544.6,413.8,521.7,414.3,521.7,414.3
	z"/>
<rect x="481.1" y="463.6" transform="matrix(9.184916e-02 -0.9958 0.9958 9.184916e-02 6.0286 934.3961)" class="st10" width="68.4" height="0.5"/>
<rect x="495.6" y="465.4" transform="matrix(3.839736e-03 -1 1 3.839736e-03 63.8081 995.2943)" class="st10" width="71.7" height="0.5"/>
<path class="st16" d="M547.8,429.8"/>
<rect x="548.9" y="429.7" transform="matrix(0.9993 -3.716695e-02 3.716695e-02 0.9993 -16.931 20.7329)" class="st10" width="0.5" height="72.1"/>
<path class="st10" d="M564.9,497.9c-0.9-41-7.9-69.1-8-69.4l0.5-0.1c0.1,0.3,7.1,28.4,8,69.5L564.9,497.9z"/>
<path class="st10" d="M522.7,418.3c0,0-0.9,0.5,0,3.1"/>
<path class="st10" d="M525.4,418.3c0,0-2.5,1.6,0,4.3"/>
<path class="st10" d="M549.1,418.3c0,0,3.5,3.3,2.7,4.3"/>
<path class="st10" d="M551.9,417.5c0,0,0.5,4,2.5,5.1"/>
<path class="st2" d="M693.7,411.1c0,0,13.1-5.2,18.8,1.1c5.7,6.4-3.9,14.1-3.9,14.1l-4,8l-9.4-1l-2.2-11.1L693.7,411.1z"/>
<path class="st10" d="M708.6,426.3l-4,8l-9.4-1l-2.2-11l0.8-11.2l0.2-0.1c1.7-0.6,12.9-4.5,18.2,0.9c0.1,0.1,0.2,0.2,0.3,0.3
	C718.2,418.6,708.6,426.3,708.6,426.3z"/>
<path class="st10" d="M708.6,426.3l-4,8l-9.4-1l-2.2-11l0.8-11.2l0.2-0.1c1.6,8.9,6,12.6,6.7,13.2l0.1,0.1l2.7-0.2
	c5.2-2.9,7.9-9.7,8.8-12.2c0.1,0.1,0.2,0.2,0.3,0.3C718.2,418.5,708.6,426.3,708.6,426.3z"/>
<path class="st2" d="M731.5,456.8c0,0-2.9,36.8-2.1,41.2c0.8,4.4-1.7,4.8-1.7,4.8s-10.5,2.3-12.4,0.8c-2-1.6-5.3-1.9-5.3-1.9
	s-7.8,1.8-11.2,0.5s-9.2-0.8-9.2-0.8s-4.4,2.7-5.7,2.1c-1.2-0.6-2.8-0.3-6.3-1.3s-5.6-1.9-3.7-8c1.9-6.1,0.2-25.5,0.1-27.8
	c-0.1-2.3-1.2-8-2.8-14.8s2.7-5.3,2.7-5.3c9.9-5.1,5.8-15.1,4.2-19.6c-1.6-4.4,0.9-4.7,2.1-4.7s5.9-4,5.9-4l1.9-1.7l5.8-5.2
	c1.4,9.7,6.1,13.8,6.9,14.4l0.1,0.1l2.7-0.2c6.4-3.5,9.1-13.2,9.1-13.2c0.8,1.3,2.5,2.8,4.4,4.2c2.5,1.8,5.2,3.4,7.9,4.9
	c4.7,2.8,1.2,5.6,1.2,5.6c-5.7,19.3,2.3,20.2,2.3,20.2C734.3,448,731.5,456.8,731.5,456.8z"/>
<path class="st10" d="M687.8,422.1c0,0-1.7,0.9-1.7,1.9"/>
<path class="st10" d="M688.8,424c0,0-2.2,2.3-1.8,3"/>
<path class="st10" d="M688.8,427c0,0-1.7,1.8-1,2.8"/>
<path class="st10" d="M700,426.9l-7,6.7c-0.3-7.5-3.9-13.5-5.7-16l5.8-5.2C694.5,422.2,699.2,426.3,700,426.9z"/>
<path class="st2" d="M700.6,425.6l-7,6.8c-0.2-7.5-3.9-13.5-5.7-16l5.8-5.2C695.2,420.9,699.8,425,700.6,425.6z"/>
<path class="st10" d="M717.6,417.8c-2.8,4.4-8,15.9-8,15.9l-5.6-6.9c6.4-3.6,9.1-13.2,9.1-13.2C713.9,414.8,715.7,416.4,717.6,417.8
	z"/>
<path class="st2" d="M716.9,416.4c-2.8,4.4-8,15.9-8,15.9l-5.5-6.9c6.4-3.5,9.1-13.2,9.1-13.2C713.3,413.5,715,415,716.9,416.4z"/>
<path class="st10" d="M712.8,487.7c0,0-1.2,10.1-1.9,10.7"/>
<path class="st10" d="M722.6,489.4c0,0,1.3,7.2,0.8,8.9"/>
<path class="st10" d="M694.2,489.9c0,0-1.2,6.8,0,7.6"/>
<path class="st10" d="M687,488.9c0,0-1,8-0.8,9.5"/>
<path class="st10" d="M724.3,449.9c0,0-3.1,2.4-2.9,3.1"/>
<path class="st10" d="M726.5,451.4c0,0-5.9,5-3,4.4S726.5,451.4,726.5,451.4z"/>
<linearGradient id="SVGID_2_" gradientUnits="userSpaceOnUse" x1="408.632" y1="-39.9434" x2="408.632" y2="316.4371" gradientTransform="matrix(1 0 0 -1 -92.22 550.75)">
	<stop  offset="0" style="stop-color:#808080;stop-opacity:0.25"/>
	<stop  offset="0.54" style="stop-color:#808080;stop-opacity:0.12"/>
	<stop  offset="1" style="stop-color:#808080;stop-opacity:0.1"/>
</linearGradient>
<path class="st17" d="M397,308.2L397,308.2l0-0.1l0,0l-0.4-0.3l0.1,0.1c-0.6-0.4-1.4-0.2-1.8,0.4l-0.2,0.2l0,0l-9.4,13.6l-1.6,2.4
	c-5-1.5-13.1,4.8-17.2,8.4c-0.3,0.2-0.5,0.4-0.7,0.6c-0.3-0.7-0.5-1.2-0.5-1.2c-0.2,2.2-8,5.6-9.9,6.8c-0.8,0.5-1.8,0.8-2.7,0.9
	c0.3-8.4-6.3-17.3-6.3-17.3l-16-20.3c-0.6-3.7,0-7.4,1.6-10.8c0.1-0.3,0.3-0.5,0.4-0.8h0.1c-0.6,1.7-0.9,3.5-1,5.3
	c0,1.4,1.3,8,3.1,7.8c0.4,0,0.7-0.1,0.9-0.4c1.4-1.7,1.6-4.5,1.5-7.1c0,0.8-0.1,1.5-0.3,2.3c0.1-2.2-0.1-4.5-0.1-6.1
	c0-0.7,0-1.3,0-1.9h0.2c0,0.2,0,0.5,0,0.8c0-0.3,0-0.5,0-0.8h0.2c3.6-0.7,6.9-2.2,9.7-4.5c1.4-0.1,2.7-0.7,3.7-1.7
	c0.3,1.2,0.1,2.4-0.7,3.3c2.1-0.1,3.9-1.8,4.8-3.7c0.7-2,0.9-4.1,0.6-6.2c-0.3-2.1-0.5-4.2-0.5-6.3c0.1-1.1,0.2-2.3,0.2-3.4
	c0-0.4-0.1-0.7-0.2-1h0.1c0.4,0,0.8-0.1,1.1-0.4c0.9-0.7,1.2-2,1.4-3c0.6-2.4,0.9-4.8,0.8-7.2c0,0.7-0.1,1.5-0.2,2.2
	c0.2-2.8-0.2-5.5-2-7.5c-1.3-1.4-3.1-2.2-4.8-3c-0.6-0.2-1.1-0.6-1.6-1.1c-0.3-0.6-0.5-1.3-0.5-1.9c-0.6-4.1-4.4-6.9-8.3-8.5
	c-4.9-2.1-10.9-3.1-15.6-0.5c-2.3,1.2-4.1,3.2-6.2,4.7c-2.6,2-5.7,3.4-8.5,5.1c-2.8,1.7-5.4,3.9-6.8,6.9c-2.1,4.7-0.5,9.9-0.3,15
	c0.4,8-2.9,16.3-9.4,21c-0.8,0.5-1.5,1.1-2.1,1.8c-0.6,0.7-0.7,1.7-0.2,2.5c0.3,0.4,0.9,0.7,1.2,1.1c0.7,0.8,0.6,2.1,0.3,3.2
	c-0.9,3.5-2.8,6.7-5.4,9.2c0.1,0.8,1.1,1.1,2,1.3c2.2,0.3,4.4,0.5,6.6,0.5h1c-0.1,0.3-0.2,0.5-0.3,0.8c-1.2,3.2-2.8,8-2.2,11
	c0.8,4.7,3.3,26.2,2,30c-1.2,3.8,2,31.1,2,31.1s0.4,2.1,1.2,5.3c-1.9,4.5-4.1,9.5-5.2,11.5c-2.2,4-1.1,24.6,6.5,33.8
	c0,0,3.1,4.4,2.3,6c-0.8,1.6,0.1,4.4,0.1,4.4l1.2,26.6c0,2.7-0.2,5.4-0.6,8.1c-3.2,4-8.2,9.9-10.6,10.8
	c-3.6,1.5-30.8,34.4-30.8,34.4s0.2,0.4,0.6,1l-0.8,0.9l-5.2,6l-0.4,0.5c-1-0.2-7.5-1.4-12.7-1.7h-0.5v-0.1c-1.8-0.2-3.6-0.2-5.4,0.1
	c-0.3,0.1-0.7,0.2-0.9,0.5c-1.8,2.2-2.7,36-2.7,36s1.9,17,7.8,17.9c0.3,0.1,0.6,0.2,0.9,0.2h0.3c4.2-0.3,6.1-2.7,7-4.4
	c0.3-0.5,0.5-1,0.6-1.6c0,0-0.7-3,1.1-7.2c1.8-4.2,5.3-11.5,5.3-11.5s6.2-6.5,5.1-9.7c0.2-0.3,0.4-0.5,0.6-0.9
	c2.3-3.3,7.1-9.9,10.9-14.3c0.2-0.3,0.5-0.6,0.8-0.8c1.4,0.6,2.8,1,4.3,1.3c0,0,5.8-2.3,8-7.4c0.9-2.2,4.6-6,8.4-9.7l-0.1,1
	l-0.1,32.4c1.3,0.9,2.6,1.6,4,2.2v0.8c0,4.6-0.3,9.2-0.8,13.8l-0.1,0.7c-0.5-0.3-0.9-0.5-1.2-0.2c-1.2,1.2-1.9,8.9-2,12.5
	c0,0.1,0,0.2,0,0.4c-0.2,3.6-2.2,8.7,3.9,9c4.6,0.2,24.3,0.5,34.8,0.6c5.7,0.1,11.2-1.8,15.5-5.5c3.3-2.9,5.4-6.3,0.8-8.8
	c-0.3-0.2-0.6-0.3-0.9-0.5l-10.1-1.6l-17.2-8.8c0,0-0.1-5.3-2.2-4.4c-0.6,0.1-1.2,0.4-1.7,0.7c-0.1-0.2-0.2-0.4-0.3-0.6
	c-1.4-2.8-2.1-5.9-2.1-9c0-0.3,0-0.6,0-0.9c0.5-0.5,1-1,1.4-1.5c0,0-0.1-12.1,1.2-14.4s5.6-25.4,5.6-25.4s0.1-4.3,2.8-6.9
	s1.8-10,1.8-10s3.8-2,5-8.6c1.2-6.6,5.2-21,5.2-21s8.1-21.3,7.6-34.7c-0.5-13.4,0.8-20.4,0.8-20.4l1.7-31.2v-0.5
	c0.7,0.5,1.1,0.9,1.1,0.9s0-0.1,0-0.3c0.2,0.2,0.4,0.3,0.4,0.3s0.9-14.2,0.6-19.8c4.8-1.6,12-4.3,12.4-5.6c0.6-2,8.8-8.4,8.8-8.4
	c-0.2,0-0.3-0.1-0.5-0.2c0.3-0.1,0.5-0.3,0.8-0.4c5.3-2.9,15.3-11.2,13.6-16.3l10.9-15.6C398,310.5,397.9,309.1,397,308.2z"/>
<path class="st18" d="M371.7,345.9c-0.8,0.5-1.7,0.8-2.6,1c-3.4,0.1-6.2-9.1-6.2-9.1s1-1,2.5-2.3c4.6-4,14.1-11.5,18.6-7.3
	C389,332.8,377.6,342.7,371.7,345.9z"/>
<path class="st18" d="M320.1,564.9l-12.5,13.5c0,0-11.6,0.1-9.3-6.3c0.5-1.4,0.8-2.8,1-4.3c0.6-4.5,0.8-9.1,0.8-13.7
	c0-3,0-5.1,0-5.1s18.2-8,16.4,0.3c-0.2,1-0.4,2.1-0.4,3.2c0,3.1,0.7,6.1,2.1,8.9C318.7,562.7,319.4,563.9,320.1,564.9z"/>
<path class="st10" d="M320.1,564.9l-12.5,13.5c0,0-11.6,0.1-9.3-6.3c0.5-1.4,0.8-2.8,1-4.3c1.7,1.3,4,5.1,4,5.1s8,2.3,10.2-4.7
	c1.2-3.9,3.2-5.8,4.7-6.8C318.7,562.7,319.4,563.9,320.1,564.9z"/>
<path class="st19" d="M349.2,585.3c-4.2,3.6-9.7,5.6-15.3,5.4c-10.3-0.1-29.6-0.5-34.1-0.6c-6-0.3-4-5.4-3.8-8.9c0-0.1,0-0.2,0-0.3
	c0.1-3.5,0.8-11.2,2-12.4c1.2-1.2,5.3,5.3,5.3,5.3s8,2.3,10.2-4.7c2.2-7,6.7-7.7,6.7-7.7c2-0.9,2.1,4.4,2.1,4.4l16.9,8.7l9.9,1.6
	c0.3,0.1,0.6,0.3,0.9,0.4C354.5,579.1,352.5,582.5,349.2,585.3z"/>
<circle class="st20" cx="317.9" cy="571.1" r="0.7"/>
<circle class="st20" cx="324.8" cy="574.5" r="0.7"/>
<circle class="st20" cx="328.3" cy="576.1" r="0.7"/>
<circle class="st20" cx="335.7" cy="578.9" r="0.7"/>
<circle class="st20" cx="331.9" cy="577.7" r="0.7"/>
<path class="st19" d="M349.2,585.3c-4.2,3.6-9.7,5.6-15.3,5.4c-10.3-0.1-29.6-0.5-34.1-0.6c-6-0.3-4-5.4-3.8-8.9l37.6,2.3
	c0,0,15.4-2.3,16.3-6.9C354.5,579.1,352.5,582.5,349.2,585.3z"/>
<path class="st20" d="M349.2,585.3c-4.2,3.6-9.7,5.6-15.3,5.4c-10.3-0.1-29.6-0.5-34.1-0.6c-6-0.3-4-5.4-3.8-8.9l37.6,2.3
	c0,0,15.4-2.3,16.3-6.9C354.5,579.1,352.5,582.5,349.2,585.3z"/>
<path class="st18" d="M279.1,531c-1.4,1.1-2.6,2.4-3.8,3.8c-3.7,4.3-8.4,10.9-10.6,14.1c-0.9,1.3-1.4,2.1-1.4,2.1l-5-0.7
	c0,0-5.4-8.3-5.3-8.4c0.1-0.2,4.3-9.1,4.3-9.1l1.6-1.9l5.1-6l2.3-2.7C266.3,522.1,283.6,527.7,279.1,531z"/>
<path class="st10" d="M264.7,548.9c-0.9,1.3-1.4,2.1-1.4,2.1l-5-0.7c0,0-5.4-8.3-5.3-8.4c0.1-0.2,4.3-9.1,4.3-9.1l1.6-1.9l0.5,0.1
	h1.3c-4.5,4.7,0.3,14.9,0.3,14.9S263.1,546,264.7,548.9z"/>
<path class="st19" d="M259.1,559.3c0,0-3.3,7.2-5.1,11.3c-1.8,4.1-1.1,7.1-1.1,7.1c-0.1,0.5-0.3,1.1-0.6,1.6
	c-1.3,2.6-3.9,4.2-6.8,4.3h-0.3c-6.1-0.2-8-17.8-8-17.8s0.9-33.6,2.7-35.7c0.2-0.2,0.5-0.4,0.9-0.5c1.8-0.3,3.6-0.4,5.4-0.1
	c5.5,0.4,12.5,1.7,12.5,1.7h1.3c-4.5,4.7,0.3,14.9,0.3,14.9s2.1,0.2,3.8,3.2C265.6,552.4,259.1,559.3,259.1,559.3z"/>
<circle class="st20" cx="251.8" cy="549.4" r="0.7"/>
<circle class="st20" cx="251.4" cy="555.2" r="0.7"/>
<path class="st19" d="M251.8,579.2c-1.3,2.6-3.9,4.2-6.8,4.3h-0.3c-6.1-0.2-8-17.8-8-17.8s0.9-33.6,2.7-35.7
	c0.2-0.2,0.5-0.4,0.9-0.5c1.8-0.3,3.6-0.4,5.4-0.1c-0.1,6-0.4,25.1,0,27C245.9,558.3,249.4,574.1,251.8,579.2z"/>
<path class="st20" d="M251.8,579.2c-1.3,2.6-3.9,4.2-6.8,4.3h-0.3c-6.1-0.2-8-17.8-8-17.8s0.9-33.6,2.7-35.7
	c0.2-0.2,0.5-0.4,0.9-0.5c1.8-0.3,3.6-0.4,5.4-0.1c-0.1,6-0.4,25.1,0,27C245.9,558.3,249.4,574.1,251.8,579.2z"/>
<path class="st19" d="M244.7,583.5c-6.1-0.2-8-17.8-8-17.8s0.9-33.6,2.7-35.7c0.2-0.2,0.5-0.4,0.9-0.5c1.3,1.9,2.4,6.1,1.4,15.3
	c-1.9,17.5,0.4,18.6,0.4,18.6S244.8,578.3,244.7,583.5z"/>
<path class="st10" d="M244.7,583.5c-6.1-0.2-8-17.8-8-17.8s0.9-33.6,2.7-35.7c0.2-0.2,0.5-0.4,0.9-0.5c1.3,1.9,2.4,6.1,1.4,15.3
	c-1.9,17.5,0.4,18.6,0.4,18.6S244.8,578.3,244.7,583.5z"/>
<path class="st10" d="M371.7,345.9c-0.8,0.5-1.7,0.8-2.6,1c-3.4,0.1-6.2-9.1-6.2-9.1s1-1,2.5-2.3
	C366.5,337.9,369.6,344.6,371.7,345.9z"/>
<path class="st21" d="M349.9,342.6c0,0,2.8,0.2,4.6-1c1.8-1.2,9.5-4.5,9.7-6.7c0,0,4.6,11.2,7.2,11.6c0,0-8,6.3-8.6,8.3
	s-16.2,6.9-16.2,6.9L349.9,342.6z"/>
<path class="st10" d="M349.9,342.6c0,0,2.8,0.2,4.6-1c1.8-1.2,9.5-4.5,9.7-6.7c0,0,4.6,11.2,7.2,11.6c0,0-8,6.3-8.6,8.3
	s-16.2,6.9-16.2,6.9L349.9,342.6z"/>
<path class="st10" d="M279.1,531c-1.4,1.1-2.6,2.4-3.8,3.8c-6-2.5-9.9-7.7-11.4-9.9l2.3-2.7C266.3,522.1,283.6,527.7,279.1,531z"/>
<path class="st22" d="M307.6,474.4c0,0-9.8,13.1-13.3,14.5c-3.6,1.5-30.2,34.1-30.2,34.1s5.7,10.5,16.2,12.2c0,0,5.7-2.3,7.9-7.3
	c2.1-5.1,18.9-19.4,18.9-19.4L307.6,474.4z"/>
<path class="st10" d="M307.6,474.4c0,0-9.8,13.1-13.3,14.5c-3.6,1.5-30.2,34.1-30.2,34.1s5.7,10.5,16.2,12.2c0,0,5.7-2.3,7.9-7.3
	c2.1-5.1,18.9-19.4,18.9-19.4L307.6,474.4z"/>
<path class="st10" d="M278,518c3,0.3,5.9,0.3,8.9,0C292.2,517.5,288.2,520.7,278,518z"/>
<path class="st10" d="M275.6,521.4c0,0,7,4,9.7,2C288,521.4,282.7,525.4,275.6,521.4z"/>
<path class="st10" d="M316.4,549.5c-0.2,1-0.4,2.1-0.4,3.2c-5.4,4.9-11.9,3.4-16,1.6c0-3,0-5.1,0-5.1S318.3,541.1,316.4,549.5z"/>
<path class="st22" d="M348.8,375.8l-0.2,3.7l-1.7,30.9c0,0-1.3,6.9-0.8,20.2s-7.5,34.4-7.5,34.4s-3.9,14.2-5.1,20.8
	c-1.2,6.5-4.9,8.5-4.9,8.5s0.9,7.3-1.7,9.9s-2.8,6.8-2.8,6.8s-4.1,22.9-5.4,25.2c-1.3,2.3-1.2,14.2-1.2,14.2
	c-8.7,10.2-21.3,0.9-21.3,0.9l0.1-32.1c0,0,3.6-29.6,6.3-33.7s2.7-15.4,2.7-15.4l-1.2-26.4c0,0-0.9-2.8-0.1-4.4s-2.3-6-2.3-6
	c-7.5-9.1-8.5-29.4-6.4-33.4c2.2-4,8.6-20,8.6-20l8.9-5.2l16.1,0.5L348.8,375.8z"/>
<path class="st10" d="M310.9,532.7c0,0,2.1,7.3,3.8,8.1C316.4,541.6,310.9,532.7,310.9,532.7z"/>
<path class="st10" d="M313.8,508.4c0,0,5.4,4.3,7.8,4.3C323.9,512.7,313.8,508.4,313.8,508.4z"/>
<path class="st18" d="M346.6,328.2v8.8l-5.8-2.5l-5.8-2.5l-12.6-12.4c0,0-10-6.5-15.3-12.4c-3-3.4-4.6-6.5-1.9-8.2
	c1.3-0.9,2.5-1.9,3.5-3.1c2.7-3.2,5-6.6,6.9-10.2c0.1-0.1,0.2-0.3,0.2-0.4c2.6-4.8,4.3-8.8,4.3-8.8s7.3,2.3,12,5.7
	c0.4,0.3,0.7,0.5,1.1,0.8c2.6,2.1,3.9,4.7,1.5,7.1c-0.6,0.6-1.2,1.3-1.7,2l0,0c-0.4,0.5-0.7,1.1-1.1,1.7c-0.1,0.3-0.3,0.5-0.4,0.8
	c-1.6,3.3-2.2,7-1.6,10.7L346.6,328.2z"/>
<path class="st23" d="M345.6,265.5c0.3,0.5,0.7,1,1,1.5c0.5,1.2,0.6,2.5,0.4,3.7c-0.2,2,0,4,0.4,5.9c0.4,1.8,1.2,3.4,1.2,5.2
	c0.1,2.5-1.2,4.9-2.5,7.1c1.4,0,2.7-0.7,3.6-1.7c0.3,1.1,0.1,2.4-0.7,3.3c2.1-0.1,3.9-1.7,4.7-3.7c0.7-2,0.9-4.1,0.6-6.2
	c-0.3-2.1-0.5-4.2-0.5-6.3c0.1-1.1,0.2-2.3,0.2-3.4c-0.2-2.3-1.6-4.2-2.9-6.1l-2.7-3.7c-0.2-0.3-0.5-0.5-0.8-0.7
	C345.2,259.5,344.9,264.2,345.6,265.5z"/>
<path class="st10" d="M334.9,290c-0.6,0.6-1.2,1.3-1.7,2l0,0c-0.4,0.5-0.7,1.1-1.1,1.7c-0.1,0.3-0.3,0.5-0.4,0.8
	c-6.2-0.3-12-3.5-15.7-8.5c-0.1-0.1-0.2-0.2-0.2-0.4c0.1-0.1,0.2-0.3,0.2-0.4c2.6-4.8,4.3-8.8,4.3-8.8s7.3,2.3,12,5.7
	c0.4,0.3,0.7,0.5,1.1,0.8C336,285.1,337.3,287.5,334.9,290z"/>
<path class="st18" d="M353.8,272.8c0,10.1-7.2,18.8-17.2,20.6c-1.3,0.2-2.5,0.3-3.8,0.3h-0.1c-0.2,0-0.5,0-0.7,0
	c-11.6-0.4-20.6-10.2-20.2-21.7s10.2-20.6,21.7-20.2C344.9,252.3,353.8,261.5,353.8,272.8L353.8,272.8z"/>
<path class="st10" d="M335.6,324.6c0,0,10.6,6,7.9,0.9l-13.8-20.4l0,0l15.6,20.1c0,0,10,13.7,4.5,23.2c0,0-0.8,7.9,0.1,9.7
	c0.9,1.9-0.3,21.7-0.3,21.7s-3.7-3.5-5.7-2.8s-16.1,1.8-16.1,1.8L335.6,324.6z"/>
<path class="st10" d="M348.8,375.8l-0.2,3.7c-1.3-0.9-3-1.9-4.2-1.6c-2,0.7-16.1,1.9-16.1,1.9l0.6-4.6L348.8,375.8z"/>
<path class="st23" d="M336,324.6c0,0,10.6,6,7.9,0.9l-13.8-20.4l0,0l15.6,20.1c0,0,10,13.7,4.5,23.2c0,0-0.8,7.9,0.1,9.7
	c0.9,1.9-0.3,21.7-0.3,21.7s-3.7-3.5-5.7-2.8s-16.1,1.9-16.1,1.9L336,324.6z"/>
<path class="st10" d="M341.6,334.9c-0.6,6.4-3.2,14-3.2,14s-1.9,18.9-4.3,24.5c-2.4,5.6-1.3,13.3-2.7,27.6c-0.5,5.1-2.1,8.7-4.4,11
	c-3.7,3.9-8.9,4.7-13,4.5l-1-0.1c-6.7-0.7-13.1-32.8-13.1-32.8s-3.1-27.3-1.9-31.1s-1.2-25-2-29.7c-0.5-3,1-7.8,2.2-10.9
	c0.7-1.8,1.3-3.1,1.3-3.1s2.3-7.2,6-10.9c1-1.1,2.5-1.7,4-1.7c1.8,0.1,3.5,0.6,4.9,1.6c0.1,0,0.1,0.1,0.2,0.1
	c0,0,24.2,24.8,26.5,30.5C341.8,330.1,341.9,332.4,341.6,334.9z"/>
<path class="st21" d="M340.8,334.5c-0.6,6.4-3.3,14-3.3,14s-1.9,18.9-4.3,24.5s-1.3,13.3-2.7,27.6c-0.5,5.1-2.1,8.7-4.4,11
	c-3.7,3.9-8.9,4.7-13,4.5l-1-0.1c-6.7-0.7-13.1-32.8-13.1-32.8s-3.1-27.3-1.9-31s-1.2-25-2-29.7c-0.5-3,1-7.8,2.2-10.9
	c0.7-1.8,1.3-3.1,1.3-3.1s2.3-7.2,6-10.9c1-1.1,2.5-1.7,4-1.7c1.8,0.1,3.5,0.6,4.9,1.6l0.2,0.1c0,0,24.2,24.8,26.5,30.5
	C341,329.7,341.1,332,340.8,334.5z"/>
<path class="st10" d="M313.7,431.9c0,0-5.5,4.9-7.4,4.7S313.7,431.9,313.7,431.9z"/>
<path class="st10" d="M315.1,436.6c0,0-5.8,2.7-7.5,3.1C305.9,440.2,312.9,436,315.1,436.6z"/>
<path class="st10" d="M337.6,363.1c0,0,8.6,0.1,9.9,2.8C348.7,368.6,340.3,362,337.6,363.1z"/>
<path class="st10" d="M336.4,367.8c0,0,6.6,1.4,8.6,3S336.4,367.8,336.4,367.8z"/>
<path class="st10" d="M325.3,351.5c0,0-0.8,27.1-3.7,30.6C318.6,385.6,325.3,351.5,325.3,351.5z"/>
<path class="st10" d="M317.9,428c0,0-5.5,23.9,5.5,25.3c11.1,1.5,7.6-27.2,7.6-27.2L317.9,428z"/>
<path class="st18" d="M317.5,427.7c0,0-5.5,23.9,5.6,25.4c11,1.5,7.6-27.2,7.6-27.2L317.5,427.7z"/>
<path class="st10" d="M353.7,270.5c-0.3-0.5-0.6-0.9-0.8-1.5c-1.5-3.1-5.2-1.6-8-0.1l-1.5,1.9c-0.7,0.8-1.2,1.7-1.7,2.6
	c-0.3,0.8-0.5,1.5-0.7,2.3c-0.4,1.4-0.9,2.6-1.4,4c-1.7,4.4-2.7,9-2.9,13.7c-1.3,0.2-2.5,0.3-3.8,0.3h-0.1v-0.1
	c0.1-0.5,0.3-1.1,0.4-1.6l0,0c0.6-3,0.6-6.1,0.2-9.2c0-0.1,0-0.1,0-0.2c-0.1-0.7-0.2-1.4-0.3-2c-0.3,0.5-0.5,0.9-0.8,1.4
	c-1.7,3.1-3.4,6.2-6.6,7.6c-1.3,0.5-2.6,0.8-4,0.9c-1.7,0.1-3.4,0.4-5,0.8c-0.6,0.2-1.1,0.5-1.5,0.9c-0.4,0.6-0.7,1.4-0.7,2.2
	c-0.2,1-0.4,2-0.8,3c-1.4,3.7-3.7,7-6.5,9.7l-0.7,0.7c-1.2,1.3-2.7,2.3-4.3,3c-1.5,0.5-3,0.7-4.6,0.7c0.7-1.8,1.3-3.1,1.3-3.1
	s2.3-7.2,6-10.9c1-1.1,2.5-1.7,4-1.7c2.8-3.3,5.2-6.9,7.2-10.7c-6.9-9.3-4.9-22.4,4.4-29.3s22.4-4.9,29.3,4.4
	C351.9,263.4,353.3,266.9,353.7,270.5L353.7,270.5z"/>
<path class="st23" d="M355,254.1c-1.2-1.4-3-2.2-4.7-3c-0.6-0.2-1.1-0.6-1.5-1.1c-0.3-0.6-0.4-1.2-0.5-1.9c-0.6-4.1-4.4-6.9-8.1-8.5
	c-4.8-2.1-10.6-3-15.3-0.5c-2.3,1.2-4,3.1-6.1,4.7c-2.6,2-5.5,3.4-8.3,5.1c-2.7,1.7-5.4,3.9-6.7,6.9c-2,4.6-0.5,9.8-0.2,14.8
	c0.4,7.9-2.8,16.1-9.2,20.8c-0.8,0.5-1.4,1.1-2,1.8c-0.6,0.7-0.6,1.7-0.2,2.5c0.3,0.4,0.8,0.7,1.2,1.1c0.7,0.8,0.6,2.1,0.3,3.2
	c-0.9,3.5-2.8,6.6-5.3,9.1c0.1,0.8,1.1,1.1,1.9,1.3c2.2,0.3,4.3,0.5,6.5,0.5c3.4,0.3,6.8-1.1,9.1-3.7c3.9-3.6,7.2-8.2,8-13.5
	c0-0.8,0.3-1.5,0.7-2.2c0.4-0.4,0.9-0.7,1.5-0.9c2.9-1,6.2-0.5,9-1.7c3.6-1.6,5.4-5.4,7.3-9c0.1,0.7,0.2,1.4,0.3,2
	c0.6,3.7,0.4,7.4-0.5,11c-0.5,2-1.3,4-1.2,6.1c0,1.6,1.6,9.7,3.7,7.2c2.1-2.4,1.3-7.8,1.3-10.8c0-5.6,1-11.2,3.1-16.5
	c0.5-1.3,1.1-2.6,1.4-4c0.2-0.8,0.4-1.6,0.7-2.3c0.5-0.9,1-1.8,1.7-2.6l1.5-1.9c2.8-1.5,6.5-3,8,0.1c0.6,1.2,0.9,2.5,2.3,1.3
	c0.9-0.7,1.1-2,1.4-3C357.2,262.3,357.9,257.3,355,254.1z"/>
<path class="st10" d="M326.9,327.4c-0.6-14.3-20.6-17.3-25.3-3.7c0,0.1-0.1,0.2-0.1,0.3c-3.1,9.2-1.7,32.5-1.7,32.5
	s0.4,15.6,1.9,20.8c1.5,5.2,5.6,20.1,5.6,22.5c0,2.4,3.8,11.6,5.4,12.3c1.6,0.7,2.4,5.9,2.8,6.8c0.4,0.9,1.6,13.1,1.6,13.1
	s15-0.9,15.3-3.3s-3.3-14.1-3.3-14.1s-2.6-4.8-3-8.7c-0.3-3.9-2.4-5.6-2-8.3c0.4-2.7-1.2-4-1.2-5.7s-1.2-6.4-1.2-6.4s-2.5-2-2.1-4.4
	c0.4-2.4-3.6-7.2-2.5-8.9c1.1-1.7,1.3-6,1.3-6s1.3-19.2,2.3-24.4c0.9-5.2,6.4-13.6,6.4-13.6S326.9,327.9,326.9,327.4z"/>
<path class="st10" d="M326.3,411.6c-3.7,3.9-8.9,4.7-13,4.5c-0.5-1.8-1.2-4.1-2.2-4.5c-1.6-0.7-5.4-9.9-5.4-12.2s-4.1-17.3-5.6-22.5
	c-1.5-5.2-1.9-20.8-1.9-20.8s-1.3-23.3,1.7-32.5c0-0.1,0.1-0.2,0.1-0.3c4.7-13.6,24.8-10.6,25.3,3.7c0,0.4,0,0.7,0,0.7
	s-5.4,8.4-6.4,13.6c-1,5.2-2.3,24.4-2.3,24.4s-0.3,4.3-1.3,6s2.9,6.5,2.5,8.9s2.1,4.4,2.1,4.4s1.2,4.7,1.2,6.4
	c0,1.7,1.6,3.1,1.2,5.7s1.7,4.4,2.1,8.3C324.8,407.5,325.4,409.6,326.3,411.6z"/>
<path class="st21" d="M326.1,327c-0.6-14.3-20.6-17.3-25.3-3.7l-0.1,0.3c-3.1,9.2-1.7,32.5-1.7,32.5s0.4,15.6,1.9,20.8
	c1.5,5.2,5.6,20.1,5.6,22.5c0,2.4,3.8,11.6,5.4,12.3c1.6,0.7,2.4,5.9,2.8,6.8s1.6,13,1.6,13s15-0.9,15.3-3.3s-3.3-14.1-3.3-14.1
	s-2.7-4.8-3-8.7c-0.3-3.9-2.5-5.6-2.1-8.3s-1.2-4-1.2-5.7s-1.2-6.4-1.2-6.4s-2.5-2-2.1-4.4s-3.6-7.2-2.5-8.9c1.1-1.7,1.3-6,1.3-6
	s1.3-19.2,2.3-24.4c0.9-5.2,6.4-13.6,6.4-13.6S326.1,327.5,326.1,327z"/>
<path class="st10" d="M301.4,363.9c0.4-0.4,8-8.8,10.4-5.8S301.4,363.9,301.4,363.9z"/>
<path class="st10" d="M302.1,370.4c0.3-0.3,7.6-0.6,9.4-4.7S302.1,370.4,302.1,370.4z"/>
<g class="st15">
	<path d="M293.8,296.8c0.2,0.2,0.3,0.5,0.4,0.7c0.3-0.9,0.2-1.9-0.4-2.7c-0.4-0.4-0.9-0.7-1.2-1.1c0,0,0-0.1-0.1-0.1
		c-0.4,0.7-0.3,1.5,0.1,2.1C293,296.1,293.4,296.4,293.8,296.8z"/>
	<path d="M304,270.9c0-0.8,0-1.6,0-2.3c-0.1-2.7-0.6-5.5-0.8-8.2c-0.2,3.3,0.6,6.8,0.8,10.2C304,270.7,304,270.8,304,270.9z"/>
	<path d="M335.1,304.3c-1.8,2.2-3.3-4.1-3.6-6.5c-0.1,0.4-0.1,0.9-0.1,1.3c0,1.6,1.6,9.7,3.7,7.2c1.4-1.6,1.6-4.4,1.5-7
		C336.4,301.2,336.1,303,335.1,304.3z"/>
	<path d="M333.2,281.9c0.2,1,0.3,2.1,0.3,3.2c0.1-1.7,0-3.5-0.3-5.2c-0.1-0.7-0.2-1.4-0.3-2c-1.9,3.6-3.7,7.4-7.3,9
		c-2.8,1.2-6.1,0.7-9,1.7c-0.6,0.2-1.1,0.5-1.5,0.9c-0.4,0.7-0.7,1.4-0.7,2.2c-0.9,5.2-4.2,9.8-8.1,13.5c-2.3,2.6-5.7,4-9.1,3.7
		c-2.2,0-4.4-0.2-6.5-0.5c-0.3-0.1-0.7-0.1-1-0.3c-0.3,0.3-0.6,0.7-0.9,1c0.1,0.8,1.1,1.1,1.9,1.3c2.2,0.3,4.3,0.5,6.5,0.5
		c3.4,0.3,6.8-1.1,9.1-3.7c3.9-3.6,7.2-8.2,8.1-13.5c0-0.8,0.3-1.5,0.7-2.2c0.4-0.4,0.9-0.7,1.5-0.9c2.9-1,6.2-0.5,9-1.7
		c3.6-1.6,5.4-5.4,7.3-9C332.9,280.6,333.1,281.2,333.2,281.9z"/>
	<path d="M356.5,264.6c-0.2,1-0.5,2.3-1.4,3c-1.5,1.1-1.8-0.2-2.3-1.3c-1.5-3.1-5.2-1.6-8-0.1l-1.5,1.9c-0.7,0.8-1.2,1.7-1.7,2.6
		c-0.3,0.8-0.5,1.5-0.7,2.3c-0.4,1.4-0.9,2.6-1.5,4c-2,5.3-3,10.9-3,16.5c0,0.3,0,0.5,0,0.8c0.1-5.2,1.2-10.4,3-15.3
		c0.5-1.3,1.1-2.6,1.5-4c0.2-0.8,0.4-1.6,0.7-2.3c0.4-0.9,1-1.8,1.7-2.6l1.5-1.9c2.8-1.5,6.5-3,8,0.1c0.6,1.2,0.9,2.5,2.3,1.3
		c0.9-0.7,1.1-2,1.4-3c0.6-2.3,0.8-4.7,0.8-7.2C357.1,261.1,356.9,262.9,356.5,264.6z"/>
</g>
<path class="st23" d="M374.6,340.2l0.4,0.3c-0.8-0.5-1-1.5-0.5-2.3c0,0,0,0,0,0l18.5-26.8c0.5-0.7,1.5-0.9,2.3-0.4c0,0,0,0,0,0
	l-0.4-0.3c1.2,0.8,1.5,2.5,0.7,3.7l-17.4,25.2C377.5,340.7,375.8,341,374.6,340.2z"/>
<path class="st24" d="M395.2,310.7l0.3,0.2l0,0l-20.4,29.6l0,0l-0.3-0.2c-0.6-0.4-0.8-1.3-0.3-1.9l18.8-27.4
	C393.7,310.4,394.6,310.3,395.2,310.7L395.2,310.7z"/>
<path class="st23" d="M392.9,314.7L392.9,314.7c0.1,0.1,0.1,0.2,0.1,0.2l-1.5,2.2c0,0.1-0.1,0.1-0.2,0l-0.1,0c-0.1,0-0.1-0.1,0-0.2
	l1.5-2.2C392.7,314.7,392.8,314.6,392.9,314.7z"/>
<path class="st9" d="M785.7,219.1c0,7.4-6,13.4-13.4,13.4c-7.4,0-13.4-6-13.4-13.4s6-13.4,13.4-13.4c0,0,0,0,0,0
	C779.7,205.7,785.7,211.7,785.7,219.1z M770.8,226.2l10-9.9c0.3-0.3,0.3-0.9,0-1.2l-1.2-1.2c-0.3-0.3-0.9-0.3-1.2,0c0,0,0,0,0,0
	l-8.1,8.1l-3.8-3.8c-0.3-0.3-0.9-0.3-1.2,0l-1.2,1.2c-0.3,0.3-0.3,0.9,0,1.2c0,0,0,0,0,0l5.6,5.6
	C769.9,226.5,770.4,226.5,770.8,226.2C770.8,226.2,770.8,226.2,770.8,226.2L770.8,226.2z"/>
<path class="st9" d="M623.3,366.2c0,7.4-6,13.4-13.4,13.4c-7.4,0-13.4-6-13.4-13.4c0-7.4,6-13.4,13.4-13.4S623.3,358.8,623.3,366.2
	C623.3,366.2,623.3,366.2,623.3,366.2z M608.3,373.3l10-9.9c0.3-0.3,0.3-0.9,0-1.2c0,0,0,0,0,0l-1.3-1.2c-0.3-0.3-0.9-0.3-1.2,0
	c0,0,0,0,0,0l-8.1,8.1l-3.8-3.8c-0.3-0.3-0.9-0.3-1.2,0c0,0,0,0,0,0l-1.2,1.2c-0.3,0.3-0.3,0.9,0,1.2l5.6,5.6
	C607.4,373.7,608,373.7,608.3,373.3C608.3,373.3,608.3,373.3,608.3,373.3z"/>
<path class="st9" d="M623.3,512.7c0,7.4-6,13.4-13.4,13.4c-7.4,0-13.4-6-13.4-13.4c0-7.4,6-13.4,13.4-13.4S623.3,505.3,623.3,512.7
	C623.3,512.7,623.3,512.7,623.3,512.7z M608.3,519.8l10-9.9c0.3-0.3,0.3-0.9,0-1.2c0,0,0,0,0,0l-1.2-1.2c-0.3-0.3-0.9-0.3-1.2,0
	c0,0,0,0,0,0l-8.1,8.1l-3.8-3.8c-0.3-0.3-0.9-0.3-1.2,0c0,0,0,0,0,0l-1.2,1.2c-0.3,0.3-0.3,0.9,0,1.2l5.6,5.6
	C607.5,520.2,608,520.2,608.3,519.8C608.4,519.8,608.4,519.8,608.3,519.8L608.3,519.8z"/>
</svg>
