<?xml version="1.0" encoding="utf-8"?>
<!-- Generator: Adobe Illustrator 24.1.0, SVG Export Plug-In . SVG Version: 6.00 Build 0)  -->
<svg version="1.1" id="Layer_1" xmlns="http://www.w3.org/2000/svg" xmlns:xlink="http://www.w3.org/1999/xlink" x="0px" y="0px"
	 viewBox="0 0 1366 650" style="enable-background:new 0 0 1366 650;" xml:space="preserve">
<style type="text/css">
	.st0{fill:#0889F7;}
	.st1{fill:none;stroke:#FFFFFF;stroke-width:3;stroke-miterlimit:10;}
	.st2{fill:none;stroke:#FFFFFF;stroke-width:3;stroke-miterlimit:10;stroke-dasharray:11.8778,11.8778;}
	.st3{fill:none;stroke:#FFFFFF;stroke-width:3;stroke-miterlimit:10;stroke-dasharray:11.8823,11.8823;}
	.st4{fill:#FFFFFF;}
</style>
<path class="st0" d="M0,29.79C0,138.41,0,509.46,0,650.5c82.4-26.17,393.94-125.12,433.54-137.7c13.71,6.02,35.7,15.68,49.62,21.79
	c34.28-10.46,153.04-46.68,192.36-58.67c23.61,4.23,69.16,12.4,96.89,17.37c56.36-15.84,242.39-68.11,293.57-82.5
	c14.5,6.75,35.45,16.49,50.93,23.69c68.87-33.1,235.79-113.31,235.79-113.31s4.65-2.23,13.29-6.39c0-125.22,0-250.64,0-315.29
	c-280.74,0-1157.19,0-1366,0C0-0.5,0,10.51,0,29.79z"/>
<g>
	<g>
		<path class="st1" d="M1335,315.8c-1.69,0.81-3.49,1.68-5.41,2.6"/>
		<path class="st2" d="M1318.89,323.54c-47.49,22.82-136.14,65.42-187.36,90.03"/>
		<path class="st1" d="M1126.18,416.14c-1.86,0.9-3.67,1.76-5.41,2.6c-1.75-0.82-3.56-1.67-5.43-2.55"/>
		<path class="st3" d="M1104.58,411.15c-11.75-5.51-24.2-11.35-33.78-15.85c-50.05,13.99-231.95,64.83-287.07,80.24
			c-27.17-4.97-71.8-13.13-94.93-17.36c-38.44,11.67-154.55,46.94-188.07,57.11c-13.66-6.05-35.23-15.61-48.68-21.57
			C411.87,506.43,85.47,609.69,20.07,630.37"/>
		<path class="st1" d="M14.41,632.17c-3.72,1.18-5.72,1.81-5.72,1.81"/>
		<g>
			<polygon class="st4" points="1322.59,309.44 1331.65,317.41 1332.21,329.46 1351.14,308.04 			"/>
		</g>
	</g>
</g>
</svg>
