<?xml version="1.0" encoding="utf-8"?>
<!-- Generator: Adobe Illustrator 24.1.2, SVG Export Plug-In . SVG Version: 6.00 Build 0)  -->
<svg version="1.1" id="ab9c9524-e61a-4262-9078-30d20f864b6e"
	 xmlns="http://www.w3.org/2000/svg" xmlns:xlink="http://www.w3.org/1999/xlink" x="0px" y="0px" viewBox="0 0 1114.2 608.5"
	 style="enable-background:new 0 0 1114.2 608.5;" xml:space="preserve">
<style type="text/css">
	.st0{opacity:0.1;fill:#EC663A;enable-background:new    ;}
	.st1{fill:#3F3D56;}
	.st2{fill:#44322D;}
	.st3{opacity:0.1;fill:#44322D;enable-background:new    ;}
	.st4{fill:#EC663A;}
	.st5{fill:#9F616A;}
	.st6{fill:#2F2E41;}
</style>
<path class="st0" d="M286.1,151.8c-26.1,12-14.2,49.2-39.3,83.4c-34.2,46.6-88,22-123.4,60.1c-40.6,43.8-29.8,140.2,19.2,199.3
	c5.2,6.2,55.4,64.9,130.4,64.2C374.1,558,402.6,450.4,488.3,458c62.6,5.6,70.6,65.1,137.7,65.1c49.9,0,107.6-32.8,120.7-77.4
	c14.4-49.2-35.3-78.4-18.2-122.8c17.4-45.1,77.4-36.9,90-78.9c10.6-35.6-18.7-88.4-59.3-105.5c-57.9-24.5-94.5,42.3-171.5,28.9
	c-76.3-13.2-97.4-88.7-145.9-76.1c-39,10-41.6,62.5-86.8,69.5C323,165.8,308.5,141.5,286.1,151.8z"/>
<path class="st1" d="M844.9,349.2l-10.6-9l1-1.2l1,0.9c-0.1-0.5-0.2-1.1-0.1-1.6c0.1-0.5,0.4-1.1,0.8-1.5c0.5-0.7,1.2-1.1,2-1.3
	s1.6-0.2,2.4,0.1c0.9,0.3,1.6,0.8,2.3,1.3c0.8,0.7,1.3,1.3,1.7,2.2c0.4,0.8,0.5,1.6,0.4,2.4c-0.1,0.8-0.4,1.5-0.9,2.1
	c-0.3,0.4-0.8,0.8-1.3,1c-0.4,0.2-0.9,0.3-1.4,0.2l3.7,3.2L844.9,349.2z M839.1,342.4c0.8,0.8,1.6,1.2,2.7,1.2c0.8,0,1.4-0.3,2-0.9
	c0.4-0.5,0.7-1.3,0.5-2.1c-0.2-1-0.9-2-1.7-2.5c-0.8-0.8-1.6-1.2-2.7-1.2c-0.8,0-1.4,0.2-2,0.9c-0.4,0.5-0.7,1.4-0.4,2.1
	C837.7,340.8,838.3,341.8,839.1,342.4z"/>
<path class="st1" d="M848.2,339.4l-1.6-6.1l-5.9-0.5l1.4-1.6l2.8,0.3c0.5,0.1,1,0.1,1.3,0.2c-0.1-0.4-0.2-0.9-0.3-1.3l-0.8-2.8
	l1.3-1.5l1.4,5.7l6.4,0.5l-1.3,1.6l-3.7-0.4l-1-0.1l1.3,4.6L848.2,339.4z"/>
<rect x="812" y="362.3" transform="matrix(0.6435 -0.7654 0.7654 0.6435 9.8832 756.8062)" class="st1" width="10.9" height="10.9"/>
<rect x="823.3" y="349" transform="matrix(0.6435 -0.7654 0.7654 0.6435 24.1232 760.6891)" class="st1" width="10.9" height="10.9"/>
<path class="st2" d="M844.9,349.2l-10.6-9l1-1.2l1,0.9c-0.1-0.5-0.2-1.1-0.1-1.6c0.1-0.5,0.4-1.1,0.8-1.5c0.5-0.7,1.2-1.1,2-1.3
	s1.6-0.2,2.4,0.1c0.9,0.3,1.6,0.8,2.3,1.3c0.8,0.7,1.3,1.3,1.7,2.2c0.4,0.8,0.5,1.6,0.4,2.4c-0.1,0.8-0.4,1.5-0.9,2.1
	c-0.3,0.4-0.8,0.8-1.3,1c-0.4,0.2-0.9,0.3-1.4,0.2l3.7,3.2L844.9,349.2z M839.1,342.4c0.8,0.8,1.6,1.2,2.7,1.2c0.8,0,1.4-0.3,2-0.9
	c0.4-0.5,0.7-1.3,0.5-2.1c-0.2-1-0.9-2-1.7-2.5c-0.8-0.8-1.6-1.2-2.7-1.2c-0.8,0-1.4,0.2-2,0.9c-0.4,0.5-0.7,1.4-0.4,2.1
	C837.7,340.8,838.3,341.8,839.1,342.4z"/>
<path class="st2" d="M848.2,339.4l-1.6-6.1l-5.9-0.5l1.4-1.6l2.8,0.3c0.5,0.1,1,0.1,1.3,0.2c-0.1-0.4-0.2-0.9-0.3-1.3l-0.8-2.8
	l1.3-1.5l1.4,5.7l6.4,0.5l-1.3,1.6l-3.7-0.4l-1-0.1l1.3,4.6L848.2,339.4z"/>
<rect x="812" y="362.3" transform="matrix(0.6435 -0.7654 0.7654 0.6435 9.8832 756.8062)" class="st2" width="10.9" height="10.9"/>
<rect x="823.3" y="349" transform="matrix(0.6435 -0.7654 0.7654 0.6435 24.1232 760.6891)" class="st2" width="10.9" height="10.9"/>
<circle class="st3" cx="590.7" cy="91.1" r="12.5"/>
<path class="st3" d="M283.9,128.7c-0.1-9.9-6.3-18.7-15.6-22.2c12.3-5,18.2-19,13.3-31.2c-5-12.3-19-18.2-31.2-13.3
	c-12.3,5-18.2,19-13.3,31.2c2.5,6.2,7.5,11.1,13.9,13.5c-12.3,4.9-18.2,19-13.3,31.2c2.5,6.2,7.5,11.1,13.9,13.5
	c-12.3,5-18.2,19-13.3,31.2c5,12.3,19,18.2,31.2,13.3c12.3-5,18.2-19,13.3-31.2c-2.5-6.2-7.5-11.1-13.9-13.5
	C278.1,147.6,284.1,138.6,283.9,128.7z M237.5,84.6c-0.2-12,9.5-22,21.5-22.2s22,9.5,22.2,21.5c0.1,10.2-6.8,19.1-16.6,21.5
	c-3.3-0.7-6.7-0.5-9.8,0.1C244.8,103.5,237.6,94.7,237.5,84.6L237.5,84.6z M282.4,173.5c0.2,12-9.5,22-21.5,22.2
	c-12,0.2-22-9.5-22.2-21.5c-0.1-10.2,6.8-19.1,16.6-21.5c3.3,0.7,6.7,0.5,9.8-0.1C275.1,154.7,282.3,163.3,282.4,173.5z
	 M265.1,150.2c-3.3-0.7-6.7-0.5-9.8,0.1c-11.8-2.5-19.2-14.2-16.7-26c1.7-8.2,8.1-14.6,16.2-16.6c3.3,0.7,6.7,0.5,9.8-0.1
	c11.8,2.5,19.2,14.2,16.7,26C279.5,141.8,273.2,148.3,265.1,150.2L265.1,150.2z"/>
<polygon class="st4" points="179.1,218.3 161,218.3 161,428.8 161,446.8 179.1,446.8 275.6,446.8 275.6,428.8 179.1,428.8 "/>
<path class="st4" d="M338.4,218.3h-18v228.5h114.7V218.3H338.4z M417,428.8h-78.5V236.4H417V428.8z"/>
<path class="st4" d="M751.8,218.7h-96.6v228.5H770V218.7H751.8z M751.8,429.2h-78.5V236.7h78.5V429.2z"/>
<polygon class="st4" points="575.2,332.5 560.3,332.5 560.3,350.7 575.2,350.7 575.2,429.2 496.7,429.2 496.7,236.7 593.2,236.7 
	593.2,218.7 496.7,218.7 478.7,218.7 478.7,236.7 478.7,429.2 478.7,447.2 496.7,447.2 575.2,447.2 593.2,447.2 593.2,429.2 
	593.2,350.7 608.2,350.7 608.2,332.5 593.2,332.5 "/>
<rect x="227.9" y="198" class="st2" width="5.8" height="2"/>
<path class="st2" d="M685.4,199.9h-11.9v-2h11.9V199.9z M661.6,199.9h-11.9v-2h11.9V199.9z M637.8,199.9h-11.9v-2h11.9V199.9z
	 M614.1,199.9h-11.9v-2h11.9V199.9z M590.3,199.9h-11.9v-2h11.9V199.9z M566.5,199.9h-11.9v-2h11.9V199.9z M542.8,199.9h-11.9v-2
	h11.9V199.9z M519,199.9h-11.9v-2H519V199.9z M495.2,199.9h-11.9v-2h11.9V199.9z M471.5,199.9h-11.9v-2h11.9V199.9z M447.6,199.9
	h-11.9v-2h11.9V199.9z M423.8,199.9h-11.9v-2h11.9V199.9z M400.1,199.9h-11.9v-2h11.9V199.9z M376.3,199.9h-11.9v-2h11.9V199.9z
	 M352.5,199.9h-11.9v-2h11.9V199.9z M328.8,199.9h-11.9v-2h11.9V199.9z M305,199.9h-11.9v-2H305V199.9z M281.2,199.9h-11.9v-2h11.9
	V199.9z M257.5,199.9h-11.9v-2h11.9V199.9z"/>
<rect x="697.2" y="198" class="st2" width="5.8" height="2"/>
<rect x="788.5" y="248.3" class="st1" width="2" height="5.8"/>
<path class="st2" d="M790.4,399.3h-2v-12.1h2V399.3z M790.4,375.1h-2V363h2V375.1z M790.4,350.9h-2v-12.1h2V350.9z M790.4,326.7h-2
	v-12.1h2V326.7z M790.4,302.5h-2v-12.1h2V302.5z M790.4,278.3h-2v-12.1h2V278.3z"/>
<rect x="788.5" y="411.4" class="st2" width="2" height="5.8"/>
<rect x="160.4" y="131.4" class="st3" width="2" height="402.6"/>
<rect x="769.1" y="131.2" class="st3" width="2" height="402.6"/>
<rect x="63.8" y="445.8" class="st3" width="803.4" height="2"/>
<rect x="63.6" y="217.3" class="st3" width="803.4" height="2"/>
<path class="st5" d="M928.2,121.8c0.1,1.3-0.2,2.7-0.8,3.9c-0.8,1.2-1.9,2.2-3.1,2.8l-8.8,5.9c-2.6,1.7-5.6,4.9-3.8,7.5
	c0.7,0.9,1.5,1.5,2.5,1.9c9.1,4.4,19.3,5.1,29.4,5c6.4-0.1,13.1-0.7,18.5-4c2.6-1.6,4.8-3.8,7.6-5c2-0.8,4.5-1.3,5-3.4
	c0.7-2.7-2.9-4.3-5.6-5.4c-5.7-2.4-9.5-7.8-11.4-13.7c-1.9-5.9-1.9-12-1.5-18.1c0.1-0.9,0-1.7-0.5-2.5c-0.5-0.4-1.3-0.8-2.1-0.8
	c-6.1-0.7-12.2-0.8-18.2-0.3c-2.3,0-4.5,0.5-6.4,1.6c-3.7,2.5-1.6,6.9-1.2,10.4C928.1,112.5,928.2,117.1,928.2,121.8z"/>
<path class="st2" d="M966.4,1.1C963,5,958.3,7.4,953.3,8c-8.7,1.2-1.9,15-1.9,15s-2.5-5,2.5-9.4C958.9,9.2,966.4,6.7,966.4,1.1z"/>
<circle class="st2" cx="949.5" cy="25.9" r="10.8"/>
<path class="st4" d="M962.1,36.5c-8.3-4.4-22.7-7.8-30.3-7.5l2-7.3c6.8,4.6,21,8.1,30.3,7.5L962.1,36.5z"/>
<circle class="st2" cx="938.1" cy="67.1" r="38.7"/>
<rect x="908.6" y="551.5" class="st5" width="17.8" height="30.5"/>
<rect x="959.9" y="551.5" class="st5" width="17.8" height="30.5"/>
<polygon class="st5" points="904.1,236.2 895.5,264.9 982.7,266.7 975.9,236.2 952.9,221 "/>
<circle class="st5" cx="934.6" cy="83.9" r="28"/>
<path class="st5" d="M883.5,199.2c-2,4.9-2.9,10.3-2.8,15.6c0.2,6.2,2.2,14.1,1,19.6c-4.7,20.9-11.6,51.7-24,68.6
	c-2.9,3.9-8.6,6.1-13,9.2c-4.4,3.1-8.5,6.2-10.8,11.6c-1.9,4.2-1.7,9.2-1.6,13.8c0.1,2.6,0.3,5.6,2.5,7.2c1-0.4,1.5-1.3,1.5-2.4
	c0.1-1.1-0.1-2.2,0.1-3.3c0.4-2,1.7-3.6,3.5-4.5c10.2-6.3,21.1-11.8,26.5-22.7c5.5-10.9,9.5-20.8,16.8-30.4c2.1-2.4,3.9-5,5.8-7.6
	c2.8-4.9,5-10.2,6.3-15.6c2.9-11.5,4.4-23.6,5.2-35.3c0.4-6,0.4-12.5-4.2-16.3C892.1,202.9,887,203.3,883.5,199.2z"/>
<path class="st5" d="M1009.6,185.7c1.4,5.2,2,10.8,1.4,16.3c-0.7,6.6-2.7,13.2-1.7,19.8c3.6,25.4-0.3,51.7,1.7,77.2
	c0.4,6,2.4,12.7,2.7,18.7c0.3,6-0.3,12.3-3.4,17.5c-2.4,4-6,7.1-9.6,10.2c-2,1.6-4.6,3.5-6.9,2.4c-0.4-1-0.2-2.1,0.7-2.8
	c0.7-0.8,1.6-1.3,2.3-2.1c1.2-1.5,1.2-3.7,1.1-5.7c-0.9-11.8-2.5-23.8,0.7-35.2c3.2-11.4,1.2-23.7-2.1-35.1c-0.9-3.1-2-6-2.7-9.1
	c-1.3-5.2-1.4-10.8-1.6-16.3l-0.9-33.6c-0.1-5.8,0.2-12.5,5-15.6C1000.6,189.3,1006.1,189.8,1009.6,185.7z"/>
<path class="st2" d="M982.7,254.2c-5.7,3.1-11.5,6.2-17.7,8c-6.6,1.9-13.4,2.1-20.2,2.3c-8.1,0.8-16.3-0.3-23.8-3.4l-24.7-8.4
	c-17.5,41.9-24.4,88.4-14.9,132.8c3.5,16.2-0.2,32.9-0.1,49.5c-0.1,5.9,0.1,11.7,0.7,17.6c0.4,4.5,1.3,9,2,13.4
	c3.6,27.3-2.9,55.4,1.2,82.6c0.5,3.7,5.1,5.8,8.7,7c1.9,0.5,3.7,0.9,5.6,1.1c9.6,1.4,19.2,2.8,28.8,1.9c2.4-0.2,5.1-1,5.9-3.2
	c0.5-1.7-0.4-3.9,0.5-5.6c6.2-10.3,1.6-24.4,2.2-36.4c1.7-31.8-0.3-63.7,2.5-95.4c0.5-6-0.2-11.4,0.3-17.5l0.3-4.2l1.1-12.6
	c0.7,17.5,1.4,34.4,2.1,51.9c0.2,5,0.4,10.2,1.9,15.1c0.8,2.6,2,5,2.6,7.6c0.5,2.8,0.9,5.7,0.9,8.5l2.8,76.8c0,2.7-0.2,5.6-0.5,8.3
	c-0.3,3.2-0.3,6.9,2.2,8.8c1.3,0.9,2.8,1.4,4.4,1.4c4.7,0.4,9.4-0.4,14.1-1.2c4.7-0.9,14.5-1.6,19.2-2.5c0.8-0.1,1.4-0.3,2.1-0.5
	c2.1-1.1,2.6-3.9,2.4-6.2c-0.2-2.3-0.9-4.8-0.1-7.1c9.5-29.4-2.1-61.7,0.1-92.6c2-27.5,1.6-55.1,1.4-82.6
	c-0.1-16.3-1.3-32.2-0.9-48.5c0.4-19.9,1.9-40.6-6.6-58.7C987.7,259.1,985.7,256.2,982.7,254.2z"/>
<path class="st2" d="M928.9,570.5c0,0-18.4-8.8-21.6,0c-3.3,8.8-9.5,29.8-2.5,34.8l0,0c4.6,3.4,10.6,4,15.8,1.9c4.5-2,9-4.4,8.3-6.2
	C927.6,597.2,928.9,570.5,928.9,570.5z"/>
<path class="st2" d="M957.4,570.5c0,0,18.4-8.8,21.6,0c3.3,8.8,9.5,29.8,2.5,34.8l0,0c-4.6,3.4-10.6,4-15.8,1.9
	c-4.5-2-9-4.4-8.3-6.2C958.7,597.2,957.4,570.5,957.4,570.5z"/>
<path class="st2" d="M980.2,136c-26.7-0.4-53.2,0.5-79.7,3.1c-2,0.1-3.9,0.5-5.7,1.3c-1.5,0.9-2.8,2.1-3.9,3.5
	c-11.9,14.2-18.7,31.9-19.6,50.5c-0.1,2.4,0,5,1.6,6.8c7.3,8,16.6,13.8,22.5,22.9c1.3,2.5,2.9,4.8,4.9,6.9
	c-1.1,6.6-1.2,13.2-0.4,19.8c3.8-5,9.6-8.3,15.6-10.3s12.3-2.7,18.7-3.4c9.2-1.1,19-2,27.2,2.3c6.4,3.4,11.1,9.7,17.9,12.3
	c0.9-5.7,1.4-11.4,1.5-17.1c0.2-8.1,6.2-14,9.4-21.4c0.9-2.2,2-4.3,3.2-6.3c3.2-4.9,8.5-8.2,14-10.2s11.5-2.6,17.3-3.4
	c2.6-3.7,1.7-8.5,0-12.7c-1.7-4.2-4.9-7.6-7.5-11.4c-5.1-7.2-8.8-15.5-14.5-22.3C997.1,140.2,988.9,136.2,980.2,136z"/>
<path class="st6" d="M945.8,40.1c0,0-13.1,16.9-39.4,20.6c-26.3,3.7-5.6,45-5.6,45s-7.5-15,7.5-28.2
	C923.4,64.4,945.8,57.1,945.8,40.1z"/>
<path class="st6" d="M945.8,40.1c0,0,7.5,26.2,18.8,30c11.3,3.7,5.7,43.1-13.1,46.9c0,0,15.9-21.5,6.6-38.4
	C948.7,61.6,943.1,48.6,945.8,40.1z"/>
<path class="st2" d="M945.8,40.1c0,0-13.1,16.9-39.4,20.6c-26.3,3.7-5.6,45-5.6,45s-7.5-15,7.5-28.2
	C923.4,64.4,945.8,57.1,945.8,40.1z"/>
<path class="st2" d="M945.8,40.1c0,0,7.5,26.2,18.8,30c11.3,3.7,5.7,43.1-13.1,46.9c0,0,15.9-21.5,6.6-38.4
	C948.7,61.6,943.1,48.6,945.8,40.1z"/>
<path class="st2" d="M483.4,183v-13.9h1.5v1.3c0.3-0.4,0.8-0.9,1.2-1.2c0.5-0.2,1.1-0.4,1.6-0.4c0.8,0,1.6,0.2,2.3,0.7
	c0.7,0.4,1.2,1.1,1.5,1.9c0.3,0.9,0.5,1.7,0.5,2.6c0,1-0.2,1.9-0.5,2.7c-0.3,0.8-0.9,1.4-1.6,1.9c-0.7,0.4-1.4,0.7-2.2,0.7
	c-0.5,0-1.1-0.1-1.5-0.3c-0.4-0.2-0.8-0.5-1.1-0.9v4.9h-1.7V183z M484.9,174.1c-0.1,1,0.2,2.1,0.8,2.8c0.4,0.5,1.2,0.9,1.9,0.9
	c0.8,0,1.5-0.3,2-1c0.7-0.9,0.9-2,0.8-2.9c0.1-1-0.2-2.1-0.8-2.8c-0.4-0.5-1.1-1-1.9-1c-0.8,0-1.5,0.4-2,1
	C485.1,172.1,484.9,173.2,484.9,174.1L484.9,174.1z"/>
<path class="st2" d="M493,179.2l3.7-5.2l-3.4-4.8h2.1l1.5,2.4c0.3,0.4,0.5,0.9,0.7,1.1c0.3-0.4,0.5-0.8,0.8-1.1l1.6-2.4h2.1
	l-3.5,4.7l3.7,5.4h-2.1l-2.1-3.2l-0.5-0.9l-2.6,3.9L493,179.2z"/>
<rect x="428.5" y="168.5" class="st2" width="10.9" height="10.9"/>
<rect x="446" y="168.5" class="st2" width="10.9" height="10.9"/>
<rect x="463.5" y="168.5" class="st2" width="10.9" height="10.9"/>
</svg>
