<?xml version="1.0" encoding="utf-8"?>
<!-- Generator: Adobe Illustrator 24.1.0, SVG Export Plug-In . SVG Version: 6.00 Build 0)  -->
<svg version="1.1" id="Layer_1" xmlns="http://www.w3.org/2000/svg" xmlns:xlink="http://www.w3.org/1999/xlink" x="0px" y="0px"
	 viewBox="0 0 24 24" style="enable-background:new 0 0 24 24;" xml:space="preserve">
<path d="M23.42,13.3c0,0-0.26,0-0.3,0c-0.24,0-1.25,0-2.17,0.2c-0.54,0.12-1.23,0.29-1.95,0.81
	c-0.77,0.54-1.19,1.17-1.27,1.3c-0.26,0.41-0.29,0.58-0.93,1.75c-0.03,0.06-0.07,0.12-0.1,0.17c-0.12,0.19-0.23,0.38-0.35,0.55
	c-1.55,2.3-4.17,3.81-7.15,3.81c-4.76,0-8.62-3.87-8.62-8.62l0-2.28c0-4.76,3.85-8.63,8.62-8.63c2.66,0,5.04,1.2,6.62,3.1
	c0.23,0.28,0.45,0.58,0.65,0.9c0.06,0.07,0.1,0.16,0.16,0.25c0.07,0.13,0.14,0.26,0.22,0.41c0.59,1.09,0.62,1.26,0.88,1.65
	c0.09,0.14,0.51,0.78,1.27,1.32c0.79,0.55,1.54,0.72,1.95,0.81c0.63,0.14,1.31,0.17,1.68,0.18c0.34,0.02,0.79,0.02,0.79,0.03V13.3z"
	/>
</svg>
