<?xml version="1.0" encoding="utf-8"?>
<!-- Generator: Adobe Illustrator 24.1.0, SVG Export Plug-In . SVG Version: 6.00 Build 0)  -->
<svg version="1.1" id="Layer_1" xmlns="http://www.w3.org/2000/svg" xmlns:xlink="http://www.w3.org/1999/xlink" x="0px" y="0px"
	 viewBox="0 0 24 24" style="enable-background:new 0 0 24 24;" xml:space="preserve">
<path d="M23.35,11.1v1.82c0,0.01-0.21,0-0.24,0c-0.19,0-1,0.01-1.73,0.17c-0.43,0.09-0.98,0.23-1.56,0.65
	c-0.61,0.42-0.95,0.93-1.02,1.04c-0.21,0.33-0.23,0.46-0.74,1.4c-0.02,0.05-0.06,0.1-0.08,0.14c-0.09,0.15-0.18,0.3-0.27,0.44
	c-1.24,1.83-3.33,3.04-5.71,3.04c-2.38,0-4.47-1.2-5.7-3.04c-0.1-0.14-0.18-0.29-0.28-0.44c-0.02-0.05-0.06-0.1-0.08-0.14
	c-0.51-0.93-0.53-1.07-0.74-1.4c-0.06-0.1-0.4-0.61-1.01-1.04c-0.57-0.41-1.13-0.56-1.56-0.65c-0.74-0.16-1.55-0.17-1.74-0.17
	c-0.03,0-0.24,0.01-0.24,0V11.1c0-0.01,0.36-0.01,0.63-0.02c0.3-0.02,0.84-0.04,1.35-0.15c0.33-0.06,0.93-0.21,1.56-0.65
	C4.8,9.86,5.13,9.35,5.2,9.24c0.22-0.31,0.23-0.45,0.71-1.32C5.96,7.8,6.02,7.7,6.07,7.59c0.05-0.07,0.09-0.14,0.13-0.2
	C6.37,7.15,6.54,6.9,6.73,6.68C7.98,5.17,9.88,4.21,12,4.21c2.13,0,4.02,0.96,5.28,2.47c0.18,0.22,0.36,0.46,0.52,0.71
	c0.05,0.06,0.08,0.13,0.13,0.2c0.06,0.1,0.12,0.21,0.18,0.33c0.47,0.86,0.49,1.01,0.7,1.32c0.07,0.11,0.41,0.62,1.02,1.05
	c0.62,0.44,1.23,0.58,1.56,0.65c0.5,0.11,1.04,0.14,1.34,0.15C22.99,11.09,23.35,11.09,23.35,11.1z"/>
</svg>
