<?xml version="1.0" encoding="utf-8"?>
<!-- Generator: Adobe Illustrator 24.1.2, SVG Export Plug-In . SVG Version: 6.00 Build 0)  -->
<svg version="1.1" id="aacf679f-7774-484d-919c-70dbfadaa690"
	 xmlns="http://www.w3.org/2000/svg" xmlns:xlink="http://www.w3.org/1999/xlink" x="0px" y="0px" viewBox="0 0 1114.2 608.5"
	 style="enable-background:new 0 0 1114.2 608.5;" xml:space="preserve">
<style type="text/css">
	.st0{opacity:0.1;fill:#EC663A;}
	.st1{fill:#EC663A;}
	.st2{fill:#EAB7A9;}
	.st3{fill:#E0701B;}
</style>
<path class="st0" d="M178.8,32.9C237.9-3.1,302.4,0,314.5,0.8C435,8.3,463.5,104,589.1,170.4c175.8,93,289.5-2.4,361.5,80.7
	c76,87.7,20.9,316.3-80,351.7C771.4,637.6,710.3,457,517.3,431.6c-205-27-311.5,153.8-401.7,97.2C9.1,461.8,14.6,132.8,178.8,32.9z"
	/>
<rect x="172.3" y="74.6" class="st1" width="658.7" height="427.9"/>
<rect x="152.4" y="72.2" class="st2" width="50.3" height="431.9"/>
<rect x="299.3" y="191.2" class="st2" width="131.7" height="1.6"/>
<path class="st2" d="M731.2,422.7H550V253.4h181.2V422.7z M551.6,421.1h178V255h-178L551.6,421.1z"/>
<rect x="639.8" y="215.2" transform="matrix(0.6823 -0.7311 0.7311 0.6823 -43.6397 575.7046)" class="st2" width="1.6" height="245.7"/>
<rect x="517.7" y="337.3" transform="matrix(0.7311 -0.6823 0.6823 0.7311 -58.3927 527.9753)" class="st2" width="245.7" height="1.6"/>
<rect x="299.3" y="308.5" class="st2" width="186" height="1.6"/>
<rect x="299.3" y="337.3" class="st2" width="186" height="1.6"/>
<rect x="299.3" y="366" class="st2" width="186" height="1.6"/>
<path class="st2" d="M731.2,168.8H298.5v-29.5h432.7V168.8z M300.1,167.2h429.5v-26.3H300.1V167.2z"/>
<path class="st2" d="M341.3,227.8h-42.6c3.3-13.2,2.9-27.5,0-42.6h42.6C335.4,199.4,335.4,213.6,341.3,227.8z"/>
<rect x="305.2" y="194.2" class="st1" width="25.8" height="5.2"/>
<rect x="305.2" y="204.5" class="st1" width="25.8" height="5.2"/>
<rect x="305.2" y="214.9" class="st1" width="25.8" height="5.2"/>
<path class="st2" d="M662,292.1h-42.6c3.3-13.2,2.9-27.5,0-42.6H662C656.1,263.7,656.1,277.9,662,292.1z"/>
<rect x="625.9" y="258.5" class="st1" width="25.8" height="5.2"/>
<rect x="625.9" y="268.8" class="st1" width="25.8" height="5.2"/>
<rect x="625.9" y="279.2" class="st1" width="25.8" height="5.2"/>
<path class="st2" d="M716.8,200.8h-42.6c3.3-13.2,2.9-27.5,0-42.6h42.6C710.8,172.4,710.8,186.6,716.8,200.8z"/>
<rect x="680.7" y="167.3" class="st1" width="25.8" height="5.2"/>
<rect x="680.7" y="177.6" class="st1" width="25.8" height="5.2"/>
<rect x="680.7" y="187.9" class="st1" width="25.8" height="5.2"/>
<path class="st1" d="M188.8,249.1h-22.6v-22.6h22.6V249.1z M168,247.3h19.1v-19.1H168V247.3z"/>
<path class="st1" d="M189.2,299.5h-22.6v-22.6h22.6V299.5z M168.4,297.7h19.1v-19.1h-19.1V297.7z"/>
<path class="st1" d="M189.7,349.9h-22.6v-22.6h22.6V349.9z M168.8,348.1h19.1V329h-19.1V348.1z"/>
<circle class="st3" cx="167.5" cy="327.7" r="7"/>
</svg>
