<?xml version="1.0" encoding="utf-8"?>
<!-- Generator: Adobe Illustrator 24.1.2, SVG Export Plug-In . SVG Version: 6.00 Build 0)  -->
<svg version="1.1" id="Layer_1" xmlns="http://www.w3.org/2000/svg" xmlns:xlink="http://www.w3.org/1999/xlink" x="0px" y="0px"
	 viewBox="0 0 1366 768" style="enable-background:new 0 0 1366 768;" xml:space="preserve">
<style type="text/css">
	.st0{opacity:0.1;fill:#EC663A;}
</style>
<path class="st0" d="M0,112.4C9.3,98,26.2,76.3,53.7,59.1c31.8-19.8,93.1-43,134.8-18.5c41.6,24.5,21.6,71.8,65.2,138
	c39.9,60.7,83.1,61,115.2,97.8c37.7,43.2,56.5,132.6-28.3,335.9c-8.9,22.9-28.4,62.2-69.6,92.4c-59.8,43.9-145.4,53.6-212,18.5
	c-28.9-15.3-48-35.7-59.2-50C0,486.3,0,299.3,0,112.4z"/>
<path class="st0" d="M374.4,230.9c9,3.1,73.3,25.6,99.7-4.5c11-12.6,10.8-29,10.4-47c-0.9-51.8-31.7-88.5-40-98.1
	c-6.2-7.2-33.7-37.9-82.1-52.6C343.8,23,282.3,4.4,258.1,32c-27.3,31.1,9.2,102.3,34,135.8C301.8,180.7,327.6,214.6,374.4,230.9z"/>
</svg>
