<?xml version="1.0" encoding="utf-8"?>
<!-- Generator: Adobe Illustrator 24.1.2, SVG Export Plug-In . SVG Version: 6.00 Build 0)  -->
<svg version="1.1" id="c72640af-2824-4ace-a782-4df73f48977c"
	 xmlns="http://www.w3.org/2000/svg" xmlns:xlink="http://www.w3.org/1999/xlink" x="0px" y="0px" viewBox="0 0 1366 768"
	 style="enable-background:new 0 0 1366 768;" xml:space="preserve">
<style type="text/css">
	.st0{opacity:0.1;fill:#EC663B;}
	.st1{opacity:0.1;fill:#EC663B;enable-background:new    ;}
	.st2{fill:#EC663B;}
	.st3{fill:#444053;}
	.st4{fill:none;stroke:#444053;stroke-miterlimit:10;}
	.st5{fill:none;stroke:#444053;stroke-width:0.75;stroke-miterlimit:10;}
	.st6{fill:url(#SVGID_1_);}
	.st7{fill:#FFFFFF;}
	.st8{opacity:4.000000e-02;fill:#5A5773;enable-background:new    ;}
	.st9{fill:#5A5773;}
	.st10{opacity:0.2;fill:#5A5773;enable-background:new    ;}
	.st11{opacity:0.2;fill:#EC663B;enable-background:new    ;}
	.st12{opacity:0.1;enable-background:new    ;}
	.st13{fill:#FFD037;}
	.st14{opacity:0.1;fill:#274C77;enable-background:new    ;}
	.st15{fill:#274C77;}
	.st16{fill:#9D9CB5;}
	.st17{fill:url(#SVGID_2_);}
	.st18{fill:#65617D;}
	.st19{fill:#FBBEBE;}
	.st20{fill:#E7EFFD;}
	.st21{fill:#5F5D7E;}
	.st22{fill:#6786A5;}
	.st23{fill:#3F3D56;}
	.st24{fill:#7C5C5C;}
	.st25{opacity:0.1;}
	.st26{fill:#E6E8EC;}
	.st27{opacity:0.1;fill:#5A5773;enable-background:new    ;}
	.st28{fill:url(#SVGID_3_);}
	.st29{fill:#2D293D;}
	.st30{opacity:5.000000e-02;enable-background:new    ;}
	.st31{opacity:5.000000e-02;}
	.st32{fill:#FFCDD3;}
	.st33{fill:#DCE6F2;}
	.st34{fill:#575988;}
</style>
<path class="st0" d="M1366.1,1.2c-197,0-394,0-591,0C737.4,30,687,72.7,635.2,131.3c-27.6,31.3-227,256.2-170.1,343.7
	c40,61.5,155.8-23.4,316.1,36c182,67.5,195.4,237.5,334.4,255.6c55.4,7.2,138-8.8,250.5-121.1C1366.1,430.7,1366.1,215.9,1366.1,1.2
	z"/>
<ellipse transform="matrix(0.3677 -0.9299 0.9299 0.3677 -104.4162 1085.1509)" class="st1" cx="745.8" cy="619.4" rx="39.5" ry="83.2"/>
<path class="st2" d="M1031.8,305.7c0,0-7.7-2.8-32.3,7.4c-24.6,10.2-27.7,8.9-34,7.4c-6.3-1.6-9.9-1.9-16.7-10.5
	c0,0-4.8-23.7-9.5-27.3s-24.4,2.1-24.4,2.1s-23.7,4.9-28.2-23.8c0,0,3.2-21.7-1.2-28.3c0,0,8.8,3.5,23.4-2.1c14.6-5.6,26.2,6,26.2,6
	s3.7,8.6,3.3,13.8c-0.4,5.1,1.9,7.1,8.9,4.6c0,0,3.4-4.4-1.4-11.7s-8.3-12.7-6.9-18.3s5.2-13.5,17.7-17.4s29.3-4.7,37.5-7.7
	c8.1-3.1,10.1-5.1,10.1-5.1s-5,4.6,6.8,23.8s4.3,27.6,4.3,27.6s-6.3,13.5-33.9,12.5c0,0-26.6,0.9-12.1,11.1c0,0,9.3-1.7,23.2-5.7
	c13.9-4,23.9,12.5,26.4,24C1021.2,299.4,1031.8,305.7,1031.8,305.7z"/>
<path class="st3" d="M996,209.1l0.1,0c1.1,3.7-10.8,18.4-21,30.2l-0.1-0.1C989.4,222.6,996.8,212,996,209.1z"/>
<path class="st3" d="M975.2,238.9l0.1,0.1c-8.1,9.4-18.3,20.6-26.5,28.8c-0.8,0.8-1.6,1.6-2.3,2.5l-0.2-0.2c0.7-0.8,1.5-1.7,2.3-2.5
	C956.7,259.5,967.1,248.3,975.2,238.9z"/>
<path class="st3" d="M946.5,270l0.2,0.2c-14.9,16.9-15.9,43-15.9,43.3l-3.1-3.3C927.6,310,931.5,287,946.5,270z"/>
<path class="st4" d="M1014.5,296.5c0,0-17.6-8.3-31.2-5.3s-44.5-10.5-44.5-10.5s-13.1-4.8-15.7-10.3c0,0-9-8.6-9.5-13.1
	c-0.5-4.5-9.2-15.6-14.9-16.1"/>
<path class="st4" d="M1012,304.5c0,0-8.9-5.4-7.8-11.7"/>
<path class="st4" d="M998.4,311.5c0,0-12.6-4.2-13.9-20.5"/>
<path class="st4" d="M978,315.7c0,0-12.1-9.1-8.1-25"/>
<path class="st4" d="M953.5,311.2c0,0-8-15.3-0.9-25.3"/>
<path class="st4" d="M1014.7,286.4c0,0-9.1,2.6-7.2,7"/>
<path class="st4" d="M1003.7,271.4c0,0-12.2,3.5-12.5,19.2"/>
<path class="st4" d="M986.7,267.7c0,0-11.1,12.5-10.3,23.8"/>
<path class="st4" d="M967.2,272.6c0,0-11.1,9.6-9.6,14.9"/>
<path class="st4" d="M960.5,269.2c0,0-10.4,1.7-11.8-1.4"/>
<path class="st4" d="M947,257.9c0,0,5.2,6.3,6.6,4.9"/>
<path class="st4" d="M999,253.9c0,0-26.1,1.7-32.1-5.4"/>
<path class="st4" d="M941.5,226.2c0,0,12.3,23.9,21.2,26.9"/>
<path class="st4" d="M954.4,214.8c0,0,7.5,22,16.9,28.8"/>
<path class="st5" d="M1010,235.8c0,0-19.9,7.7-31.8-0.1"/>
<path class="st5" d="M972.1,210.1c0,0,4.5,16.2,10.7,20.1"/>
<path class="st5" d="M1006.9,217.7c0,0-11.2,3.8-15.3,0.9"/>
<path class="st4" d="M937.5,263.2c0,0,0,14.1-4.2,15.1"/>
<path class="st4" d="M902.9,281.4c0,0,16.8,1.3,24.5-6.5"/>
<path class="st4" d="M933.1,246.5c0,0-4.1,14.3-15.3,18.1"/>
<path class="st4" d="M892.9,266.4c0,0,11.9,3.7,22.1-5.8"/>
<path class="st4" d="M919.9,234.3c0,0-1.1,12.1-8.4,17.8"/>
<path class="st4" d="M893.3,247.9c0,0,9.9,0.1,12.2-2.9"/>
<linearGradient id="SVGID_1_" gradientUnits="userSpaceOnUse" x1="958.6007" y1="234.3788" x2="958.6007" y2="502.6813" gradientTransform="matrix(1 0 0 -1 0 767.09)">
	<stop  offset="0" style="stop-color:#808080;stop-opacity:0.25"/>
	<stop  offset="0.54" style="stop-color:#808080;stop-opacity:0.12"/>
	<stop  offset="1" style="stop-color:#808080;stop-opacity:0.1"/>
</linearGradient>
<path class="st6" d="M704.5,264.4h508.2c3.8,0,6.9,2.8,6.9,6.2v255.9c0,3.4-3.1,6.2-6.9,6.2H704.5c-3.8,0-6.9-2.8-6.9-6.2V270.6
	C697.6,267.2,700.7,264.4,704.5,264.4z"/>
<path class="st7" d="M705.3,268.2h506.6c3.8,0,6.9,2.8,6.9,6.2v251.2c0,3.4-3.1,6.2-6.9,6.2H705.3c-3.8,0-6.9-2.8-6.9-6.2V274.4
	C698.5,271,701.5,268.2,705.3,268.2z"/>
<path class="st7" d="M705.3,268.2h506.6c3.8,0,6.9,2.8,6.9,6.2v251.2c0,3.4-3.1,6.2-6.9,6.2H705.3c-3.8,0-6.9-2.8-6.9-6.2V274.4
	C698.5,271,701.5,268.2,705.3,268.2z"/>
<path class="st8" d="M705.3,268.2h506.6c3.8,0,6.9,2.8,6.9,6.2v251.2c0,3.4-3.1,6.2-6.9,6.2H705.3c-3.8,0-6.9-2.8-6.9-6.2V274.4
	C698.5,271,701.5,268.2,705.3,268.2z"/>
<path class="st9" d="M1216.1,265.2h-515c-1.5,0-2.6,1.1-2.6,2.4v10.1h520.3v-10.1C1218.8,266.2,1217.6,265.2,1216.1,265.2
	C1216.1,265.2,1216.1,265.2,1216.1,265.2z"/>
<g id="_x38_3eb5f8b-b68b-4721-b047-6100bc74156f">
	<ellipse class="st7" cx="708.9" cy="271.4" rx="3.6" ry="3.2"/>
	<ellipse class="st7" cx="718.5" cy="271.4" rx="3.6" ry="3.2"/>
	<ellipse class="st7" cx="728.1" cy="271.4" rx="3.6" ry="3.2"/>
</g>
<path class="st7" d="M738.9,336.1h422.7c3.1,0,5.6,2.3,5.6,5.1v185.6c0,2.8-2.5,5.1-5.6,5.1H738.9c-3.1,0-5.6-2.3-5.6-5.1V341.1
	C733.3,338.3,735.8,336.1,738.9,336.1z"/>
<path class="st10" d="M717,291h120.6c1.2,0,2.1,0.9,2.1,1.9v8c0,1.1-0.9,1.9-2.1,1.9H717c-1.2,0-2.1-0.9-2.1-1.9v-8
	C714.9,291.9,715.9,291,717,291z"/>
<path class="st11" d="M952.4,358.8h120.6c1.2,0,2.1,0.9,2.1,1.9v8c0,1.1-0.9,1.9-2.1,1.9H952.4c-1.2,0-2.1-0.9-2.1-1.9v-8
	C950.2,359.6,951.2,358.8,952.4,358.8z"/>
<path class="st11" d="M952.4,392.1H1143c1.2,0,2.1,0.9,2.1,1.9v8c0,1.1-0.9,1.9-2.1,1.9H952.4c-1.2,0-2.1-0.9-2.1-1.9v-8
	C950.2,392.9,951.2,392.1,952.4,392.1z"/>
<path class="st11" d="M952.4,411.5H1143c1.2,0,2.1,0.9,2.1,1.9v8c0,1.1-0.9,1.9-2.1,1.9H952.4c-1.2,0-2.1-0.9-2.1-1.9v-8
	C950.2,412.4,951.2,411.5,952.4,411.5z"/>
<path class="st11" d="M952.4,430.9H1143c1.2,0,2.1,0.9,2.1,1.9v8c0,1.1-0.9,1.9-2.1,1.9H952.4c-1.2,0-2.1-0.9-2.1-1.9v-8
	C950.2,431.8,951.2,430.9,952.4,430.9z"/>
<path class="st11" d="M952.4,450.4H1143c1.2,0,2.1,0.9,2.1,1.9v8c0,1.1-0.9,1.9-2.1,1.9H952.4c-1.2,0-2.1-0.9-2.1-1.9v-8
	C950.2,451.2,951.2,450.4,952.4,450.4z"/>
<path class="st11" d="M758.9,471.8h384c1.2,0,2.1,0.9,2.1,1.9v8c0,1.1-0.9,1.9-2.1,1.9h-384c-1.2,0-2.1-0.9-2.1-1.9v-8
	C756.8,472.7,757.8,471.8,758.9,471.8z"/>
<path class="st11" d="M758.9,491.2h384c1.2,0,2.1,0.9,2.1,1.9v8c0,1.1-0.9,1.9-2.1,1.9h-384c-1.2,0-2.1-0.9-2.1-1.9v-8
	C756.8,492.1,757.8,491.2,758.9,491.2z"/>
<path class="st11" d="M758.9,510.7h384c1.2,0,2.1,0.9,2.1,1.9v8c0,1.1-0.9,1.9-2.1,1.9h-384c-1.2,0-2.1-0.9-2.1-1.9v-8
	C756.8,511.5,757.8,510.7,758.9,510.7z"/>
<path class="st2" d="M1056.3,518.5c0,0,3.3,3.9-1.5,9.7c-4.8,5.8-8.7,10.8-7.1,14.4c0,0,7.2-10.8,13-11
	C1066.5,531.5,1062.7,525.1,1056.3,518.5z"/>
<path class="st12" d="M1056.3,518.5c0.3,0.4,0.5,0.8,0.7,1.2c5.7,6.1,8.7,11.8,3.3,11.9c-5.1,0.1-11.2,8.4-12.7,10.5
	c0,0.2,0.1,0.3,0.2,0.5c0,0,7.2-10.8,13-11C1066.5,531.6,1062.7,525.1,1056.3,518.5z"/>
<path class="st13" d="M1062.3,523.5c0,1.4-0.2,2.5-0.4,2.5s-0.4-1.1-0.4-2.5c0-1.4,0.2-0.7,0.4-0.7S1062.3,522.1,1062.3,523.5z"/>
<path class="st13" d="M1064.4,525.1c-1.3,0.6-2.5,1-2.6,0.9s0.9-0.8,2.2-1.5c1.3-0.7,0.8-0.2,0.9,0
	C1065,524.6,1065.7,524.4,1064.4,525.1z"/>
<path class="st2" d="M1039.1,518.5c0,0-3.3,3.9,1.5,9.7c4.8,5.8,8.7,10.8,7.1,14.4c0,0-7.2-10.8-13-11S1032.6,525.1,1039.1,518.5z"
	/>
<path class="st12" d="M1039.1,518.5c-0.3,0.4-0.5,0.8-0.7,1.2c-5.7,6.1-8.7,11.8-3.3,11.9c5.1,0.1,11.2,8.4,12.7,10.5
	c0,0.2-0.1,0.3-0.2,0.5c0,0-7.2-10.8-13-11S1032.6,525.1,1039.1,518.5z"/>
<path class="st13" d="M1033,523.5c0,1.4,0.2,2.5,0.4,2.5c0.2,0,0.4-1.1,0.4-2.5c0-1.4-0.2-0.7-0.4-0.7
	C1033.1,522.8,1033,522.1,1033,523.5z"/>
<path class="st13" d="M1030.9,525.1c1.3,0.6,2.5,1,2.6,0.9s-0.9-0.8-2.2-1.5c-1.3-0.7-0.8-0.2-0.9,0
	C1030.3,524.6,1029.6,524.4,1030.9,525.1z"/>
<ellipse class="st14" cx="1047.7" cy="567.5" rx="34" ry="4.7"/>
<path class="st15" d="M1065.2,537.4l-0.2,1.2l-0.2,1.7l-0.1,0.7l-0.2,1.7l-0.1,0.7l-0.2,1.7l-2.6,19.4c-0.2,1.7-3.3,3.1-7.1,3.1
	h-13.5c-3.8,0-6.9-1.4-7.1-3.1l-2.6-19.4l-0.2-1.7l-0.1-0.7l-0.2-1.7l-0.1-0.7l-0.2-1.7l-0.2-1.2c-0.1-1,1.6-1.8,3.7-1.8h27.7
	C1063.6,535.6,1065.3,536.4,1065.2,537.4z"/>
<polygon class="st16" points="1065,538.6 1064.8,540.3 1030.5,540.3 1030.3,538.6 "/>
<polygon class="st16" points="1064.7,541 1064.5,542.7 1030.9,542.7 1030.6,541 "/>
<polygon class="st16" points="1064.4,543.5 1064.2,545.2 1031.2,545.2 1031,543.5 "/>
<path class="st11" d="M761.5,352.2H918c2.6,0,4.7,1.9,4.7,4.2v101.9c0,2.3-2.1,4.2-4.7,4.2H761.5c-2.6,0-4.7-1.9-4.7-4.2V356.4
	C756.8,354.1,758.9,352.2,761.5,352.2z"/>
<linearGradient id="SVGID_2_" gradientUnits="userSpaceOnUse" x1="1250.3798" y1="141.2486" x2="1250.3798" y2="334.4281" gradientTransform="matrix(1 0 0 -1 -28.43 748.55)">
	<stop  offset="0" style="stop-color:#808080;stop-opacity:0.25"/>
	<stop  offset="0.54" style="stop-color:#808080;stop-opacity:0.12"/>
	<stop  offset="1" style="stop-color:#808080;stop-opacity:0.1"/>
</linearGradient>
<path class="st17" d="M1273.6,475c0.2-0.5-1.3-3.3-1.3-3.5c0-0.1-1.6-1.7-1.6-2.6c0-0.9-2.1-2.8-2.1-2.8s-2.8-1.1-3.1-3.4
	s-3.4-2.4-3.4-2.4l0,0c0,0,0-0.2,0-0.5c0.1-0.9-0.1-1.8-0.4-2.7c-0.4-0.6-1-1.1-1.8-1.4c0,0-0.3-1.8-0.9-2.4c-0.7-0.7-1-1.6-0.7-2.5
	c0.3-0.9-0.4-3.1-1.9-3.4c-1.5-0.3-3.2-0.8-3.2-0.8l-0.4,0.1l-0.2-0.1c-0.4,0.1-0.7,0.1-1.1,0.1c-0.3,0-0.6-0.1-0.9-0.3
	c-0.5-0.5-4.7-1.5-5.5-1.5s-3-0.9-3-0.9s-1.5-1.1-2.2-1.5c-0.6-0.5-1.8-2.2-1.9-2.4v0l0,0l0,0c-0.2-0.4-0.3-0.8-0.5-1.2l0,0
	c0.8-0.7,1.4-1.5,1.9-2.4c0.1-0.1,0.1-0.2,0.2-0.3c0.1,0,0.2,0,0.3,0l0.1,0c0.5-0.2,0.9-0.7,1.1-1.2l0,0c0-0.1,0.1-0.2,0.1-0.3
	c0,0,0-0.1,0-0.1l0-0.2c0,0,0-0.1,0-0.1l0-0.2v-0.1c0-0.1,0-0.2,0-0.3l0,0c0-0.3,0.1-0.7,0.2-1l0,0l0,0c0.3-1.3,1.1-2.3,1.7-3.5l0,0
	c0.1-0.2,0.2-0.3,0.2-0.5c0.1-0.2,0.1-0.4,0.2-0.6l0-0.2c0-0.1,0.1-0.3,0.1-0.4c0-0.1,0-0.1,0-0.2c0-0.2,0.1-0.4,0.1-0.6
	c0.1-1.1-0.1-2.2-0.5-3.3c-0.4-0.9-1-1.7-1.4-2.5c-0.6-1.3-0.8-2.8-1.5-4.1c-1.2-2.1-3.9-3.1-6.4-2.4c-1.1,0.4-2.1,1.1-3.2,1.4
	c-1.5,0.4-3.2,0.1-4.7-0.1c-1.6-0.2-3.3-0.2-4.6,0.7c-1.5,1.1-1.9,3.1-3.2,4.3c-0.5,0.5-1.3,0.8-1.9,1.3c-0.4,0.3-0.8,0.7-1,1.2
	l0,0.1c0,0,0,0.1,0,0.1c0,0,0,0.1,0,0.1c0,0,0,0.1,0,0.1c0,0.1,0,0.2,0,0.2l0,0c0,0.1,0,0.2,0,0.2v0.1c0,0.1,0,0.1,0.1,0.2s0,0,0,0
	s0.1,0.1,0.1,0.2l0,0.1c0,0,0,0.1,0,0.1c0.2,0.3,0.4,0.7,0.5,1.1c0.1,0.2,0,0.5,0,0.7c-0.1,0.3-0.3,0.5-0.5,0.7
	c-1,1-1.8,2.1-2.3,3.4c-0.1,0.1-0.1,0.3-0.2,0.4l0,0h0.1c0.1,0,0.3,0.1,0.5,0.1c0.1,0,0.2,0,0.3,0c0.4,0,0.7,0,1.1-0.1l0.3-0.1
	c0.4-0.1,0.7-0.2,1-0.3c0,0.1,0,0.2,0,0.3s0,0.1,0,0.2c0,4.2,2.6,8,6.8,9.9c0,0.1,0,0.2,0,0.3l0,0.3l-0.1-0.1c0,0-0.9-0.4-1.8,0.8
	c-0.6,0.8-1.5,1.4-2.5,1.8c0,0-9.4,1.3-9.8,2.5l-4.4,0.2c0,0-1.5,0.2-1.7,3.1s-1,3.2-1,3.2s-1.8,2.9-1.6,4.4c0,0.9-0.5,1.8-1.4,2.2
	l-0.2,2.7c0,0-1.7-0.2-2.2,1.6c-0.2,1-0.6,1.9-1.3,2.6c0,0-2.8,2.1-3,4l-1.8,1c0,0-4.1-0.8-5-2.3c0,0-0.1-0.1-0.3-0.2v0l0,0
	c-0.6-0.5-1.9-1.6-1.7-1.4c0.1,0.2,0.2,0.5,0.1,0.7l-0.3-0.3l-0.8-0.8c0,0-6.6-5.6-10.4-6l0,0c0-0.1-0.3-1-1-0.4
	c-2.2,1.8-2.3,4.9-0.3,6.9c0.1,0.1,0.2,0.2,0.3,0.3l6.2,5.2l0.2,0.1l1.3,1.5c-0.2,0.5-0.4,1-0.5,1.4v0l-0.1,0.3c0,0,0,0.1,0,0.1
	c0,0.1-0.1,0.2-0.1,0.3l0,0.1c0,0,0,0.1,0,0.1c-0.1,0.5-0.2,0.8-0.3,1l-0.3-0.1l0.3,0.1v0c0,0.1,0,0.1,0,0.1l0.3,0.1
	c1.8,0.7,10.8,4.3,11.3,4.8c0.5,0.5,3.9,2.4,7,0.9s3.8-3.8,3.8-3.8s3-3.8,3.1-4.3c0.1-0.6,2.4-1.2,2.4-1.2s0.2,6.2-1,8.5
	c-1.2,2.3-3.4,12.4-3.4,12.4c0.1,0,0.3,0,0.4,0l-0.1,0.6c0.2,0,0.4,0,0.5,0c-0.2,1.1-1.1,6.5-1.1,6.5s-0.3,2.4-0.8,3.3
	c-0.5,0.8-0.5,5.2-0.5,5.2l-0.8,3.2c0,0,0.1,0.2,0.3,0.5l0,0c0.6,1.1,1.4,2,2.4,2.8c-0.1,0.5-0.2,1-0.4,1.4
	c-0.3,0.7-0.5,1.5-0.4,2.2c0,0-0.9,3.6-0.8,4.6s-0.5,3.5-0.5,3.5l-0.9,8.1c0,0-0.6,7-0.3,8.9c0.1,1.5,0.1,3-0.2,4.5
	c0,0,0.6,5.5,0.5,6.1s-0.9,3.2-0.5,4.7c0.5,1.4,0.2,5.4,0.2,5.4s0.3,5.2,0.7,6.9c0.2,1.3,0.2,2.6-0.1,3.8c0,0-0.4,3.6-0.5,3.6
	c-0.2,0-1.5,2.5,1.2,4.9c2.7,2.4,1,2,1,2s-2.2-1-1.9,1c0.2,1.9,0.6,1.4,0.6,1.4l-0.5,1.5l0.4,0l-0.3,0.3c-0.3,0.4-0.7,0.7-1,1
	c-0.4,0.4-0.6,0.8-0.7,1.3c0,0-3.8,3.8-7.4,5.7c-1.9,1-3.5,1.8-4.2,2.6c-0.6,0.6-0.5,1.1,0.8,1.5c2.8,0.8,7.7,1.3,11.2,0.2
	c2.1-0.6,4-1.7,5.5-3.2c0,0,2.2-1,4.4-0.7c2.2,0.4,6.5-2.2,6.5-2.2l-0.1-0.7l-0.2-1.9c-0.3-0.3-0.4-0.7-0.4-1.2c0-0.6,0-1.1-0.2-1.7
	c0-0.2-0.1-0.4-0.1-0.5l0.4-0.1c0,0-0.5-2.4,0.4-2.8c0.9-0.5,0.7-6.6,0.7-6.6s-1.2-1.4-1.8-1.6c-0.6-0.2-0.1-3.1,0.1-3.5
	c0.1-0.4,0.9-7.6,0.9-7.6s-0.3-2.3,0.1-3.2s-0.5-4.7-0.5-4.7c-0.2-0.4-0.1-0.8,0.3-1c0.5-0.6,0.4-5.5,0.4-5.5s0-2.5,0-3.2
	c0-0.7,0.6-3,1.2-3.8s0.2-3.3,0.2-3.3l0,0l0-0.2c0-0.1,0-0.2,0-0.3l0-0.2c0.3-1.4,0.6-2.7,1-4c0.7-1.9,1.4-5.4,1.4-5.4l4.8-11.4
	l0.1-0.1c0,0,2.2,3.7,2.2,7.2c0,0,0.5,4.1,0.4,5.3c-0.1,1.1,0.4,6.4,0.4,6.4s0.7,7.5,0.7,7.9c0,0.3,0.8,6.1,1.3,7
	c0.5,0.9-0.5,3.6-0.8,3.9c-0.3,0.3,0.1,7.1,0.1,7.1s-0.8,5.4-0.9,6.5s-0.8,5.4-0.3,7.1c0.5,1.7,0.3,1.9,0.3,1.9s1.9,1.7,0.8,1.9
	c-1.5,0.3-2.5,1.7-2.2,3.1c0,0.1,0.1,0.2,0.1,0.3c0.6,1.7,1.4,3.4,2.3,5l0.9-0.2v0.6l0.1,2.8c0,0,0.4,2.6,0.2,3.3
	c-0.1,0.4-0.4,2.5-0.5,3.6c0,0.4-0.1,0.7-0.1,0.7s0,2.5,5.7,1.7c5.7-0.7,6.8-2.8,6.8-2.8l0-0.3c0.1-0.5,0.3-1.5,0.4-2
	c0.2-0.7-1.6-4.1-1.6-4.1s-0.3-2.3-0.8-2.8c-0.2-0.3-0.4-0.6-0.4-1c0-0.2-0.1-0.4-0.1-0.6c0.1,0,0.3,0,0.4,0.1c0,0-0.3-1.6,0.9-2.1
	c1.2-0.5,0.9-1.6,0.7-2c-0.2-0.5,0.5-3.1,0.5-3.1c-0.2-0.5,0-1.1,0.4-1.5c0.7-0.7,1.3-5.2,1.3-5.2l0.1-17.6c0,0,0.4-3.1,0-4.4
	c-0.4-1.3-0.8-3.7-0.3-4.3s0-3.7,0-3.7s0-6.4,0.8-8c0.8-1.6,0.5-11.6,0.5-11.6l0.2-6.6c0,0,1.7-1.4,1.3-9c1.8-0.1,3.8-0.2,4.1,0.1
	c0.5,0.4,4.2,2.6,6.4,1.2c0.9-0.6,1.8-1.2,2.6-1.8l-0.9-14c0.5,0.8,0.9,1.3,0.9,1.3c0-1.9,6.1-8.3,6.1-8.3s5.7-6.6,6.9-7.4
	c1.2-0.8,3.7-5,3.7-5c0.4-0.8,0.8-1.6,1.2-2.3C1275.3,477.7,1273.4,475.5,1273.6,475z M1260.3,479.9c-1.5,0.1-4.8,3.3-4.8,4
	c-0.1,0.5-0.3,0.9-0.7,1.2c0-0.3,0-0.6-0.1-0.9c-0.4-4.1-0.8-9.1-0.5-9.6c0.3-0.8,0.2-4.6,0.2-4.6l0,0l0.1-0.1
	c1,2.9,4.3,6.4,4.3,6.4s0.5,1.5,1.2,1.5C1260.6,477.9,1260.3,479.9,1260.3,479.9z"/>
<path class="st18" d="M1177.6,478.8c0,0,1.9-9,7.9-9l4.4,8.3l-2.9,1.8C1187,479.9,1180.6,480.1,1177.6,478.8z"/>
<path class="st12" d="M1190,478.1l-2.9,1.8c0,0-4.5,0.1-7.7-0.6c-0.6-0.1-1.1-0.3-1.7-0.5l0-0.1v0c0.3-1.1,0.7-2.2,1.1-3.3
	c0.2-0.4,0.4-0.8,0.6-1.2c0.9-1.5,2.1-3.1,3.8-3.8c0.6-0.3,1.3-0.5,2-0.5h0.3l0.1,0.2l1.5,2.8L1190,478.1z"/>
<path class="st18" d="M1240.2,515.2c0,0,6.4-0.6,6.9-0.1c0.6,0.4,4.2,2.5,6.3,1.2c2.1-1.3,0.7-6,0.7-6.2s-0.2-6.8-0.2-6.8l-3.8-4.7
	l-4.8-8.2l-9.8-0.9l0.3,13l0,6.6L1240.2,515.2z"/>
<path class="st12" d="M1240.2,515.2c0,0,6.4-0.6,6.9-0.1c0.6,0.4,4.2,2.5,6.3,1.2c2.1-1.3,0.7-6,0.7-6.2s-0.2-6.8-0.2-6.8l-3.8-4.7
	l-4.8-8.2l-9.8-0.9l0.3,13l0,6.6L1240.2,515.2z"/>
<path class="st19" d="M1184.3,469.6c0,0-0.5,5.6-4.4,5.7c0,0-1.1-0.6-2.6-1.6c-3.4-2.3-8.8-6.7-7.3-10.9c2.1-5.9,12.5,5,12.5,5
	l0.8,0.8L1184.3,469.6z"/>
<path class="st12" d="M1184.3,469.6c0,0-0.5,5.6-4.4,5.7c0,0-1.1-0.6-2.6-1.6l-0.3-0.4c0.7,0.3,1.4,0.5,2.1,0.5
	c1.2,0,2.3-0.6,2.7-1.6c0.4-0.7,0.8-1.5,1.1-2.2c0.2-0.4,0.3-0.9,0.4-1.4L1184.3,469.6z"/>
<path class="st20" d="M1182.6,479.8l-0.9-1l-2.9-3.4l-1.5-1.7c0.7,0.3,1.4,0.5,2.1,0.5c1.2,0,2.3-0.6,2.7-1.6
	c0.4-0.7,0.8-1.5,1.1-2.2c0.5-1.2,0.5-1.9,0.3-2.1c-0.2-0.2,1.1,0.8,1.7,1.4l0,0l0.3,0.2l0.1,0.2l1.5,2.7c0,0,0,0.1,0,0.1
	C1187.2,473.6,1187.7,479,1182.6,479.8z"/>
<path class="st18" d="M1213,598.5c0,0-4.3,2.5-6.4,2.2c-1.5-0.2-3,0.1-4.3,0.6c-1.5,1.5-3.3,2.6-5.4,3.2c-3.5,1.1-8.3,0.6-11-0.2
	c-1.3-0.4-1.4-0.9-0.8-1.5c0.6-0.6,2.3-1.5,4.1-2.5c3.5-1.9,7.3-5.6,7.3-5.6c0-0.5,0.3-1,0.7-1.3c0.4-0.3,0.7-0.6,1-1
	c0.5-0.6,1.1-1.2,1.1-1.2l12.6,0.4c0,0,0.2,0.8,0.4,1.7c0.1,0.5,0.2,1.1,0.2,1.7c-0.1,0.4,0.1,0.8,0.4,1.2l0.2,1.9L1213,598.5z"/>
<path class="st18" d="M1239.3,601.7c-0.1,0.6-0.3,1.5-0.4,2c0,0.2,0,0.3,0,0.3s-1,2-6.7,2.8s-5.6-1.7-5.6-1.7l0.1-0.7
	c0.1-1.1,0.3-3.1,0.5-3.6c0.2-0.6-0.1-3.2-0.1-3.2l-0.1-2.8l0-1.9l9.3-0.9c0.1,0.6,0.2,1.3,0.3,1.9c0.1,0.4,0.2,0.7,0.4,1
	c0.5,0.5,0.8,2.8,0.8,2.8S1239.5,601,1239.3,601.7z"/>
<path class="st12" d="M1211.8,591.5c0,0,0.2,0.8,0.4,1.7c-1.4,0.2-7.3,1.2-8.8,0.5c-1.7-0.7-5.3-1.2-5.3-1.2l0.1-0.2
	c0.5-0.6,1.1-1.2,1.1-1.2L1211.8,591.5z"/>
<path class="st12" d="M1236.5,593.9c-2.4-0.4-7.6,0.5-9.6,0.9l0-1.9l9.3-0.9C1236.2,592.7,1236.3,593.3,1236.5,593.9z"/>
<path class="st15" d="M1241.8,524l-0.2,6.5c0,0,0.3,9.9-0.5,11.5c-0.8,1.5-0.8,7.9-0.8,7.9s0.5,3,0,3.6c-0.6,0.7-0.2,3,0.3,4.3
	c0.4,1.2,0,4.3,0,4.3l-0.1,17.4c0,0-0.5,4.5-1.3,5.2c-0.4,0.4-0.6,1-0.4,1.5c0,0-0.6,2.6-0.5,3c0.2,0.5,0.5,1.5-0.7,2
	c-1.2,0.5-0.9,2.1-0.9,2.1c-2.8-0.6-10.7,1-10.7,1c-0.9-1.6-1.6-3.3-2.2-4.9c-0.5-1.3,0.2-2.8,1.7-3.3c0.1,0,0.2-0.1,0.4-0.1
	c1.1-0.1-0.8-1.8-0.8-1.8s0.2-0.2-0.3-1.9s0.1-5.9,0.3-7c0.2-1.1,0.9-6.5,0.9-6.5s-0.4-6.8-0.1-7.1c0.3-0.3,1.3-3,0.8-3.8
	s-1.3-6.6-1.3-7s-0.7-7.8-0.7-7.8s-0.6-5.2-0.5-6.3s-0.4-5.2-0.4-5.2c0-3.4-2.2-7.1-2.2-7.1l-0.1,0.1l-4.7,11.3c0,0-0.8,3.4-1.4,5.4
	c-0.4,1.3-0.7,2.6-1,4l0,0.2l0,0.3l0,0.2l0,0c0,0,0.4,2.4-0.2,3.2c-0.6,1.2-1,2.5-1.2,3.8c0,0.6,0,3.1,0,3.1s0.2,4.9-0.4,5.5
	c-0.3,0.2-0.4,0.7-0.3,1c0,0,0.9,3.7,0.5,4.7c-0.4,1-0.1,3.2-0.1,3.2s-0.8,7.2-0.9,7.5s-0.7,3.2,0,3.5c0.6,0.2,1.8,1.6,1.8,1.6
	s0.3,6-0.7,6.5c-0.9,0.5-0.4,2.8-0.4,2.8s-7.4,1.3-9,0.6c-1.7-0.7-5.3-1.2-5.3-1.2l0.5-1.5c0,0.1-0.4,0.5-0.6-1.3
	c-0.3-2,1.9-1,1.9-1s1.7,0.4-1-2c-2.7-2.4-1.4-4.8-1.2-4.8s0.5-3.6,0.5-3.6c0.3-1.2,0.3-2.5,0.1-3.8c-0.4-1.7-0.7-6.8-0.7-6.8
	s0.3-3.9-0.2-5.4c-0.5-1.4,0.3-4,0.5-4.6s-0.5-6.1-0.5-6.1c0.3-1.5,0.4-3,0.2-4.5c-0.3-1.9,0.3-8.9,0.3-8.9l0.9-8
	c0,0,0.7-2.5,0.5-3.5c-0.1-1,0.8-4.6,0.8-4.6c0-0.8,0.1-1.5,0.4-2.2c0.5-0.9,0.7-4,0.7-4l4.9-10.1l2.4-9l32.3-0.3
	c0,0,0.1,0.8,0.3,2.2c0.2,1.4,0.5,3.5,0.8,6.1c0.3,2.3,0.6,5.1,0.9,8.2C1243.8,522.2,1241.8,524,1241.8,524z"/>
<path class="st19" d="M1238.7,443.2l-7.5,7.3c0,0-9.7-3.5-8.6-4.7c0.4-0.5,0.3-1.9,0.1-3.5c-0.4-2.6-1.1-5.5-1.1-5.5
	s16.9-2.5,15.4,0.1c-0.5,1-0.5,2.1-0.1,3.1C1237.3,441.1,1238,442.2,1238.7,443.2z"/>
<path class="st12" d="M1237,436.8c-0.5,0.9-0.8,1-0.4,2.1c-2.2,2.1-5,4.5-8.5,4.5c-1.9,0-3.7-0.4-5.4-1.1c-0.4-2.6-1.1-5.5-1.1-5.5
	S1238.5,434.2,1237,436.8z"/>
<path class="st19" d="M1240.2,432.1c0,6.1-5.4,11-12.1,11c-6.7,0-12.1-4.9-12.1-11c0-0.1,0-0.1,0-0.2c0-6.1,5.5-10.9,12.2-10.9
	C1234.8,421.1,1240.2,426,1240.2,432.1L1240.2,432.1L1240.2,432.1z"/>
<path class="st12" d="M1241.9,504.6c-1.6,0-6.9,0-12.9,0.1h-0.1l-2,0h-0.1c-7.1,0.1-14-1.2-16.8-0.9c-5.9,0.5,2.1-5,2.1-5
	c4.4,1,9,1.4,13.5,1.2l1.7-0.1c5.4-0.3,10.8-0.7,13.7-1.5C1241.3,499.9,1241.6,502,1241.9,504.6z"/>
<path class="st21" d="M1241.9,504.3c-1.6,0-6.9,0.1-12.9,0.1h-0.1l-2,0h-0.1c-7.1,0.1-14-1.2-16.8-0.9c-5.9,0.5,2.1-5,2.1-5
	c4.4,1,9,1.4,13.5,1.2l1.7-0.1c5.4-0.3,10.8-0.7,13.7-1.5C1241.3,499.6,1241.6,501.7,1241.9,504.3z"/>
<path class="st12" d="M1224.8,446.2l-9.3,4l-7.2,50.7c0,0,4.3-1.8,6.7-0.6c2.4,1.1,10,0.1,10,0.1s5.5-0.3,6.3,0.3
	c0.8,0.6,10.4-2.3,10.4-2.3s1.7-3.5,0.4-4.1c-1.3-0.6,0.4-6,0.4-6l-0.8-36.5l-1.6-4.7l-4.4-2.4l-4.5,3.2l-2.1,0.3L1224.8,446.2z"/>
<path class="st20" d="M1224.8,445.7l-9.3,4l-7.2,50.7c0,0,4.3-1.8,6.7-0.6c2.4,1.1,10,0.1,10,0.1s5.5-0.3,6.3,0.3
	c0.8,0.6,10.4-2.3,10.4-2.3s1.7-3.5,0.4-4.1c-1.3-0.6,0.4-6,0.4-6l-0.8-36.5l-1.6-4.7l-4.4-2.4l-4.5,3.2l-2.1,0.3L1224.8,445.7z"/>
<path class="st12" d="M1224.7,448c0,0,2.7,2.9,2.6,3.5c0,0.6-0.2,2-0.2,2l-2,3.7c0,0-1.1,4.7-1.1,5.6s-1.8,9.4-1.8,9.4l-2.2,12.9
	l-2.7,16.9l2.7,4.3l3.3-2.5l4.3-30.2l0.9-6c0,0,1-10.7,1-11.8c-0.1-1.3-0.3-2.7-0.5-4c0,0,0.7-2.8,3.4-3.4c2.7-0.6-0.2-0.1-0.2-0.1
	l-1.6-1.2l-1.4,0.5C1229.3,447.8,1225.5,446.7,1224.7,448z"/>
<path class="st2" d="M1224.4,447.7c0,0,2.7,2.9,2.6,3.5c0,0.6-0.2,2-0.2,2l-2,3.7c0,0-1.1,4.7-1.1,5.6s-1.8,9.4-1.8,9.4l-2.1,12.9
	l-2.7,16.9l2.7,4.3l3.3-2.5l4.3-30.2l0.9-6c0,0,1-10.7,1-11.8c-0.1-1.3-0.3-2.7-0.5-4c0,0,0.7-2.8,3.4-3.4c2.7-0.6-0.2-0.1-0.2-0.1
	l-1.6-1.2l-1.4,0.5C1229,447.5,1225.2,446.5,1224.4,447.7z"/>
<path class="st12" d="M1222.6,442.9c0,0-0.4,0.3-0.5,2.1c-0.1,1.8-1.5,6-1.5,6s5.3-3.3,7.9-3L1222.6,442.9z"/>
<path class="st20" d="M1222.6,442.4c0,0-0.4,0.3-0.5,2.1c-0.1,1.8-1.5,6-1.5,6s5.3-3.3,7.9-3L1222.6,442.4z"/>
<path class="st12" d="M1237,441.4l-8.3,6.6c0,0,7,3.8,7.9,4.7s1.8-9,1.8-9L1237,441.4z"/>
<path class="st20" d="M1237.3,440.9l-8.3,6.6c0,0,7,3.8,7.9,4.7s1.8-9,1.8-9L1237.3,440.9z"/>
<path class="st12" d="M1222.9,442.9c0,0-0.9-0.4-1.8,0.8c-0.6,0.8-1.5,1.4-2.5,1.7c0,0-9.3,1.3-9.6,2.4l-4.3,0.2
	c0,0-1.5,0.2-1.6,3.1c-0.1,2.9-1,3.2-1,3.2s-1.8,2.9-1.6,4.3c0,0.9-0.5,1.8-1.4,2.2l6.4,15c0,0,0.2,6.2-1,8.4s-3.4,12.3-3.4,12.3
	s0.9-0.2,0.9,0.4s-1.1,6.6-1.1,6.6s-0.3,2.4-0.8,3.2c-0.5,0.8-0.5,5.2-0.5,5.2l-0.8,3.1c0,0,1.9,3.9,4.9,3.4c2.9-0.6,8.3-11,8.3-11
	l3.4-11.3l2.6-11.2l0.8-7.6l1.2-16.8l1.8-11.1C1221.7,449.6,1223.6,443.7,1222.9,442.9z"/>
<path class="st22" d="M1222.6,442.4c0,0-0.9-0.4-1.8,0.8c-0.6,0.8-1.5,1.4-2.5,1.7c0,0-9.3,1.3-9.6,2.4l-4.3,0.2
	c0,0-1.5,0.2-1.7,3.1c-0.2,2.9-1,3.2-1,3.2s-1.8,2.9-1.6,4.3c0,0.9-0.5,1.8-1.4,2.2l6.4,15c0,0,0.2,6.2-1,8.4
	c-1.2,2.3-3.4,12.3-3.4,12.3s0.9-0.2,0.9,0.4s-1.1,6.6-1.1,6.6s-0.3,2.4-0.8,3.2c-0.5,0.8-0.5,5.2-0.5,5.2l-0.8,3.1
	c0,0,1.9,3.9,4.9,3.4c2.9-0.6,8.3-11,8.3-11l3.4-11.3l2.6-11.2l0.7-7.6l1.2-16.8l1.8-11.1C1221.3,449.1,1223.3,443.1,1222.6,442.4z"
	/>
<path class="st12" d="M1190,478.1l-2.9,1.8c0,0-4.5,0.1-7.7-0.6l-1.6-0.7l-0.3-0.1l0.3,0.1c1.3,0.4,2.7,0.5,4.1,0.1
	c4.2-1.3,3.7-7.5,3.5-8.9c0-0.1,0-0.2,0-0.3l0,0v0c0.1,0.1,0.1,0.2,0.2,0.2l0.2,0.2l0,0l1.5,2.7c0,0,0,0.1,0,0.1L1190,478.1z"/>
<path class="st22" d="M1200.2,460l-1.4,0.4l-0.2,2.6c0,0-1.6-0.2-2.1,1.6c-0.2,1-0.6,1.9-1.3,2.6c0,0-2.8,2.1-2.9,3.9l-1.7,1
	c0,0-4-0.8-4.9-2.3c0,0,1.8,11.9-7.9,9c0,0,10.9,4.3,11.4,4.9c0.5,0.6,3.8,2.4,6.9,0.9c3.1-1.5,3.7-3.7,3.7-3.7s2.9-3.7,3-4.3
	c0.1-0.6,2.4-1.2,2.4-1.2l4.4-9.6L1200.2,460z"/>
<path class="st12" d="M1235.9,447l1.5-6.1c0,0,0.7,2,1.3,2.4l2.2,1.5c0,0,2.2,0.9,2.9,0.9c0.8,0,4.9,1,5.4,1.5
	c0.5,0.5,2.5,0.1,2.5,0.1s1.7,0.5,3.2,0.8c1.5,0.3,2.2,2.5,1.9,3.4c-0.2,0.9,0,1.8,0.7,2.5c0.6,0.6,0.9,2.4,0.9,2.4
	c0.7,0.2,1.4,0.7,1.7,1.3c0.5,1,0.4,3.2,0.4,3.2l-7.6,9.7c0,0,0.1,3.7-0.2,4.6c-0.3,0.8,1.1,15,1.1,15l1.6,24.3
	c-0.8,0.6-1.7,1.2-2.5,1.8c-0.5,0.2-0.9-8.6-0.9-8.9c0-0.3-11.7-15.9-11.7-15.9s-1.6-2.3-1.6-2.8s-1.5-5.2-1.5-5.2l-2.2-9
	L1235.9,447z"/>
<path class="st22" d="M1261.1,460.5c0,0.3,0,0.5,0,0.5l-7.6,9.7l0,0c0,0,0.1,3.7-0.2,4.6c-0.2,0.5,0.2,5.4,0.5,9.5
	c0.3,2.9,0.5,5.4,0.5,5.4l0.7,10.3l0.9,14c-0.8,0.6-1.7,1.2-2.5,1.8c-0.5,0.2-0.9-8.6-0.9-8.9s-11.7-15.9-11.7-15.9
	s-1.6-2.3-1.6-2.8c0-0.5-1.5-5.2-1.5-5.2l-2.2-9l1-27.5l0.9-6.1c0,0,1.3,2,1.9,2.4l2.2,1.5c0,0,2.2,0.9,2.9,0.9c0.8,0,4.9,1,5.4,1.5
	c0.5,0.5,2.5,0.1,2.5,0.1s1.7,0.5,3.2,0.8c1.5,0.3,2.2,2.5,1.9,3.4c-0.2,0.9,0,1.8,0.7,2.5c0.6,0.6,0.9,2.4,0.9,2.4
	c0.7,0.2,1.4,0.7,1.7,1.3C1261,458.7,1261.2,459.6,1261.1,460.5z"/>
<path class="st12" d="M1198.9,583.4c0.3,0,10.9,0.4,10.7,1.9S1198.9,583.4,1198.9,583.4z"/>
<path class="st12" d="M1201.3,586c0,0,7.2,1.1,5.3,2C1204.7,589,1201.3,586,1201.3,586z"/>
<path class="st12" d="M1228,582.4c0,0,11.9,0.9,10.1,2.1s-6,1.4-6.2,1.4C1231.7,586,1228,582.4,1228,582.4z"/>
<path class="st12" d="M1226.6,587.2c0,0,6.6,1,6.8,2.2C1233.6,590.5,1226.6,587.2,1226.6,587.2z"/>
<path class="st12" d="M1230.2,559.4c0,0,6,1.3,6.4,2.2L1230.2,559.4z"/>
<path class="st12" d="M1206.9,563.4c0,0-3.2,0.8-0.1,2.5C1209.8,567.5,1206.9,563.4,1206.9,563.4z"/>
<path class="st12" d="M1220.9,519c0.4,0,5.9-1.7,7.8-0.9c1.4,0.5,2.8,0.7,4.3,0.7L1220.9,519z"/>
<path class="st12" d="M1221.6,524.3l-0.1,0.5l-4.7,11.3c0,0-0.8,3.4-1.4,5.4c-0.4,1.3-0.7,2.6-1,4l4.2-23.6L1221.6,524.3z"/>
<path class="st23" d="M1229,504.4l-2,0h-0.1l-1.2-4.7l1.7-0.1L1229,504.4z"/>
<path class="st19" d="M1252.9,498.8l-1.3,0.9l-4.2,3.2c0,0-11.4,5.5-14.6,0.3c-2.8-4.6,10.2-7.9,13.3-8.7l0.7-0.1L1252.9,498.8z"/>
<path class="st12" d="M1204.1,453.4c0,0,2.2,0.9,2.7,2.2C1207.3,456.9,1204.1,453.4,1204.1,453.4z"/>
<path class="st12" d="M1197.2,467.3c0,0-3.3,3.6-1.9,5C1196.6,473.6,1197.2,467.3,1197.2,467.3z"/>
<path class="st12" d="M1255.3,455.5c0,0-3,0.3-3.2,2.7L1255.3,455.5z"/>
<path class="st12" d="M1227.1,493.3c0.3-0.3,7.3-9.7,9-8.9L1227.1,493.3z"/>
<path class="st12" d="M1240.2,432.1c0,1.8-0.5,3.6-1.4,5.2h-0.1c-0.8-0.1-1.2-1-1.8-1.5c-0.7-0.6-1.8-0.8-2.7-0.3
	c-0.9,0.5-1.4,1.4-1.4,2.4c-0.4-1.5-0.3-3.1-0.6-4.5c-0.4-1.5-1.5-3-3.1-3c-0.7,0-1.5,0.2-1.9-0.2c-0.3-0.3-0.4-0.7-0.5-1
	c-1.1-1.6-4.5-0.8-5.9,0c-1.4,0.8-3,2.2-4.7,2.9c0-6.1,5.5-10.9,12.2-10.9C1234.9,421.1,1240.3,426.1,1240.2,432.1L1240.2,432.1z"/>
<path class="st24" d="M1226.6,428.7c0.2,0.3,0.3,0.8,0.5,1c0.5,0.5,1.3,0.2,1.9,0.2c1.6,0,2.7,1.5,3.1,3s0.3,3.1,0.6,4.5
	c-0.1-1,0.4-1.9,1.3-2.4c0.9-0.4,2-0.3,2.7,0.3c0.6,0.5,1,1.3,1.8,1.5c0.8,0.1,1.5-0.5,1.8-1.3c0.2-0.8,0.3-1.5,0.4-2.3
	c0.3-1.4,1.4-2.6,2-4c0.7-1.7,0.7-3.5,0-5.2c-0.4-0.9-1-1.6-1.3-2.5c-0.6-1.3-0.7-2.8-1.5-4c-1.2-2.1-3.9-3.1-6.3-2.4
	c-1.1,0.4-2.1,1.1-3.2,1.4c-1.5,0.4-3.1,0.1-4.7-0.1c-1.6-0.2-3.3-0.2-4.5,0.7c-1.4,1.1-1.8,3.1-3.2,4.3c-0.5,0.5-1.3,0.8-1.9,1.3
	c-0.7,0.4-1,1.1-1,1.9c0.1,1,1.1,1.8,0.7,2.7c-0.1,0.3-0.3,0.5-0.5,0.7c-1.1,1.1-2,2.4-2.5,3.8c2.7,0.8,5.7-2,7.8-3.2
	C1222.1,427.9,1225.5,427.1,1226.6,428.7z"/>
<path class="st12" d="M1252.9,498.8l-1.3,0.9c-1.1-1.7-5.7-5.1-5.7-5.1l0.2-0.2l0.7-0.1L1252.9,498.8z"/>
<path class="st20" d="M1254.2,497.1c0,0-0.5,1-0.9,1.9c-0.5,0.9-1,1.7-1,1c-0.1-1.3-5.9-5.6-5.9-5.6l0.8-0.7l0.9-0.8L1254.2,497.1z"
	/>
<path class="st12" d="M1254.4,490.2l0.7,10.3c-1.6-2.2-5.9-7.9-8.7-7.8l6.8-7.1c0.3-0.3,0.5-0.6,0.8-0.9
	C1254.1,487.8,1254.4,490.2,1254.4,490.2z"/>
<path class="st12" d="M1254.2,497.1c0,0-0.5,1-0.9,1.9c-1.8-2.2-4.2-4.8-6.2-5.3l0.9-0.8L1254.2,497.1z"/>
<path class="st22" d="M1259.2,459.7l1.8,1.3c0,0,3.1,0,3.4,2.4c0.3,2.3,3.1,3.4,3.1,3.4s2.1,1.9,2.1,2.8c0,0.9,1.6,2.4,1.6,2.6
	c0,0.1,1.5,3,1.3,3.5c-0.2,0.5,1.6,2.7,1.1,3.6c-0.5,0.7-0.9,1.5-1.2,2.3c0,0-2.4,4.2-3.6,4.9c-1.2,0.8-6.8,7.4-6.8,7.4
	s-6,6.3-6,8.2c0,0-5.8-8.9-9.3-8.6l6.8-7.1c0,0,1.2-1.2,1.2-1.8c0.1-0.7,3.3-3.9,4.8-4c0,0,0.3-1.9-0.4-1.9c-0.7,0-1.2-1.5-1.2-1.5
	s-4.5-4.8-4.5-7.8C1253.2,466.1,1259.2,459.7,1259.2,459.7z"/>
<path class="st12" d="M1261.9,464.1c0,0-4.3,2.9-3.4,3.8C1259.5,468.8,1261.9,464.1,1261.9,464.1z"/>
<path class="st12" d="M1262.1,475.9c0,0,7.9-2.3,8.7,0H1262.1z"/>
<path class="st12" d="M1213,598.5c0,0-4.3,2.5-6.4,2.2c-1.5-0.2-3,0.1-4.3,0.6c-1.5,1.5-3.3,2.6-5.4,3.2c-3.5,1.1-8.3,0.6-11-0.2
	c-1.3-0.4-1.4-0.9-0.8-1.5c3,0.5,9.7,1.6,11.5,0.8c2-1,3.9-2,5.7-3.2c0,0,4.4-0.6,5-0.6c0.4,0,3.8-1.3,5.7-2L1213,598.5z"/>
<path class="st12" d="M1238.9,603.7c0,0.2,0,0.3,0,0.3s-1,2-6.7,2.8s-5.6-1.7-5.6-1.7l0.1-0.7C1228.4,605,1232.3,605.7,1238.9,603.7
	z"/>
<path class="st12" d="M1206.2,463.6c0,0,0,10.5-1,11.6C1204.2,476.2,1206.2,463.6,1206.2,463.6z"/>
<path class="st12" d="M1252,467l1.5,3.8C1253.5,470.7,1254.1,467,1252,467z"/>
<g class="st25">
	<path d="M1216.1,426.6c0.4-0.9-0.6-1.7-0.7-2.6c-0.1,0.3-0.2,0.5-0.2,0.8c0.1,0.7,0.6,1.4,0.8,2
		C1216,426.8,1216,426.7,1216.1,426.6z"/>
	<path d="M1232.9,436.6c-0.4-1.5-0.3-3-0.6-4.5c-0.4-1.5-1.5-3-3.1-3c-0.7,0-1.5,0.2-1.9-0.2c-0.3-0.3-0.4-0.7-0.5-1
		c-1.1-1.6-4.5-0.8-5.9,0c-2.1,1.3-4.9,3.9-7.6,3.3c-0.1,0.3-0.2,0.6-0.3,0.9c2.7,0.8,5.7-2,7.8-3.2c1.4-0.8,4.8-1.7,5.9,0
		c0.2,0.3,0.3,0.8,0.5,1c0.5,0.5,1.3,0.2,1.9,0.2c1.6,0,2.7,1.5,3.1,3s0.3,3.1,0.6,4.5C1232.8,437.2,1232.8,436.9,1232.9,436.6z"/>
	<path d="M1240.6,434.8c-0.3,0.7-1,1.4-1.8,1.3c-0.8-0.1-1.2-1-1.7-1.5c-0.7-0.6-1.8-0.8-2.7-0.3c-0.9,0.5-1.4,1.3-1.4,2.2
		c0.2-0.6,0.6-1,1.2-1.3c0.9-0.4,2-0.3,2.7,0.3c0.6,0.5,1,1.3,1.8,1.5c0.8,0.1,1.5-0.5,1.8-1.3c0.1-0.4,0.2-0.9,0.3-1.3
		C1240.7,434.6,1240.6,434.7,1240.6,434.8z"/>
	<path d="M1243,428.6c-0.5,1.4-1.6,2.5-2,4c-0.1,0.3-0.1,0.6-0.1,0.9c0.4-1.4,1.4-2.6,1.9-4c0.3-0.6,0.4-1.3,0.5-1.9
		C1243.2,427.9,1243.1,428.2,1243,428.6z"/>
</g>
<ellipse class="st26" cx="1169.5" cy="461.8" rx="0.1" ry="0.1"/>
<path class="st7" d="M1125.7,464.4h92.2c2,0,3.6,1.5,3.6,3.3v97.2c0,1.8-1.6,3.3-3.6,3.3h-92.2c-2,0-3.6-1.5-3.6-3.3v-97.2
	C1122.1,465.9,1123.7,464.4,1125.7,464.4z"/>
<path class="st27" d="M1125.7,464.4h92.2c2,0,3.6,1.5,3.6,3.3v97.2c0,1.8-1.6,3.3-3.6,3.3h-92.2c-2,0-3.6-1.5-3.6-3.3v-97.2
	C1122.1,465.9,1123.7,464.4,1125.7,464.4z"/>
<path class="st7" d="M1130.8,469.7h82.1c2,0,3.6,1.5,3.6,3.3v86.6c0,1.8-1.6,3.3-3.6,3.3h-82.1c-2,0-3.6-1.5-3.6-3.3V473
	C1127.1,471.2,1128.8,469.7,1130.8,469.7z"/>
<path class="st2" d="M1143.5,488.4h54.7c1.8,0,3.3,1.3,3.3,3v13.2c0,1.7-1.5,3-3.3,3h-54.7c-1.8,0-3.3-1.3-3.3-3v-13.2
	C1140.1,489.7,1141.6,488.4,1143.5,488.4z"/>
<rect x="1142.4" y="514.6" class="st2" width="56.8" height="3.9"/>
<rect x="1132.7" y="522.9" class="st2" width="78.2" height="3.9"/>
<rect x="1132.7" y="531.6" class="st2" width="78.2" height="3.9"/>
<rect x="1132.7" y="540.3" class="st2" width="78.2" height="3.9"/>
<path class="st7" d="M659.4,430.1h227c2,0,3.6,1.5,3.6,3.3v97.2c0,1.8-1.6,3.3-3.6,3.3h-227c-2,0-3.6-1.5-3.6-3.3v-97.2
	C655.8,431.6,657.4,430.1,659.4,430.1z"/>
<path class="st27" d="M659.4,430.1h227c2,0,3.6,1.5,3.6,3.3v97.2c0,1.8-1.6,3.3-3.6,3.3h-227c-2,0-3.6-1.5-3.6-3.3v-97.2
	C655.8,431.6,657.4,430.1,659.4,430.1z"/>
<path class="st7" d="M671.3,435.4h203.1c2,0,3.6,1.5,3.6,3.3v86.6c0,1.8-1.6,3.3-3.6,3.3H671.3c-2,0-3.6-1.5-3.6-3.3v-86.6
	C667.7,436.9,669.3,435.4,671.3,435.4z"/>
<path class="st2" d="M701.6,454.1h137.7c1.8,0,3.3,1.3,3.3,3v13.2c0,1.7-1.5,3-3.3,3H701.6c-1.8,0-3.3-1.3-3.3-3v-13.2
	C698.3,455.4,699.8,454.1,701.6,454.1z"/>
<rect x="703.6" y="480.3" class="st2" width="133.7" height="3.9"/>
<rect x="680.9" y="488.6" class="st2" width="184" height="3.9"/>
<rect x="680.9" y="497.3" class="st2" width="184" height="3.9"/>
<rect x="680.9" y="506" class="st2" width="184" height="3.9"/>
<linearGradient id="SVGID_3_" gradientUnits="userSpaceOnUse" x1="257.6637" y1="145.5074" x2="257.6637" y2="337.3141" gradientTransform="matrix(-1 -4.000000e-02 4.000000e-02 -1 1014.5882 769.8972)">
	<stop  offset="0" style="stop-color:#808080;stop-opacity:0.25"/>
	<stop  offset="0.54" style="stop-color:#808080;stop-opacity:0.12"/>
	<stop  offset="1" style="stop-color:#808080;stop-opacity:0.1"/>
</linearGradient>
<path class="st28" d="M713,608.6c0.7-2.2,1.1-4.1,1.1-4.1c0-1.4,0.4-2.9,1.2-4.1v-0.6l0,0l0.2-4.4c-0.3-0.8-0.7-1.6-1.1-2.3
	c-0.8-1.4,0.3-6.4,0.3-6.4s3.5-7,2.9-11.6c-0.6-4.6,7.5-19.9,7.5-19.9c0-1.5-0.1-3-0.5-4.5c-0.1-0.3-0.1-0.6-0.1-0.9
	c0,0,0-0.1,0-0.1v0c0.2-3,3.1-8.5,3.1-8.5l0.1-10.7c0,0-1.4-6.3,1.6-14.7c1.1-2.9,1.8-5.2,2.2-7c0.1-0.2,0.1-0.4,0.1-0.6
	c-5.5-1-9.8-1.8-9.8-1.8s3.8-12.2,6-14.2c2.3-2.1,4.3-8.8,4.3-8.8s1.5-8.6-0.2-11.2s-1.8-7-1.8-7s-4.1-2.9-4.5-4.1
	c-0.5-1.2-1.2-4-1.2-5.5c0.1-1.4,0.6-2.7,0.5-3.5c-0.1-0.8,1.4-3.6,0.7-5c-0.2-0.4-0.2-0.9-0.2-1.3c0,0,0,0,0,0l0,0
	c0-1.2,0.2-2.4,0.5-3.6c1.2-0.9,2.7-1.5,4.2-1.9l0.1-0.3l0.3-0.9c0.1-0.1,0.3-0.1,0.4-0.2l0-0.3l0.1-1.2l-0.5-2.8
	c-1.1-4.9,6.1-5.4,6.1-5.4c0.5-0.7,1.2-1.3,2.1-1.5c1.5-0.4-0.1,7.3-0.8,7.8c-0.5,0.4-2.2,2.7-3,3.9l0,0l-0.1,0.2
	c0.1,0.1,0.2,0.2,0.3,0.3l-0.3,1.7l-0.1,0.3c0.5,0.6,0.8,1.2,1.1,1.8c0,0-1.4,1.3-1.2,2.7c0.1,1.1-0.1,2.3-0.5,3.4
	c0.1-0.1,1-0.9,1.9-0.7c0.9,0.2,3.4,1,3.4,1s1.9,0.4,1.7,0.8c-0.2,0.4,1.2,2.1,1.2,2.1l5.3-4.3c0.1-0.1,0.1-0.3,0.2-0.4
	c0.2-0.6,0.4-1.3,0.5-1.9c-0.6-0.1-1.1-0.3-1.6-0.5c-0.5-0.2-1-0.5-1.4-0.9c-0.5-0.6-0.5-1.3-0.7-2c-0.4-1.4-1.2-2.6-1.8-3.9
	c-1-2.2-1.2-4.6-0.7-7c0.1-0.7,0.4-1.4,0.9-2c0.9-1,2.4-1.4,3.6-2.2c1.1-0.8,1.9-2.1,3.2-2.6c1.2-0.5,2.6-0.4,3.9-0.2
	c2.5,0.5,5,1.4,7.2,2.6c0.7,0.4,1.5,0.9,2.4,0.8c0.7-0.2,1.4-0.6,1.8-1.1c0,0,0,0,0-0.1l0.1-0.1c0.5,1.1,0.7,2.3,0.6,3.5
	c0,0.2,0,0.4,0,0.6c0,0.1,0,0.1,0,0.2c0,0.1,0,0.1,0,0.2l0,0c0,0.1,0,0.2,0,0.2c0.1,0.2,0.3,0.5,0.5,0.7c0.1,0.2,0.3,0.3,0.4,0.5
	c0-0.1,0-0.1-0.1-0.2c0.3,0.4,0.5,1,0.5,1.5c0,0.4-0.1,0.8-0.4,1c-0.3,0.2-0.6,0.4-0.9,0.6c0.6,3.7-1.5,7.3-5.1,9.1
	c-0.1,0.1-0.1,0.3-0.2,0.4c-0.8,1.6-1.2,3.3-1.2,5.1c0,0.1,0,0.2,0,0.4s0.1,0.1,0.2,0.2l0,0c0,0,8.5,0.4,10.6-1.2
	c2.1-1.6,4.9,4.2,4.9,4.2s3,0.6,3.7,0.1c0.6-0.5,4.2,0.1,4.2,0.1c1.5-1.1,3.4-1.7,5.4-1.6c1.2-0.8,2.6-1.4,4-1.8l0,0l0.1,0l0,0
	c0.6-0.2,1.3-0.2,1.9-0.2c0,0,4.3-3,5.6-4.6c1.3-1.6,7.3-7.7,7.3-7.7l0-0.3l0.1-0.9c0.2,0,0.3,0.1,0.5,0.1l0.1-0.3
	c0.4-0.9,0.8-1.7,1.3-2.5c0,0,0-1.2-0.3-1.5c-0.4-0.3,0.3-4.5,0.3-4.5s4.1-7.9,7.2-1.8c0,0,6.2,4.1,0.7,8.4c0,0-2.2,0.9-2.5,1.6
	c-0.2,0.5-1,1.8-1.5,2.7l-0.2,0.4l0.1,0l-0.1,0.7l0,0.3c1,0.6,1.6,1.1,1.5,1.5c-0.3,0.7-0.6,1.3-0.7,2c0,0-7.8,8.1-8.9,11.7
	c0,0-20.4,10-26.9,10.6l0.9,5.4c0.1,1.5,0.1,2.9,0.1,4.4c-0.1,1.1,0.5,6.4,0.5,6.4s0.8,7.7,1.7,8.8c0.9,1.1,0.5,5.7,0.5,5.7
	c0.1,2.2,0.5,4.4,1,6.6c0.8,2.9,0,6.5,0,6.5s3,7-4.7,2.1c0,0-3.9-0.4-8.4-0.6c0,0.1,0,0.3,0,0.4c0,0.5,0,1.1,0,1.7
	c-0.1,4-0.3,9.4-0.7,13.5c-0.7,7.3-3.7,21.6-3.7,21.6l-0.3,7.2c0.1,0.7,0.2,1.4,0.1,2.1c-0.1,2.6-0.9,5-2.5,7.2l-0.8,4.8
	c0,0-1.6,3.1-1.7,5c0,0.2,0,0.3,0,0.5c0,0.2,0.1,0.5,0,0.7c0,2.2-1.7,7.4-1.7,7.4s-0.3,5.3-1.2,5.6c-0.8,0.2,0.9,3.1,1.4,3.9
	c0,0,0-0.1,0-0.1l0.1,0.2c0.2,0.4,0.2,0.9,0.2,1.4c0.1,0.7-0.3,1.5-1,1.8c-1.7,0.9-2.6,1.6-1.2,2c0.5,0.1,1,0.2,1.5,0.3l0.1-0.2
	c0.4,0.2,0.6,0.6,0.5,0.9c0,0.6-0.2,1.2-0.6,1.8c-0.7,1.4-1.5,2.6-2.5,3.8l-0.7-0.1c0.1,0.2,0.2,0.5,0.4,0.7c0.2,0.3,0.6,0.6,1,0.8
	c0.4,0.2,0.8,0.3,1.2,0.4c1,0.1,1.8,0.5,2.4,1.2c0.8,1.1,1.3,2.5-0.5,3.6l-6.3,1.7c0,0-10.8,0.9-10.1-1.3c0.7-2.2,1.1-4.1,1.1-4.1
	c0-1.3,0.4-2.7,1-3.8c0.1-0.2,0.3-0.4,0.4-0.6l-0.4,0c0,0-0.6-4.9-1.7-5.8c-0.2-0.2-0.3-0.4-0.2-0.5c-0.1-0.3,0.2-0.4,0.5-0.5
	c0,0.1,0,0.1,0.1,0.2c0.3-0.1,0.7-0.1,1-0.1c0,0,0.5-2.5-0.6-3.5c-0.2-0.2-0.2-0.5-0.2-0.8c0-0.3,0.1-0.7,0.2-1c0,0,0,0,0,0.1
	c0.7-2.3,2.7-5.9,2.7-5.9s0.2-2.3-0.5-3.2s0.6-12.5,0.6-12.5s0-5.6,0.9-8.2c0.9-2.6-0.7-5.7-0.7-5.7s0-0.1,0-0.2c0,0,0,0,0,0
	c0,0,0.1-0.3,0.1-0.9v0.1c0.2-1.5,0.7-4.1,1-5.4c0.4-1.7,0.3-10.2,0.3-10.2l-1.4-3.6l-3.1,6.1l-3.3,8.2c0,0-1.5,1.7-1.6,3.5
	c0,0.1,0,0.2,0,0.3c0,0.2,0,0.4,0,0.6c0,1-0.4,2.1-1,2.9c0,0-1,3.9-2.2,4.8s-1.3,2.9-1.3,2.9s-1.7,5.6-2.5,6.6
	c-0.6,0.8-0.8,3.1-0.8,3.8l0,0c0,0.1,0,0.2,0,0.2s-0.3,2-0.4,3.7c0,0.2,0,0.4,0,0.6c0,0,0,0,0,0c0,0.5,0,0.9,0.1,1.4
	c0,0,0,0.1,0,0.1v-0.3c0.3,1.2,0.4,2.4,0.3,3.5c0,2-0.5,4.4-1.9,5.8c-2.5,2.4-3.9,2-3.9,2s1,3.1,2.4,3.8c0.1,0,0.1,0.1,0.1,0.1
	c0-0.1,0-0.1,0-0.2c0.3,0.3,0.4,0.7,0.4,1.2c0,1.4-1,3.5-1.9,4.5c-0.3,0.3-0.8,0.5-1.2,0.6c0.1,0,0.1,0.1,0.2,0.1
	c0.2,0.1,0.3,0.2,0.5,0.2c0.2,0.1,0.5,0.2,0.7,0.2c1,0.1,1.8,0.5,2.4,1.2c0.8,1,1.3,2.5-0.5,3.6l-6.3,1.7
	C723.2,609.9,712.4,610.7,713,608.6z"/>
<path class="st29" d="M753.8,613.6l6.1-1.7c1.7-1.2,1.2-2.6,0.5-3.6c-0.6-0.7-1.4-1.1-2.3-1.2c-0.4-0.1-0.8-0.2-1.1-0.4
	c-0.4-0.2-0.7-0.5-0.9-0.8c-0.4-0.7-0.6-1.4-0.6-2.1c0,0-6.6-2-8.4-0.3c-0.3,0.3-0.6,0.7-0.8,1c-0.6,1.2-1,2.5-1,3.8
	c0,0-0.4,1.9-1.1,4.1C743.4,614.5,753.8,613.6,753.8,613.6z"/>
<path class="st29" d="M724.4,609.9l6.1-1.7c1.7-1.2,1.2-2.6,0.5-3.6c-0.6-0.7-1.4-1.1-2.4-1.2c-0.2,0-0.5-0.1-0.7-0.2
	c-0.2-0.1-0.3-0.1-0.5-0.2c-1.6-0.9-1.5-3-1.5-3s-6.6-2-8.4-0.3c-0.3,0.2-0.5,0.5-0.7,0.8c-0.8,1.3-1.2,2.7-1.2,4.1
	c0,0-0.4,1.9-1.1,4.1C714,610.8,724.4,609.9,724.4,609.9z"/>
<path class="st12" d="M747,603.4c-0.3,0.3-0.6,0.7-0.8,1l0,0l9.9,1.4c-0.4-0.7-0.6-1.4-0.6-2.1C755.4,603.7,748.9,601.7,747,603.4z"
	/>
<path class="st12" d="M716.9,600.4l-0.1,1.7c1.4,2.4,8.9,2.1,11.2,1c-0.2-0.1-0.3-0.1-0.5-0.2c-1.6-0.9-1.5-3-1.5-3s-6.6-2-8.4-0.3
	C717.3,599.9,717,600.1,716.9,600.4z"/>
<path class="st22" d="M716,593.1c0.4,0.8,0.8,1.5,1.1,2.3l-0.3,6.1c1.6,2.6,10.4,2.1,11.6,0.7s2.7-4.9,1.3-5.6
	c-1.3-0.7-2.3-3.8-2.3-3.8s1.4,0.4,3.8-2c2.4-2.4,1.9-7.8,1.6-9.2c-0.4-1.3,0.2-5.7,0.2-5.7s0-3.1,0.8-4s2.4-6.6,2.4-6.6
	s0.1-1.9,1.3-2.9s2.2-4.8,2.2-4.8c0.7-1,1.1-2.1,1-3.3c-0.2-1.9,1.6-3.9,1.6-3.9l3.2-8.2l3-6.1l1.4,3.7c0,0,0.1,8.4-0.3,10.2
	s-1.1,6.4-1.1,6.4s1.6,3.1,0.7,5.7c-0.9,2.6-0.9,8.2-0.9,8.2s-1.3,11.5-0.6,12.5c0.6,0.9,0.5,3.2,0.5,3.2s-3.7,6.6-2.7,7.6
	c1.1,1,0.6,3.5,0.6,3.5s-2.4-0.1-1.4,0.9s1.5,5.8,1.5,5.8l10.2,1.4c1-1.2,1.8-2.5,2.4-3.8c1.5-2.8-0.1-2.5-1.5-2.9
	c-1.3-0.4-0.5-1.1,1.2-2c1.6-0.9,0.8-3,0.8-3s-2.3-3.8-1.4-4.1c0.9-0.3,1.2-5.6,1.2-5.6s2-6.2,1.6-7.9c-0.4-1.7,1.6-5.7,1.6-5.7
	l0.8-4.8c1.9-2.7,2.7-5.9,2.2-9.1l0.3-7.4c0,0,3-14.3,3.7-21.6c0.4-4.7,0.6-11,0.7-15c0.1-2.2,0.1-3.7,0.1-3.7l-36.3-4.7
	c-0.1,1.7-0.4,3.3-0.9,4.9c-0.4,1.8-1.1,4.1-2.2,7.1c-3,8.3-1.6,14.7-1.6,14.7l-0.1,10.7c0,0-3.5,7-2.9,9.5c0.3,1.5,0.5,3,0.5,4.5
	c0,0-7.8,15.3-7.2,19.8c0.6,4.5-2.9,11.6-2.9,11.6S715.2,591.7,716,593.1z"/>
<path class="st30" d="M738.5,553.9l-11-1.7C727.5,552.2,733.5,558.2,738.5,553.9z"/>
<path class="st12" d="M729.5,542.4c0,0-0.5,3.5,1.8,5C731.3,547.4,727,546.6,729.5,542.4z"/>
<path class="st12" d="M730.7,531.1c0,0,9,7.3,12.4,6.8C746.5,537.4,730.7,531.1,730.7,531.1z"/>
<path class="st12" d="M752.2,557.6c0,0,7,1.7,7.1,4.3C759.4,564.5,752.2,557.6,752.2,557.6z"/>
<path class="st30" d="M749.3,589.5c0,0,9.9,2,7,3.1c-2.9,1.1-7.6,1.8-7.6,1.8S745.5,594.5,749.3,589.5z"/>
<g class="st31">
	<path d="M758.2,594.5c0.5-0.3,0.9-0.7,1-1.3l0.1,0.2c0,0,0.8,2.1-0.8,3c-0.2,0.1-0.4,0.2-0.5,0.3c-0.3-0.1-0.6-0.1-0.9-0.2
		C755.7,596.1,756.6,595.4,758.2,594.5z"/>
	<path d="M745.4,593.5c-0.3-0.2-0.2-0.8,0-1.6c0.4,0.7,0.5,1.5,0.5,2.2C745.8,593.9,745.6,593.7,745.4,593.5z"/>
	<path d="M748.5,555.4c0.3,0.9,0.5,1.9,0.5,2.8c-0.2-0.7-0.4-1.3-0.7-2C748.4,556.3,748.5,555.9,748.5,555.4z"/>
	<path d="M725.9,550.6c-0.1-0.3-0.1-0.6-0.1-0.8c0.1,0.6,0.2,1.1,0.2,1.6C726,551.1,726,550.8,725.9,550.6z"/>
	<path d="M747.6,582.6c-0.2-0.6-0.2-1.1-0.2-1.7c0.3,0.7,0.4,1.4,0.4,2.2C747.8,582.9,747.7,582.8,747.6,582.6z"/>
	<path d="M744.9,597c0.5,1.6,0.8,3.1,1,4.7l10.2,1.4c1-1.2,1.8-2.5,2.5-3.8c0.1-0.2,0.2-0.5,0.3-0.7c0.6,0.3,0.8,0.9-0.1,2.5
		c-0.7,1.4-1.5,2.6-2.4,3.8l-10.2-1.4c0,0-0.5-4.9-1.5-5.8C744.1,597.3,744.5,597.1,744.9,597z"/>
	<path d="M759,583.7c0,0-0.3,5.3-1.2,5.6l0,0c-0.4-0.9-0.6-1.7-0.3-1.9c0.9-0.3,1.2-5.6,1.2-5.6s2-6.2,1.6-7.9
		c-0.4-1.7,1.6-5.7,1.6-5.7l0.8-4.8c1.9-2.7,2.7-5.9,2.2-9.1l0.3-7.4c0,0,3-14.3,3.6-21.6c0.4-4.7,0.6-11,0.7-15c0-0.7,0-1.4,0-1.9
		l0.3,0c0,0,0,1.5-0.1,3.7c-0.1,4-0.3,10.3-0.7,15c-0.6,7.3-3.6,21.6-3.6,21.6l-0.3,7.4c0.5,3.2-0.3,6.4-2.2,9.1l-0.8,4.8
		c0,0-1.9,4-1.6,5.7C761,577.5,759,583.7,759,583.7z"/>
	<path d="M728.2,600.2c0.9-1.1,1.5-2.3,1.8-3.6c1,0.9-0.3,4.2-1.5,5.4s-10.1,1.9-11.6-0.7l0.1-1.5C719.1,602,727,601.4,728.2,600.2z
		"/>
	<path d="M715.7,591c0.4,0.8,0.8,1.5,1.1,2.3l0,1.1c-0.2-0.5-0.5-1.1-0.8-1.6C715.8,592.3,715.7,591.6,715.7,591L715.7,591z"/>
	<path d="M728,592.7c-0.3-0.6-0.6-1.2-0.8-1.8c0,0,1.4,0.4,3.8-2c1.7-1.7,2-5.1,1.8-7.3c0.4,1.3,0.8,6.8-1.6,9.2
		C729.7,592.2,728.6,592.6,728,592.7z"/>
	<path d="M733.1,575.8c-0.2,1.5-0.3,3-0.4,4.5c0-0.2-0.1-0.5-0.1-0.7c-0.4-1.3,0.2-5.7,0.2-5.7s0-3.1,0.8-4s2.4-6.6,2.4-6.6
		s0.1-1.9,1.3-2.9c1.2-1,2.2-4.8,2.2-4.8c0.7-1,1.1-2.1,1-3.3c-0.2-1.9,1.6-3.9,1.6-3.9l3.2-8.2l3-6.1l1.4,3.7c0,0,0,0.4,0,1.2
		l-1.1-3l-3,6.1l-3.2,8.2c0,0-1.8,2-1.6,3.9c0.1,1.2-0.2,2.3-1,3.3c0,0-0.9,3.9-2.2,4.8s-1.3,2.9-1.3,2.9s-1.7,5.6-2.4,6.6
		S733.1,575.8,733.1,575.8z"/>
</g>
<path class="st32" d="M732,434.6l0.5,2.8l-0.1,1.2l-0.1,0.9l3.5,0.5l0.4-0.6l0,0c0.8-1.2,2.4-3.6,2.9-3.9c0.7-0.5,2.2-8.2,0.7-7.8
	c-0.9,0.3-1.6,0.8-2,1.5C737.9,429.2,731,429.7,732,434.6z"/>
<path class="st12" d="M732.4,439.6l3.5,0.5l0.4-0.6l0,0c-0.9-1-2.5-1.3-3.8-0.7L732.4,439.6z"/>
<path class="st33" d="M731.4,441.1l4.6,1.1l0.1-0.6l0.3-1.7c-1-1.3-3-1.6-4.5-0.7c0,0,0,0,0,0l-0.3,0.9L731.4,441.1z"/>
<path class="st32" d="M806.9,437.5l4.9,2.6c0,0,0.2-0.4,0.5-0.8c0.5-0.9,1.3-2.2,1.5-2.7c0.3-0.7,2.4-1.6,2.4-1.6
	c5.4-4.3-0.6-8.4-0.6-8.4c-3-6.1-7,1.8-7,1.8s-0.7,4.2-0.3,4.5c0.3,0.3,0.3,1.5,0.3,1.5c-0.5,0.8-0.9,1.7-1.3,2.5
	C807,437.3,806.9,437.5,806.9,437.5z"/>
<path class="st12" d="M806.9,437.5l4.9,2.6c0,0,0.2-0.4,0.5-0.8c-0.7-0.6-3.1-2.5-3.9-2.4c-0.4,0-0.8,0-1.2,0
	C807,437.3,806.9,437.5,806.9,437.5z"/>
<path class="st33" d="M806.4,438.9l5.5,2.7l0.2-1.1l0.1-0.7c0,0-3.1-2.6-4.1-2.6c-0.5,0-1,0-1.5-0.1l-0.1,0.9L806.4,438.9z"/>
<path class="st32" d="M744.7,453.6c0,0,24.2,3.3,19.7,1.8c-3.1-1-4.3-2.9-4.5-4.9c-0.1-1.7,0.3-3.5,1.1-5.1c0.6-1.4,1.4-2.7,2.3-3.9
	c0,0-18.2-9.9-14.8-1.4c0.5,1.3,0.8,2.7,0.9,4c0.1,1.4-0.2,2.7-0.6,4C748,450.4,746.6,452.2,744.7,453.6z"/>
<path class="st12" d="M748.6,440.2c0.5,1.3,0.8,2.7,0.9,4c1.7,1.4,3.6,1.4,6.1,1.5c1.9,0.1,4,0.6,5.5-0.2c0.6-1.4,1.4-2.7,2.3-3.9
	C763.4,441.6,745.2,431.6,748.6,440.2z"/>
<ellipse class="st32" cx="756.3" cy="437.2" rx="10.1" ry="9.1"/>
<path class="st12" d="M744.7,453.6c0,0,24.2,3.3,19.7,1.8c-3.1-1-4.3-2.9-4.5-4.9c-1.2-1.2-3.6-2.2-5.1-2.7
	c-1.4-0.5-2.9-0.6-4.4-0.2c-0.6,0.1-1.1,0.3-1.6,0.6C748,450.4,746.6,452.2,744.7,453.6z"/>
<path class="st12" d="M731.4,441.1l4.6,1.1l0.1-0.6c-1-1.3-2.7-1.9-4.4-1.5L731.4,441.1z"/>
<path class="st12" d="M806.4,438.9l5.5,2.7l0.2-1.1c-1.8-0.9-3.6-1.7-5.5-2.4L806.4,438.9z"/>
<path class="st12" d="M732.8,508.9c9.3,1.7,22.7,3.9,24.8,3.4c1.8-0.4,7.4-0.2,12.3,0.1c0.1-2.2,0.1-3.7,0.1-3.7l-36.3-4.7
	C733.5,505.6,733.2,507.3,732.8,508.9z"/>
<path class="st15" d="M723.5,506.6c0,0,30.8,5.9,34.2,5.1c3.4-0.8,20.4,0.8,20.4,0.8c7.5,4.9,4.6-2.1,4.6-2.1s0.8-3.6,0-6.5
	c-0.5-2.2-0.9-4.4-1-6.6c0,0,0.4-4.6-0.5-5.7c-0.9-1.1-1.6-8.8-1.6-8.8s-0.6-5.2-0.5-6.4c0.1-1.1-0.1-4.4-0.1-4.4l-0.9-5.4
	c6.4-0.5,26.1-10.6,26.1-10.6c1.1-3.6,8.6-11.8,8.6-11.8c0.1-0.7,0.4-1.4,0.7-2c0.5-1.2-6.9-3.9-6.9-3.9s-5.9,6.1-7.2,7.7
	s-5.4,4.6-5.4,4.6c-0.6-0.1-1.3,0-1.9,0.2h-0.1l0,0c-1.4,0.4-2.7,1.1-3.8,1.8c-1.9-0.1-3.8,0.5-5.2,1.6c0,0-3.4-0.6-4.1-0.1
	c-0.6,0.5-3.5-0.1-3.5-0.1s-2.7-5.8-4.7-4.2s-10.3,1.2-10.3,1.2c-1-1.4-3.7-2.4-5.3-3c-1.4-0.5-2.9-0.6-4.4-0.2
	c-0.6,0.1-1.2,0.4-1.8,0.7l-5.2,4.3c0,0-1.4-1.7-1.2-2.1c0.2-0.4-1.6-0.7-1.6-0.7s-2.4-0.8-3.3-1c-0.9-0.3-1.8,0.6-1.9,0.7
	c0.4-1.1,0.6-2.2,0.5-3.4c-0.2-1.5,1.1-2.7,1.1-2.7c-2.7-6.7-9.6-1.4-9.6-1.4s-0.9,3.6-0.3,5c0.6,1.4-0.9,4.3-0.7,5
	c0.1,0.8-0.4,2.1-0.5,3.5c-0.1,1.5,0.7,4.2,1.1,5.5s4.4,4.1,4.4,4.1s0.1,4.4,1.7,7c1.7,2.6,0.2,11.2,0.2,11.2s-2,6.7-4.2,8.8
	C727.1,494.4,723.5,506.6,723.5,506.6z"/>
<path class="st12" d="M770.8,457.7c0,0,1-2.5,1.9-2.7c0.9-0.3,1.7-0.6,2.5-0.9l-0.5-1c0,0-3.2,0.7-3.7,1.5
	C770.4,455.4,770.8,457.7,770.8,457.7z"/>
<path class="st12" d="M788,452.7c0.1,0.8,7.6,1.7,7.6,1.7l-3.7-3.6l0,0h-0.1l0,0C790.5,451.3,789.2,451.9,788,452.7z"/>
<ellipse class="st34" cx="810.2" cy="442.9" rx="0.7" ry="0.6"/>
<ellipse class="st34" cx="809.3" cy="444.1" rx="0.7" ry="0.6"/>
<path class="st34" d="M808.4,444.6c0.4,0,0.7,0.3,0.7,0.6c0,0.3-0.3,0.6-0.7,0.6c-0.4,0-0.7-0.3-0.7-0.6
	C807.7,444.9,808,444.6,808.4,444.6z"/>
<ellipse class="st34" cx="807.4" cy="446.4" rx="0.7" ry="0.6"/>
<ellipse class="st34" cx="727.8" cy="443.6" rx="0.5" ry="0.5"/>
<ellipse class="st34" cx="727.7" cy="444.7" rx="0.5" ry="0.5"/>
<ellipse class="st34" cx="727.6" cy="445.8" rx="0.5" ry="0.5"/>
<path class="st12" d="M769.9,478.5c0.1-0.1-19.9,21.1-34.1,7.9C735.7,486.4,759,490.1,769.9,478.5z"/>
<path class="st12" d="M780.3,490.2c0,0-11.4-0.1-12.7,2.8l-0.1,3.1c0.6,0.4,1.4,0.4,2.1,0.1c1.2-0.5,8.2-3.5,10.6-1.8L780.3,490.2z"
	/>
<path class="st12" d="M775,467.5c-1.3,2.4-2.8,4.7-4.7,6.7c-2,2.3-4.5,4.2-7.2,5.8C763.2,480.1,774.8,468.9,775,467.5z"/>
<path class="st12" d="M779.3,455.6c0,0-2.2,7.4-7.2,9.7L779.3,455.6z"/>
<path class="st12" d="M782.2,456.5c0.1-0.1,1.4,6-6.7,9C775.5,465.5,778.9,464.6,782.2,456.5z"/>
<path class="st12" d="M732.6,449.8c0.1,0-4,2.2-5.2,3.3C727.5,453,730.2,449.5,732.6,449.8z"/>
<path class="st29" d="M758.6,445.5c-0.1,0.5-0.4,0.9-0.8,1.2c-0.3,0.1-0.6,0.2-1,0.2c-3.1,0.1-6.3,0.1-9.1-1.1
	c-0.5-0.2-1-0.5-1.3-0.9c-0.5-0.6-0.5-1.3-0.7-2c-0.3-1.4-1.1-2.6-1.7-3.9c-0.9-2.2-1.2-4.6-0.7-7c0.1-0.7,0.4-1.4,0.9-2
	c0.9-1,2.4-1.4,3.5-2.2c1.1-0.8,1.9-2.1,3.1-2.6c1.2-0.5,2.5-0.4,3.8-0.2c2.5,0.5,4.9,1.4,7,2.7c0.7,0.4,1.5,0.9,2.3,0.8
	c0.7-0.2,1.4-0.6,1.8-1.1c0.5,1.3,0.7,2.6,0.6,4c0,0.2,0,0.4,0,0.6c0.1,0.2,0.2,0.5,0.4,0.7c0.7,0.8,1.1,2.1,0.4,2.9
	c-0.3,0.3-0.9,0.5-1.2,0.9c-0.6,0.6-0.4,1.5-0.5,2.4c0,0.3-0.1,0.6-0.3,0.8c-0.3,0.3-0.8,0.4-1.3,0.2c-0.4-0.1-0.9-0.2-1.3-0.2
	c-0.5,0.1-0.9,0.4-1.2,0.8C759.9,441.8,759.3,443.6,758.6,445.5z"/>
<g class="st25">
	<path d="M746.1,444.2c0.4,0.4,0.8,0.7,1.3,0.9c2.8,1.2,6,1.2,9.1,1.1c0.3,0,0.7,0,1-0.2c0.4-0.3,0.7-0.7,0.8-1.2
		c0.7-1.9,1.3-3.7,2.8-5.3c0.3-0.4,0.7-0.6,1.2-0.8c0.4,0,0.9,0,1.3,0.2c0.4,0.1,0.9,0,1.3-0.2c0.2-0.2,0.3-0.5,0.3-0.8
		c0-0.8-0.1-1.7,0.5-2.4c0.3-0.3,0.8-0.5,1.2-0.9c0.5-0.5,0.6-1.2,0.3-1.8c0.5,0.8,0.7,1.8,0,2.4c-0.3,0.3-0.8,0.5-1.2,0.9
		c-0.6,0.6-0.4,1.5-0.5,2.4c0,0.3-0.1,0.6-0.3,0.8c-0.3,0.3-0.8,0.4-1.3,0.2c-0.4-0.1-0.9-0.2-1.3-0.2c-0.5,0.1-0.9,0.4-1.2,0.8
		c-1.5,1.6-2.1,3.4-2.8,5.3c0,0.8-0.8,1.4-1.7,1.4c0,0-0.1,0-0.1,0c-3.1,0.1-6.3,0.1-9.1-1.1c-0.5-0.2-1-0.5-1.3-0.9
		c-0.2-0.2-0.3-0.5-0.4-0.8C746.1,444.1,746.1,444.2,746.1,444.2z"/>
	<path d="M766.2,431.6c-0.1-0.1-0.2-0.3-0.3-0.5c0-0.2,0-0.4,0-0.6c0.1-1.1,0-2.2-0.3-3.3l0.1-0.1c0.5,1.3,0.8,2.6,0.6,4
		C766.2,431.3,766.2,431.4,766.2,431.6z"/>
</g>
<path class="st12" d="M760.2,451.1c0,0-12.6,1.1-13.7-0.7"/>
<path class="st12" d="M736,445.6c0,0-7-0.2-8.6,2.1"/>
</svg>
