<?xml version="1.0" encoding="utf-8"?>
<!-- Generator: Adobe Illustrator 24.1.2, SVG Export Plug-In . SVG Version: 6.00 Build 0)  -->
<svg version="1.1" id="Layer_1" xmlns="http://www.w3.org/2000/svg" xmlns:xlink="http://www.w3.org/1999/xlink" x="0px" y="0px"
	 viewBox="0 0 25 25" style="enable-background:new 0 0 25 25;" xml:space="preserve">
<style type="text/css">
	.st0{fill:none;stroke-width:0.5;stroke-miterlimit:10;}
	.st1{fill:none;stroke-width:0.5;stroke-linecap:round;stroke-miterlimit:10;}
	.st2{fill:none;stroke-width:0.3;stroke-miterlimit:10;}
</style>
<ellipse class="st2" cx="19.6" cy="14.6" rx="4.1" ry="4.4"/>
<path class="st2" d="M24.7,14.6c0,3-2.3,5.5-5.1,5.5c-2.8,0-5.1-2.5-5.1-5.5s2.3-5.5,5.1-5.5C22.4,9.1,24.7,11.6,24.7,14.6z"/>
<ellipse class="st2" cx="5.5" cy="14.6" rx="4.1" ry="4.4"/>
<path class="st2" d="M5.5,11.6c-0.2,0-1.1,0.1-1.8,0.7c-0.9,0.8-0.9,2-0.9,2.2"/>
<path class="st2" d="M19.6,11.6c-0.2,0-1.1,0.1-1.8,0.7c-0.9,0.8-0.9,2-0.9,2.2"/>
<path class="st2" d="M9,9c0.8-0.1,1.4-0.3,1.9-0.6c0.8-0.5,1-0.9,1.6-0.9c0.6,0,0.7,0.5,1.4,0.9c0.4,0.2,1.1,0.5,2.2,0.3"/>
<path class="st2" d="M9.1,10.7c0.8-0.1,1.4-0.3,1.9-0.6c0.8-0.5,1-0.9,1.6-0.9c0.6,0,0.7,0.5,1.4,0.9c0.4,0.2,1.1,0.5,2.2,0.5"/>
<path class="st2" d="M2.1,10.5c1-1,2.4-2.6,3.3-3.6c0.7-0.7,1.8-1,2.7-0.7c1.1,0.3,1.9,1.4,1.9,2.6"/>
<path class="st2" d="M10.7,14.6c0,3-2.3,5.5-5.1,5.5c-2.8,0-5.1-2.5-5.1-5.5s2.3-5.5,5.1-5.5C8.4,9.1,10.7,11.6,10.7,14.6z"/>
<path class="st2" d="M23,10.5c-1-1-2.4-2.6-3.4-3.6c-0.7-0.7-1.8-1-2.7-0.7C15.8,6.4,15,7.5,15,8.8"/>
<line class="st2" x1="10.7" y1="14.6" x2="14.4" y2="14.6"/>
<ellipse class="st2" cx="12.5" cy="11.3" rx="0.8" ry="0.9"/>
</svg>
