<?xml version="1.0" encoding="utf-8"?>
<!-- Generator: Adobe Illustrator 24.1.2, SVG Export Plug-In . SVG Version: 6.00 Build 0)  -->
<svg version="1.1" id="Layer_1" xmlns="http://www.w3.org/2000/svg" xmlns:xlink="http://www.w3.org/1999/xlink" x="0px" y="0px"
	 viewBox="0 0 100 100" style="enable-background:new 0 0 100 100;" xml:space="preserve">
<ellipse cx="77.5" cy="56.4" rx="15.9" ry="17"/>
<path d="M97.5,56.4c0,11.7-8.9,21.3-19.9,21.3c-11,0-19.9-9.6-19.9-21.3c0-6,2.3-11.4,6.1-15.3c3.6-3.7,8.5-6,13.9-6
	C88.6,35.1,97.5,44.7,97.5,56.4z"/>
<ellipse cx="23" cy="56.4" rx="15.9" ry="17"/>
<path d="M22.9,44.8c-0.9,0-4.3,0.3-7.1,2.9c-3.6,3.3-3.6,7.8-3.5,8.5"/>
<path d="M77.5,44.8c-0.9,0-4.3,0.3-7.1,2.9c-3.6,3.3-3.6,7.8-3.5,8.5"/>
<path d="M36.3,34.7c3.1-0.4,5.5-1.4,7.4-2.4c3.1-1.8,4-3.4,6.1-3.3c2.2,0.1,2.8,1.9,5.6,3.5c1.7,0.9,4.4,1.8,8.5,1.3"/>
<path d="M37.2,41.5c3.1-0.4,5.1-1.3,7-2.4c3.1-1.8,4-3.4,6.1-3.3c2.2,0.1,2.8,1.8,5.6,3.5c1.7,1,3.7,2,7.7,1.9"/>
<path d="M9.7,40.5c-0.9,0.9,9.3-10,13-14.1c2.8-2.9,6.8-4,10.5-2.9c4.3,1.3,7.4,5.5,7.3,10.3"/>
<path d="M42.9,56.4c0,11.7-8.9,21.3-19.9,21.3c-11,0-20-9.6-20-21.3c0-6.3,2.6-12.1,6.7-15.9c3.5-3.4,8.2-5.4,13.3-5.4
	C34,35.1,42.9,44.7,42.9,56.4z"/>
<path d="M90.8,40.5c-3.7-4.1-9.4-10-13.1-14.1c-2.8-2.9-6.8-4-10.5-2.9c-4.3,1.3-7.4,5.5-7.3,10.3"/>
<line x1="42.9" y1="56.4" x2="57.6" y2="56.4"/>
<ellipse cx="50.1" cy="43.8" rx="3.2" ry="3.3"/>
</svg>
