<?xml version="1.0" encoding="utf-8"?>
<!-- Generator: Adobe Illustrator 24.1.2, SVG Export Plug-In . SVG Version: 6.00 Build 0)  -->
<svg version="1.1" id="Layer_1" xmlns="http://www.w3.org/2000/svg" xmlns:xlink="http://www.w3.org/1999/xlink" x="0px" y="0px"
	 viewBox="0 0 100 100" style="enable-background:new 0 0 100 100;" xml:space="preserve">
<circle cx="50.1" cy="50.3" r="12.5"/>
<path d="M50.1,67.1c-10,0-30,5-30,15v7.5h60v-7.5C80.1,72.1,60.1,67.1,50.1,67.1z"/>
<path d="M85,15v9.1c0,2.5-2,4.6-4.6,4.6H76l-8.9,9.1v-9.1H20.6c-2.5,0-4.6-2-4.6-4.6V15c0-2.5,2-4.6,4.6-4.6h59.8
	C83,10.4,85,12.5,85,15z"/>
<polygon points="28.4,20.6 29.1,22.7 27.6,21.6 26.5,20.9 25.5,21.6 24,22.7 24.7,20.6 25,19.7 22.4,17.9 25.6,17.9 
	26.5,14.9 27.5,17.9 30.7,17.9 28.1,19.7 "/>
<polygon points="40.4,20.6 41.1,22.7 39.6,21.6 38.5,20.9 37.5,21.6 36,22.7 36.7,20.6 36.9,19.7 34.4,17.9 37.6,17.9 
	38.5,14.9 39.5,17.9 42.7,17.9 40.1,19.7 "/>
<polygon points="52.4,20.6 53.1,22.7 51.5,21.6 50.5,20.9 49.5,21.6 48,22.7 48.7,20.6 48.9,19.7 46.4,17.9 49.5,17.9 
	50.5,14.9 51.5,17.9 54.6,17.9 52.1,19.7 "/>
<polygon points="64.4,20.6 65.1,22.7 63.5,21.6 62.5,20.9 61.5,21.6 60,22.7 60.6,20.6 60.9,19.7 58.4,17.9 61.5,17.9 
	62.5,14.9 63.5,17.9 66.6,17.9 64.1,19.7 "/>
<polygon points="76.4,20.6 77.1,22.7 75.5,21.6 74.5,20.9 73.5,21.6 71.9,22.7 72.6,20.6 72.9,19.7 70.4,17.9 
	73.5,17.9 74.5,14.9 75.5,17.9 78.6,17.9 76.1,19.7 "/>
</svg>
