<?xml version="1.0" encoding="utf-8"?>
<!-- Generator: Adobe Illustrator 24.1.2, SVG Export Plug-In . SVG Version: 6.00 Build 0)  -->
<svg version="1.1" id="Layer_1" xmlns="http://www.w3.org/2000/svg" xmlns:xlink="http://www.w3.org/1999/xlink" x="0px" y="0px"
	 viewBox="0 0 100 100" style="enable-background:new 0 0 100 100;" xml:space="preserve">
<path d="M104.4,25.3"/>
<g>
	<path d="M92.7,20.3v56.9H7.3V20.3c18.8,0,37.6,0,56.3,0c-0.3,0.3-0.6,0.6-0.9,0.9c-18.2,0-36.3,0-54.5,0v53h83.4v-53
		c-3.3,0-6.7,0-10,0c0.4-0.3,0.8-0.7,1.2-1C86.1,20.3,89.4,20.3,92.7,20.3z"/>
	<path d="M77.8,10.4c0.7,0.2,2,0.7,3.2,1.8c1.5,1.4,2.1,2.9,2.3,3.7C73.5,25.7,63.8,35.5,54,45.2l-7.5,2l2-7.5
		L77.8,10.4z"/>
	<path d="M54.3,81.1h-8.5c-0.5,1.4-1.3,3.1-2.4,4.9c-0.9,1.4-1.8,2.6-2.7,3.6c6.2,0,12.4,0,18.6,0c-0.9-1-2-2.3-3-4
		C55.3,83.9,54.7,82.4,54.3,81.1z"/>
	<path d="M80.4,26.1"/>
	<path d="M48.5,39.7c0.7,0.2,2,0.6,3.2,1.7c1.6,1.4,2.1,3.2,2.3,3.8"/>
	<path d="M78.7,27.8"/>
</g>
</svg>
